<svg width="34" height="39" viewBox="0 0 34 39" fill="none" xmlns="http://www.w3.org/2000/svg">
<path d="M33.7576 11.248C33.7576 11.2938 33.4537 11.2938 32.846 11.3396C32.2383 11.3396 31.3702 11.3854 30.1982 11.3854C29.8075 11.3854 29.4168 11.3854 28.9827 11.3854C28.5487 11.3854 28.0712 11.4313 27.5937 11.3854C27.1162 11.3396 26.5953 11.5229 26.031 11.3854C25.4667 11.3396 24.9024 11.3854 24.2947 11.3854C23.687 11.3854 23.0793 11.3396 22.4282 11.3854C21.7771 11.5229 21.126 11.248 20.4314 11.3854C19.7369 11.4313 18.999 11.4313 18.2611 11.3854C17.5231 11.2938 16.7418 11.3854 15.9605 11.3854C15.1791 11.2938 14.3544 11.3396 13.5296 11.3854C12.7049 11.248 11.8801 11.248 11.012 11.3854C10.1438 11.3854 9.27567 11.3396 8.36411 11.3854C7.45255 11.3854 6.54099 11.4313 5.62943 11.3854C5.15195 11.4313 4.67446 11.4771 4.19698 11.4771C3.97994 11.4771 3.71949 11.4771 3.45905 11.4771C3.32882 11.4771 3.1986 11.4771 3.11179 11.4771C3.06838 11.4771 2.98156 11.4771 2.89475 11.4771C2.80793 11.4771 2.76452 11.4771 2.67771 11.4313C2.41726 11.4313 2.11341 11.3854 1.85296 11.248C1.59252 11.1563 1.33207 10.973 1.11503 10.7897C0.897996 10.6064 0.724365 10.3772 0.550735 10.1023C0.420512 9.82732 0.290289 9.55236 0.246881 9.2774C0.203473 9.13992 0.203473 9.00244 0.160066 8.86496C0.377104 8.86496 0.594142 8.81913 0.81118 8.81913C0.81118 9.73567 0.897996 10.698 0.81118 11.6604C0.81118 12.7602 0.854588 13.8601 0.81118 14.9599C0.767773 16.0598 0.724365 17.2054 0.81118 18.3511C0.854588 19.4968 0.854588 20.6425 0.81118 21.834C0.941403 22.9796 0.854588 24.1711 0.81118 25.3626C0.81118 26.5541 0.767773 27.7456 0.81118 28.9371C0.81118 30.1286 0.854588 31.366 0.81118 32.6033C0.81118 32.8782 0.81118 33.199 0.767773 33.474C0.767773 33.6115 0.767773 33.749 0.767773 33.8864C0.767773 33.9323 0.767773 33.9323 0.767773 33.9781H1.02822C1.15844 33.9781 1.33207 33.9781 1.4623 33.9781C1.76615 33.9781 2.07 33.9781 2.37386 33.9323C3.50245 33.8406 4.67446 33.9781 5.75965 33.9323C6.88825 34.0239 8.01685 33.8864 9.10204 33.9323C10.1872 33.9323 11.3158 33.9781 12.401 33.9323C13.4862 33.9323 14.5714 33.8864 15.6132 33.9323C16.655 33.749 17.6968 33.9781 18.7385 33.9323C19.7803 34.0239 20.7787 33.9323 21.7771 33.9323C22.7755 33.8864 23.7738 34.0239 24.7288 33.9323C25.6838 33.9323 26.6387 33.8864 27.5937 33.9323C28.5487 33.8406 29.4602 34.0239 30.3284 33.9323C31.2399 33.9323 32.1081 33.9323 32.9762 33.9323C33.0197 33.9323 33.1065 33.9323 33.1499 33.9781H33.2801C33.2801 33.9781 33.2801 33.9781 33.3235 33.9781C33.3669 33.9781 33.4537 33.9781 33.4971 33.9781C33.4971 33.9323 33.4971 33.8864 33.4971 33.8864V33.749C33.4971 33.6115 33.4971 33.4282 33.4971 33.2907C33.4971 32.9699 33.4537 32.6949 33.4537 32.3741C33.4537 31.5034 33.3669 30.6327 33.4537 29.8078C33.4537 28.983 33.5406 28.1581 33.4537 27.379C33.4537 26.6 33.6274 25.8209 33.4537 25.0877C33.4103 24.3544 33.584 23.667 33.4537 22.9796C33.3669 22.2922 33.4537 21.6507 33.4537 21.0091C33.4537 20.3675 33.4537 19.7718 33.4537 19.176C33.4971 16.5639 33.4971 14.5475 33.5406 13.1269C33.5406 12.4395 33.584 11.8895 33.584 11.5229C33.7576 11.4313 33.7576 11.248 33.7576 11.248C33.801 11.248 33.801 11.4771 33.801 11.9354C33.801 12.3936 33.8444 13.0352 33.8444 13.9059C33.8878 15.6015 33.9312 18.122 33.9312 21.284C33.9312 21.9256 34.018 22.5672 33.9312 23.2546C33.9312 23.942 34.018 24.6294 33.9312 25.3626C34.0614 26.0959 33.9746 26.8749 33.9312 27.654C33.9312 28.433 33.8878 29.2579 33.9312 30.0828C34.018 30.9077 33.8878 31.7784 33.9312 32.6491C33.8878 32.9699 33.8878 33.2449 33.8878 33.5656C33.8878 33.7031 33.8878 33.8864 33.8878 34.0239C33.8878 34.1614 33.8878 34.253 33.8878 34.3905C33.8878 34.528 33.8878 34.6655 33.8878 34.7571C33.6708 34.7571 33.4971 34.7571 33.2801 34.7571H33.0631C33.0197 34.7571 32.9328 34.7571 32.846 34.7571C31.9779 34.6655 31.1097 34.7571 30.1982 34.7571C29.2866 34.6197 28.375 34.7113 27.4635 34.7571C26.5085 34.803 25.597 34.7571 24.5986 34.7571C23.6436 34.7571 22.6452 34.803 21.6469 34.7571C20.6485 34.803 19.6501 34.8488 18.6083 34.7571C17.5665 34.803 16.5248 34.7571 15.483 34.7571C14.4412 34.803 13.356 34.7571 12.2708 34.7571C11.1856 34.803 10.1004 34.6197 8.97182 34.7571C7.88663 34.7571 6.75803 34.7571 5.62943 34.7571C4.50083 34.7571 3.37223 34.7113 2.24363 34.7571C1.93978 34.7113 1.63593 34.7113 1.33207 34.7113C1.20185 34.7113 1.02822 34.7113 0.897996 34.7113C0.63755 34.7113 0.377104 34.7113 0.116658 34.7113C0.116658 34.4822 0.116658 34.2072 0.116658 33.9323C0.116658 33.7948 0.116658 33.6115 0.116658 33.474C0.116658 33.199 0.0732504 32.8782 0.0732504 32.6033C0.0298428 31.366 0.0732504 30.1745 0.0732504 28.9371C0.0732504 27.7456 0.0732504 26.5083 0.0732504 25.3626C0.0298428 24.1711 0.116658 22.9796 0.0732504 21.834C0.0298428 20.6883 0.116658 19.4968 0.0732504 18.3511C0.0298428 17.2054 0.0298428 16.0598 0.0732504 14.9599C0.0732504 13.8601 0.203473 12.7602 0.0732504 11.6604C0.0732504 10.698 -0.0569725 9.78149 0.0298428 8.81913L0.81118 8.7733C0.81118 8.86495 0.81118 9.00244 0.81118 9.09409C0.897996 9.32322 0.984811 9.50653 1.07163 9.68984C1.20185 9.87315 1.33207 10.0565 1.4623 10.1939C1.63593 10.3314 1.80956 10.4689 1.98319 10.5605C2.15682 10.6522 2.37386 10.698 2.59089 10.698C2.6343 10.698 2.67771 10.7439 2.76452 10.7439C2.80793 10.7439 2.85134 10.7439 2.93816 10.7439C3.06838 10.7439 3.1986 10.7439 3.28542 10.7439C3.54586 10.7439 3.7629 10.7439 4.02335 10.7439C4.50083 10.7439 4.97831 10.698 5.4558 10.698C6.41077 10.7439 7.32233 10.7439 8.19048 10.698C9.10204 10.6522 9.97019 10.7439 10.8383 10.698C11.7065 10.6064 12.5312 10.7897 13.356 10.698C14.1807 10.698 15.0055 10.698 15.7868 10.698C16.5682 10.5147 17.3495 10.698 18.0874 10.698C18.8254 10.7439 19.5633 10.5606 20.2578 10.698C20.9523 10.5606 21.6034 10.698 22.2546 10.698C22.9057 10.7439 23.5134 10.6522 24.1211 10.698C24.7288 10.6064 25.2931 10.7439 25.8574 10.698C26.4217 10.7439 26.9426 10.698 27.4201 10.698C27.8976 10.698 28.375 10.698 28.8091 10.698C29.2432 10.698 29.6773 10.698 30.0245 10.698C31.1531 10.698 32.0647 10.7439 32.6724 10.7439C33.4537 11.2021 33.7576 11.2021 33.7576 11.248Z" fill="#44693D"/>
<path d="M12.6181 5.97786C12.6181 6.02369 11.8801 6.06952 10.5779 6.11534C10.3609 6.11534 10.1438 6.11534 9.88338 6.11534C9.62293 6.11534 9.36249 6.16117 9.05863 6.11534C8.75478 6.06952 8.49433 6.25282 8.14707 6.11534C7.84322 6.06952 7.49596 6.11534 7.1487 6.11534C6.80144 6.11534 6.45418 6.06952 6.06351 6.11534C5.67284 6.25282 5.32558 5.97786 4.8915 6.11534C4.50083 6.16117 4.06675 6.16117 3.67609 6.11534C3.45905 6.06952 3.24201 6.06952 3.02497 6.06952C2.80793 6.11534 2.6343 6.11534 2.41726 6.207C2.37386 6.207 2.37386 6.207 2.33045 6.207C2.28704 6.207 2.28704 6.207 2.24363 6.207C2.20023 6.207 2.15682 6.207 2.07 6.25282C1.98319 6.29865 1.85296 6.34448 1.76615 6.3903C1.59252 6.52778 1.41889 6.66527 1.33207 6.84857C0.941403 7.07771 0.724365 7.5818 0.767773 8.04007C0.724365 8.26921 0.724365 8.49834 0.724365 8.72747C0.724365 8.95661 0.81118 9.18574 0.941403 9.41488C0.984811 9.4607 0.984811 9.50653 1.02822 9.55236L1.20185 9.82732C1.41889 10.0565 1.4623 10.1023 1.4623 10.1481C1.63593 10.3314 1.80956 10.4689 1.98319 10.6064C2.20023 10.698 2.41726 10.7439 2.67771 10.7897C2.72112 10.7897 2.80793 10.7897 2.85134 10.8355C2.89475 10.8355 2.98156 10.8355 3.02497 10.8355C3.06838 10.8355 3.06838 10.8355 3.11179 10.8355H3.1986C3.28542 10.8355 3.32882 10.8355 3.41564 10.8813C3.97994 10.7897 4.54424 10.8355 5.10854 10.8813C5.67284 10.9272 6.28054 10.7897 6.84484 10.8813C7.45255 10.8813 8.01685 10.8355 8.62456 10.8813C9.23226 10.9272 9.83997 10.973 10.4477 10.8813C11.0554 10.8355 11.7065 10.8355 12.3142 10.8813C12.9653 10.7439 13.573 10.8355 14.2241 10.8813C14.8753 10.8813 15.5264 10.9272 16.1775 10.8813C16.8286 10.8813 17.4797 10.8355 18.1742 10.8813C18.8254 10.9272 19.5199 10.973 20.171 10.8813C20.8221 10.7897 21.4732 10.9272 22.1243 10.8813C22.7754 10.973 23.4266 10.8355 24.0343 10.8813C24.6854 10.8813 25.2931 10.9272 25.9008 10.8813C26.5085 10.8813 27.1162 10.8355 27.7239 10.8813C28.3316 10.698 28.9393 10.9272 29.5036 10.8813C30.1113 10.973 30.6756 10.8813 31.2399 10.8813C31.8042 10.8355 32.3685 10.973 32.9328 10.8813C32.9762 10.8813 33.0631 10.8813 33.1065 10.8813H33.2367C33.2801 10.8813 33.2801 10.8813 33.3235 10.8813V10.7439C33.3235 10.6064 33.3235 10.4231 33.3669 10.2856C33.2801 9.73567 33.4537 9.18574 33.3669 8.63582C33.3669 8.0859 33.3669 7.53598 33.3669 7.03188C33.4103 6.84857 33.4103 6.66527 33.4103 6.48196V6.34448C33.4103 6.29865 33.4103 6.25282 33.4103 6.25282C33.3669 6.25282 33.3235 6.25282 33.3235 6.25282H33.2367C32.7592 6.25282 32.3251 6.34448 31.8477 6.25282C31.4136 6.25282 30.9795 6.16117 30.5454 6.25282C30.1113 6.25282 29.7207 6.06952 29.33 6.25282C28.9393 6.29865 28.5487 6.11534 28.158 6.25282C27.7673 6.34448 27.4201 6.25282 27.0728 6.25282C26.7255 6.25282 26.4217 6.25282 26.0744 6.25282C24.642 6.207 23.5568 6.207 22.7754 6.16117C22.0375 6.11534 21.6034 6.11534 21.6034 6.06952C21.6034 6.02369 22.1243 5.97786 23.0359 5.93204C23.9475 5.88621 25.3365 5.84038 27.0294 5.84038C27.3767 5.84038 27.7239 5.74873 28.1146 5.84038C28.5053 5.84038 28.8525 5.74873 29.2866 5.84038C29.6773 5.7029 30.1113 5.79455 30.502 5.84038C30.9361 5.84038 31.3702 5.88621 31.8042 5.84038C32.2383 5.74873 32.7158 5.88621 33.1933 5.84038H33.5406C33.6708 5.84038 33.7576 5.84038 33.8878 5.84038C33.8878 5.97786 33.8878 6.11534 33.8878 6.25282C33.8878 6.29865 33.8878 6.3903 33.8878 6.43613V6.57361C33.8878 6.75692 33.9312 6.94023 33.9312 7.12353C33.8444 7.62763 33.9312 8.17755 33.9312 8.72747C33.801 9.2774 33.8878 9.82732 33.9312 10.3772C33.9312 10.5147 33.9312 10.698 33.9312 10.8355C33.9312 11.1105 33.9312 11.3854 33.9312 11.6604C33.7142 11.6604 33.4971 11.6604 33.2801 11.6604C33.1933 11.6604 33.1065 11.6604 33.0631 11.6604C33.0197 11.6604 32.9328 11.6604 32.8894 11.6604C32.3251 11.6604 31.7608 11.7062 31.1965 11.6604C30.6322 11.7062 30.0245 11.752 29.4602 11.6604C28.8525 11.7062 28.2882 11.6604 27.6805 11.6604C27.0728 11.7062 26.4651 11.6604 25.8574 11.6604C25.2497 11.7062 24.5986 11.5229 23.9909 11.6604C23.3398 11.6604 22.732 11.6604 22.0809 11.6604C21.4298 11.6604 20.7787 11.6146 20.1276 11.6604C19.4765 11.5229 18.8254 11.6146 18.1308 11.6604C17.4797 11.7062 16.7852 11.6604 16.1341 11.6604C15.483 11.6604 14.8319 11.6604 14.1807 11.6604C13.5296 11.7062 12.8785 11.6146 12.2708 11.6604C11.6197 11.7062 11.012 11.6146 10.4043 11.6604C9.79656 11.7062 9.18886 11.7062 8.58115 11.6604C7.97344 11.6604 7.36574 11.5229 6.80144 11.6604C6.19373 11.7062 5.62943 11.8437 5.06513 11.6604C4.50083 11.7062 3.93653 11.5687 3.37223 11.6604C3.24201 11.6146 3.11179 11.6146 2.93816 11.6146C2.85134 11.6146 2.76452 11.6146 2.72112 11.6146C2.6343 11.6146 2.59089 11.6146 2.50408 11.5687C2.20023 11.5229 1.89637 11.4313 1.63593 11.2938C1.4623 11.0646 1.20185 10.8355 1.02822 10.6064C0.984811 10.5605 0.941403 10.5147 0.897996 10.4231C0.854588 10.3772 0.81118 10.2856 0.767773 10.2398L0.63755 10.0565C0.594142 10.0106 0.550735 9.91897 0.507327 9.87315C0.377104 9.59819 0.290289 9.32322 0.246881 9.00244C0.246881 8.68165 0.246881 8.40669 0.290289 8.13173C0.290289 7.85676 0.420512 7.53598 0.550735 7.30684C0.680957 7.07771 0.854588 6.84857 1.02822 6.61944C1.20185 6.43613 1.41889 6.25282 1.63593 6.11534C1.72274 6.02369 1.85296 5.97786 1.98319 5.93204C2.02659 5.88621 2.11341 5.88621 2.15682 5.88621C2.20023 5.88621 2.20023 5.88621 2.24363 5.84038H2.33045C2.37386 5.79455 2.46067 5.74873 2.50408 5.74873C2.54749 5.74873 2.6343 5.7029 2.67771 5.7029C2.72112 5.7029 2.72112 5.7029 2.76452 5.7029C2.80793 5.7029 2.80793 5.7029 2.85134 5.7029C2.89475 5.7029 2.98156 5.7029 3.02497 5.7029C3.24201 5.74873 3.45905 5.79455 3.67609 5.79455C4.11016 5.84038 4.50083 5.7029 4.8915 5.79455C5.28217 5.65707 5.67284 5.79455 6.06351 5.79455C6.45418 5.84038 6.80144 5.74873 7.1487 5.79455C7.49596 5.7029 7.79981 5.84038 8.14707 5.79455C8.45093 5.84038 8.75478 5.79455 9.05863 5.79455C9.36249 5.79455 9.62293 5.79455 9.88338 5.79455C10.1438 5.79455 10.3609 5.79455 10.5779 5.79455C11.8801 5.84038 12.6181 5.93203 12.6181 5.97786Z" fill="#44693D"/>
<path d="M21.7337 7.21519C21.6903 7.21519 21.6469 6.94023 21.6034 6.3903C21.6034 6.29865 21.6034 6.207 21.6034 6.11534C21.6034 6.02369 21.56 5.93204 21.6034 5.79455C21.6469 5.7029 21.4732 5.56542 21.6034 5.42794C21.6469 5.29046 21.6034 5.15298 21.6034 5.0155C21.6034 4.87802 21.6469 4.74054 21.6034 4.60306C21.4732 4.46557 21.7337 4.28227 21.6034 4.14479C21.56 4.00731 21.56 3.824 21.6034 3.64069C21.6903 3.45738 21.6034 3.3199 21.6034 3.1366C21.6903 2.95329 21.6469 2.76998 21.6034 2.58667C21.7337 2.40337 21.7337 2.22006 21.6034 1.99092C21.6034 1.9451 21.6034 1.9451 21.6034 1.89927V1.85344L21.4298 1.89927V1.76179C21.4298 1.76179 21.4298 1.71596 21.3864 1.71596L21.343 1.67014C21.2996 1.53265 21.1694 1.39517 21.0826 1.25769C20.9089 1.21187 20.8221 1.16604 20.6919 0.982732C20.6485 0.982732 20.6485 0.982732 20.6051 0.982732H20.5617C20.5183 0.982732 20.4748 0.982732 20.4314 0.982732C20.388 0.982732 20.3446 0.982732 20.3012 0.936905C20.2578 0.936905 20.2144 0.891078 20.1276 0.891078C19.9105 0.845251 19.6935 0.982732 19.4765 0.891078C19.2594 0.891078 19.0424 0.936905 18.8254 0.891078C18.6083 0.845251 18.3479 0.799424 18.1308 0.891078C17.9138 0.936905 17.6533 0.936905 17.4363 0.891078C17.2193 1.02856 16.9588 0.936905 16.6984 0.891078C16.4379 0.891078 16.2209 0.845251 15.9605 0.891078C15.7 0.891078 15.483 0.936905 15.2225 0.891078C14.9621 0.845251 14.745 0.799424 14.4846 0.891078C14.3544 0.936905 14.2241 0.936905 14.1373 0.891078H14.0505C14.0071 0.891078 14.0071 0.891078 13.9637 0.891078C13.9203 0.891078 13.8769 0.891078 13.8335 0.891078C13.7467 0.845251 13.6598 0.891078 13.573 0.936905C13.5296 0.982732 13.4862 0.982732 13.4862 1.02856C13.4428 1.07439 13.3994 1.07439 13.356 1.12021C13.3126 1.16604 13.2258 1.25769 13.139 1.30352C13.0955 1.34935 13.0521 1.441 13.0087 1.53265C13.0087 1.62431 12.9653 1.71596 12.9653 1.80762C12.9653 1.85344 12.9653 1.89927 12.9653 1.9451C12.9653 1.9451 12.9653 1.99092 12.9653 2.03675C12.9653 2.08258 12.9653 2.08258 12.9653 2.1284C13.139 2.35754 12.9219 2.58667 12.9653 2.81581C12.8785 3.04494 12.9653 3.27408 12.9653 3.50321C13.0087 3.73234 12.8785 3.96148 12.9653 4.19061C12.9653 4.41975 13.0087 4.64888 12.9653 4.83219C13.0521 5.06132 12.8785 5.24463 12.9653 5.47377C12.9653 5.65707 12.9653 5.88621 12.9653 6.06952C12.8351 6.25282 12.9219 6.43613 12.9653 6.66527C12.9653 6.84857 13.0521 7.03188 12.9653 7.21519C12.9653 7.3985 12.8785 7.5818 12.9653 7.71928C12.9653 7.90259 12.7917 8.04007 12.9653 8.22338C13.0087 8.36086 12.8351 8.54417 12.9653 8.68165C13.0521 8.81913 12.9653 8.95661 12.9653 9.09409C12.9653 9.23157 12.9653 9.36905 12.9653 9.50653C12.9219 10.6064 12.8351 11.248 12.7917 11.248C12.7049 11.248 12.6615 10.4689 12.5747 9.09409C12.5747 8.95661 12.4878 8.81913 12.5747 8.68165C12.5747 8.54417 12.4878 8.36086 12.5747 8.22338C12.4444 8.0859 12.5312 7.90259 12.5747 7.71928C12.5747 7.53598 12.6181 7.3985 12.5747 7.21519C12.4878 7.03188 12.6181 6.84857 12.5747 6.66527C12.6615 6.48196 12.6181 6.29865 12.5747 6.06952C12.6615 5.88621 12.5747 5.65707 12.5747 5.47377C12.7049 5.29046 12.6181 5.06132 12.5747 4.83219C12.5312 4.60306 12.5747 4.41975 12.5747 4.19061C12.5747 3.96148 12.5312 3.73234 12.5747 3.50321C12.5312 3.27408 12.4878 3.04494 12.5747 2.81581C12.5312 2.58667 12.5747 2.35754 12.5747 2.1284C12.5747 2.08258 12.5747 2.08258 12.5747 2.03675C12.5747 1.99092 12.5747 1.99092 12.5747 1.9451C12.5747 1.85344 12.5747 1.80762 12.5747 1.71596C12.6181 1.57848 12.6615 1.441 12.7049 1.25769C12.7483 1.12021 12.8351 0.982732 12.9653 0.891078C12.7483 0.799424 12.8351 0.661944 12.9219 0.524463C13.0521 0.432809 13.1824 0.341156 13.3126 0.295329C13.4428 0.249502 13.6164 0.203675 13.7467 0.157848C13.8335 0.157848 13.9203 0.157848 13.9637 0.157848C14.0071 0.157848 14.0505 0.157848 14.0505 0.157848H14.1373C14.2676 0.157848 14.3978 0.157848 14.4846 0.157848C14.745 0.295329 14.9621 0.203675 15.2225 0.157848C15.483 0.112021 15.7 0.157848 15.9605 0.157848C16.2209 0.157848 16.4379 0.157848 16.6984 0.157848C16.9588 0.112021 17.1759 0.203675 17.4363 0.157848C17.6533 0.112021 17.9138 0.203675 18.1308 0.157848C18.3479 0.112021 18.6083 0.112021 18.8254 0.157848C19.0424 0.157848 19.2594 0.295329 19.4765 0.157848C19.6935 0.112021 19.9105 -0.0254594 20.1276 0.157848C20.171 0.157848 20.2144 0.157848 20.3012 0.157848C20.388 0.157848 20.4314 0.157848 20.5183 0.203675C20.5617 0.203675 20.6485 0.249502 20.6919 0.249502C20.7353 0.249502 20.7353 0.249502 20.7787 0.249502C20.8221 0.249502 20.8221 0.249502 20.8655 0.249502C20.9523 0.295329 20.9957 0.341156 20.9957 0.341156C21.0391 0.341156 21.0391 0.386983 21.0826 0.386983C21.126 0.432809 21.1694 0.432809 21.2562 0.478636C21.2996 0.524463 21.343 0.57029 21.4298 0.616117C21.4732 0.661944 21.5166 0.707771 21.56 0.753598C21.7337 0.982732 21.8205 1.21187 21.9507 1.39517C21.9507 1.441 21.9941 1.441 21.9941 1.48683C21.9941 1.53265 21.9941 1.53265 22.0375 1.57848C22.0375 1.62431 22.0375 1.62431 22.0375 1.67014C22.0375 1.71596 22.0375 1.71596 22.0375 1.76179C22.0375 1.80762 22.0375 1.80762 22.0375 1.85344C22.0375 1.89927 22.0375 1.89927 22.0375 1.9451C22.0375 1.99092 22.0375 1.99092 22.0375 2.03675C22.0375 2.08258 22.0375 2.08258 22.0375 2.1284C22.1243 2.31171 21.9507 2.49502 22.0375 2.72415C22.0375 2.90746 22.0375 3.09077 22.0375 3.27408C22.2112 3.45738 22.0375 3.64069 22.0375 3.77817C21.9941 3.96148 22.1243 4.09896 22.0375 4.28227C22.1677 4.41975 22.0375 4.60306 22.0375 4.74054C21.9941 4.87802 22.0809 5.0155 22.0375 5.15298C22.1243 5.29046 21.9941 5.42794 22.0375 5.56542C21.9941 5.7029 22.0375 5.79455 22.0375 5.93204C22.0375 6.02369 22.0375 6.16117 22.0375 6.25282C22.0375 6.34448 22.0375 6.43613 22.0375 6.52778C21.8205 6.94023 21.7771 7.21519 21.7337 7.21519Z" fill="#44693D"/>
<path d="M17.1759 11.248C17.1325 11.248 17.0891 10.973 17.0456 10.5147C17.0456 10.4231 17.0456 10.3314 17.0456 10.2398C17.0456 10.1481 17.0022 10.0565 17.0456 9.9648C17.0891 9.87315 16.9154 9.73567 17.0456 9.64401C17.0891 9.50653 17.0456 9.41488 17.0456 9.2774C17.0456 9.13992 17.0891 9.00244 17.0456 8.86496C16.9154 8.72748 17.1759 8.58999 17.0456 8.45251C17.0022 8.31503 17.0022 8.13173 17.0456 7.99424C17.1325 7.85676 17.0456 7.67346 17.0456 7.49015C17.1759 7.30684 17.0891 7.16936 17.0456 6.98605C17.1759 6.80275 17.1759 6.61944 17.0456 6.43613C17.0456 6.25282 17.0891 6.06952 17.0456 5.88621C17.0456 5.7029 17.0022 5.51959 17.0456 5.29046C16.9588 5.10715 16.9588 4.87802 17.0456 4.69471C16.9588 4.5114 17.0022 4.28227 17.0456 4.05313C17.0891 3.824 16.9588 3.64069 17.0456 3.41156C17.0456 3.18242 17.0022 2.95329 17.0456 2.76998C17.0891 2.54085 17.1325 2.31171 17.0456 2.08258C17.0022 1.85344 17.0022 1.62431 17.0456 1.39517C17.0022 1.25769 16.9588 1.16604 16.9588 1.02856V0.982732C16.9588 0.982732 17.0022 0.982732 17.0022 0.936905C17.0022 0.936905 17.0022 0.936905 17.0022 0.891078C17.0022 0.891078 17.0022 0.891078 16.9588 0.845251C16.9588 0.845251 16.9588 0.845251 16.9154 0.845251C16.9154 0.845251 16.9154 0.845251 16.872 0.845251C16.8286 0.845251 16.8286 0.845251 16.7852 0.845251C16.5682 0.845251 16.3077 0.891078 16.0907 0.845251C15.8736 0.799425 15.6132 0.753598 15.3962 0.845251H15.3527C15.3527 0.845251 15.3093 0.845251 15.3093 0.799425C15.3093 0.799425 15.3093 0.799425 15.3093 0.845251C15.2659 0.845251 15.2659 0.845251 15.2659 0.845251C15.2659 0.891078 15.2659 0.891078 15.2659 0.936905C15.2659 1.07439 15.3093 1.16604 15.3093 1.30352C15.3093 1.53265 15.2659 1.76179 15.3093 1.99092C15.3093 2.22006 15.3527 2.44919 15.3093 2.67833C15.483 2.90746 15.2659 3.1366 15.3093 3.3199C15.2225 3.54904 15.3093 3.73234 15.3093 3.96148C15.3527 4.19061 15.2225 4.37392 15.3093 4.60306C15.3093 4.78636 15.3527 5.0155 15.3093 5.19881C15.3962 5.38211 15.2225 5.61125 15.3093 5.79455C15.3093 5.97786 15.3093 6.16117 15.3093 6.34448C15.1791 6.52778 15.2659 6.71109 15.3093 6.8944C15.3093 7.07771 15.3962 7.26101 15.3093 7.3985C15.3093 7.5818 15.2225 7.71928 15.3093 7.90259C15.3093 8.04007 15.1357 8.22338 15.3093 8.36086C15.3527 8.49834 15.1791 8.63582 15.3093 8.7733C15.3962 8.91078 15.3093 9.04826 15.3093 9.18574C15.3093 9.32322 15.3093 9.41488 15.3093 9.55236C15.2659 10.6064 15.1791 11.2021 15.1357 11.2021C15.0489 11.2021 15.0055 10.4689 14.9187 9.18574C14.9187 9.04826 14.8319 8.91078 14.9187 8.7733C14.9187 8.63582 14.8319 8.49834 14.9187 8.36086C14.7884 8.22338 14.8753 8.04007 14.9187 7.90259C14.9187 7.76511 14.9621 7.5818 14.9187 7.3985C14.8319 7.21519 14.9621 7.07771 14.9187 6.8944C15.0055 6.71109 14.9621 6.52778 14.9187 6.34448C15.0055 6.16117 14.9187 5.97786 14.9187 5.79455C15.0489 5.61125 14.9621 5.42794 14.9187 5.19881C14.8753 5.0155 14.9187 4.78636 14.9187 4.60306C14.9187 4.41975 14.8753 4.19061 14.9187 3.96148C14.8753 3.73234 14.8319 3.54904 14.9187 3.3199C14.8753 3.09077 14.9187 2.86163 14.9187 2.67833C14.8753 2.44919 14.9187 2.22006 14.9187 1.99092C14.8753 1.76179 15.0489 1.53265 14.9187 1.30352C14.9187 1.16604 14.9187 1.07439 14.9187 0.936905V0.661944C14.9187 0.57029 14.9187 0.432809 14.9187 0.341156C14.9187 0.249502 14.9187 0.112021 14.9187 0.0203675C15.0923 0.0203675 15.2225 0.0203675 15.3962 0.0203675C15.483 0.0203675 15.5698 0.0203675 15.6132 0.0203675H15.7434C15.9605 0.157848 16.2209 0.0661944 16.4379 0.0203675C16.655 -0.0254594 16.9154 0.0203675 17.1325 0.0203675H17.3061C17.3929 0.0203675 17.4797 0.0203675 17.5665 0.0203675C17.7402 0.0203675 17.9138 0.0203675 18.044 0.0203675C18.044 0.112021 18.044 0.249502 18.044 0.341156C18.044 0.432809 18.044 0.57029 18.044 0.661944V0.936905C18.044 1.07439 18.044 1.16604 18.044 1.30352C18.0874 1.53265 18.0006 1.76179 18.044 1.99092C18.0874 2.22006 18.0874 2.44919 18.044 2.67833C18.044 2.90746 17.9572 3.1366 18.044 3.3199C18.0874 3.54904 18.2176 3.73234 18.044 3.96148C18.0874 4.19061 17.9572 4.37392 18.044 4.60306C17.9138 4.78636 18.044 5.0155 18.044 5.19881C18.0006 5.38211 18.0006 5.61125 18.044 5.79455C18.0874 5.97786 18.0006 6.16117 18.044 6.34448C18.1308 6.52778 17.9572 6.71109 18.044 6.8944C18.044 7.07771 18.044 7.26101 18.044 7.3985C18.2176 7.5818 18.044 7.71928 18.044 7.90259C18.0006 8.04007 18.1308 8.22338 18.044 8.36086C18.1742 8.49834 18.044 8.63582 18.044 8.7733C18.0006 8.91078 18.0874 9.04826 18.044 9.18574C18.1308 9.32322 18.0006 9.41488 18.044 9.55236C18.0006 9.68984 18.044 9.78149 18.044 9.87315C18.044 9.9648 18.044 10.0565 18.044 10.1481C18.044 10.2398 18.044 10.3314 18.044 10.4231C17.2627 10.973 17.2193 11.248 17.1759 11.248Z" fill="#44693D"/>
<path d="M32.1515 11.2021C32.1081 11.2021 32.0647 10.973 32.0213 10.5605C32.0213 10.5147 32.0213 10.4231 32.0213 10.3314C32.0213 10.2398 31.9779 10.1481 32.0213 10.1023C32.0647 10.0106 31.8911 9.91897 32.0213 9.82732C32.0647 9.73567 32.0213 9.64401 32.0213 9.50653C32.0213 9.41488 32.0647 9.2774 32.0213 9.18574C31.8911 9.04826 32.1515 8.95661 32.0213 8.81913C31.9779 8.68165 31.9779 8.58999 32.0213 8.45251C32.1081 8.31503 32.0213 8.17755 32.0213 8.04007C32.0647 7.94842 32.1081 7.90259 32.0647 7.81094C32.0647 7.76511 32.0647 7.71928 32.0213 7.71928C32.0213 7.71928 32.0213 7.67346 31.9779 7.67346C31.9779 7.67346 31.9779 7.67346 31.9345 7.67346C32.0647 7.62763 32.0647 7.44432 31.9779 7.49015L31.9345 7.53598C31.8911 7.53598 31.8911 7.53598 31.8911 7.53598H31.8042C31.674 7.53598 31.5004 7.5818 31.3268 7.53598C31.1531 7.62763 31.0229 7.62763 30.8493 7.53598C30.6756 7.62763 30.502 7.5818 30.3718 7.53598C30.1982 7.49015 30.0245 7.62763 29.8509 7.53598C29.6773 7.53598 29.5036 7.5818 29.33 7.53598C29.1564 7.49015 28.9827 7.44432 28.8091 7.53598C28.6355 7.5818 28.4619 7.5818 28.2448 7.53598C28.0712 7.67346 27.8541 7.5818 27.6805 7.53598C27.5069 7.53598 27.2898 7.49015 27.1162 7.53598C26.9426 7.53598 26.7255 7.5818 26.5519 7.53598C26.3349 7.49015 26.1612 7.44432 25.9876 7.53598C25.814 7.62763 25.5969 7.49015 25.4233 7.53598C25.2497 7.44432 25.0326 7.5818 24.859 7.53598C24.6854 7.53598 24.4683 7.49015 24.2947 7.53598C24.1211 7.53598 23.9475 7.5818 23.7738 7.53598C23.6002 7.71928 23.4266 7.49015 23.2529 7.53598C23.0793 7.44432 22.9057 7.53598 22.732 7.53598C22.5584 7.5818 22.3848 7.44432 22.2546 7.53598C22.0809 7.53598 21.9507 7.5818 21.7771 7.53598C21.6034 7.62763 21.4732 7.44432 21.2996 7.53598H20.9957C20.9523 7.53598 20.9523 7.53598 20.9089 7.53598C20.9089 7.53598 20.9089 7.53598 20.8655 7.53598C20.8221 7.49015 20.8221 7.53598 20.8221 7.5818C20.8221 7.62763 20.8655 7.67346 20.8655 7.67346V7.76511C20.8655 7.81094 20.8655 7.85676 20.8655 7.85676C20.8655 7.94842 20.8655 7.99425 20.8221 8.0859C20.8221 8.22338 20.7353 8.36086 20.8221 8.49834C20.8221 8.63582 20.6485 8.7733 20.8221 8.86496C20.8655 9.00244 20.6919 9.09409 20.8221 9.23157C20.9089 9.36905 20.8221 9.46071 20.8221 9.55236C20.8221 9.64401 20.8221 9.78149 20.8221 9.87315C20.7787 10.7439 20.6919 11.248 20.6485 11.248C20.5617 11.248 20.5183 10.6064 20.4314 9.55236C20.4314 9.46071 20.3446 9.32323 20.4314 9.23157C20.4314 9.09409 20.3446 9.00244 20.4314 8.86496C20.3012 8.72748 20.4314 8.63582 20.4314 8.49834C20.4314 8.36086 20.4748 8.22338 20.4314 8.0859C20.388 7.99425 20.388 7.94842 20.4314 7.85676C20.4314 7.81094 20.4314 7.76511 20.4314 7.76511V7.62763C20.5183 7.3985 20.4748 7.21519 20.4314 6.8944H20.4748C20.6485 6.94023 20.7353 6.94023 20.8655 6.8944C20.9089 6.8944 20.9957 6.8944 21.0391 6.8944C21.0826 6.8944 21.1694 6.8944 21.2128 6.8944C21.343 7.03188 21.5166 6.94023 21.6903 6.8944C21.8639 6.84857 21.9941 6.8944 22.1677 6.8944C22.3414 6.8944 22.515 6.84857 22.6452 6.8944C22.8189 6.84857 22.9925 6.80275 23.1661 6.8944C23.3398 6.84857 23.5134 6.8944 23.687 6.8944C23.8606 6.84857 24.0343 6.8944 24.2079 6.8944C24.3815 6.84857 24.5552 7.03188 24.7722 6.8944C24.9458 6.8944 25.1629 6.8944 25.3365 6.8944C25.5101 6.8944 25.7272 6.94023 25.9008 6.8944C26.0744 7.03188 26.2915 6.94023 26.4651 6.8944C26.6821 6.84857 26.8558 6.8944 27.0294 6.8944C27.203 6.8944 27.4201 6.8944 27.5937 6.8944C27.7673 6.84857 27.9844 6.94023 28.158 6.8944C28.3316 6.84857 28.5487 6.94023 28.7223 6.8944C28.8959 6.84857 29.0696 6.84857 29.2432 6.8944C29.4168 6.8944 29.5905 7.03188 29.7641 6.8944C29.9377 6.84857 30.1113 6.71109 30.285 6.8944C30.4586 6.84857 30.6322 6.98605 30.7625 6.8944C30.9361 7.03188 31.0663 6.8944 31.2399 6.8944C31.4136 6.94023 31.5438 6.94023 31.7174 6.8944H31.7608C31.8042 6.8944 31.8477 6.8944 31.8477 6.8944C31.9345 6.8944 31.9779 6.8944 32.0213 6.8944C32.1515 6.8944 32.2383 6.94023 32.3685 6.8944C32.4119 6.8944 32.412 6.8944 32.4554 6.8944C32.4554 6.98605 32.4554 7.12353 32.412 7.26101C32.412 7.3985 32.3685 7.49015 32.412 7.5818C32.412 7.62763 32.412 7.62763 32.412 7.67346V7.71928C32.412 7.76511 32.412 7.81094 32.412 7.81094C32.412 7.90259 32.412 7.94842 32.412 8.04007C32.5856 8.17755 32.412 8.31503 32.412 8.45251C32.3685 8.58999 32.4988 8.72748 32.412 8.81913C32.5422 8.95661 32.412 9.04826 32.412 9.18574C32.3685 9.32323 32.4554 9.41488 32.412 9.50653C32.4988 9.59819 32.3685 9.73567 32.412 9.82732C32.3685 9.91897 32.412 10.0106 32.412 10.1023C32.412 10.1939 32.412 10.2856 32.412 10.3314C32.412 10.4231 32.412 10.4689 32.412 10.5605C32.2383 11.0188 32.1949 11.2021 32.1515 11.2021Z" fill="#44693D"/>
<path d="M33.801 18.4428C33.8444 18.4428 33.8878 18.8552 33.9312 19.6343C33.9312 19.7718 33.9312 19.9092 33.9312 20.0467C33.9312 20.1842 33.9746 20.3675 33.9312 20.505C33.8878 20.6883 34.0614 20.8258 33.9312 21.0091C33.8878 21.1924 33.9312 21.3757 33.9312 21.6048C33.9312 21.7881 33.8878 22.0173 33.9312 22.2464C34.0614 22.4755 33.801 22.7047 33.9312 22.9338C33.9746 23.1629 33.9746 23.3921 33.9312 23.667C33.8444 23.8962 33.9312 24.1711 33.9312 24.4461C33.8444 24.7211 33.8878 24.996 33.9312 25.271C33.801 25.5459 33.801 25.8209 33.9312 26.0959C33.9312 26.2333 33.9312 26.3708 33.9312 26.5541C33.9312 26.6458 33.9312 26.6916 33.9312 26.7833C33.9312 26.8291 33.9312 26.8749 33.9312 26.9207C33.9312 26.9666 33.9312 27.0582 33.9312 27.1041C33.9312 27.2415 33.9312 27.4248 33.9312 27.5623C33.7576 27.5623 33.584 27.5623 33.4103 27.5623H33.1499C33.1065 27.5623 33.0631 27.5623 32.9762 27.5623C32.6724 27.654 32.3685 27.654 32.0647 27.5623C31.7608 27.654 31.457 27.6081 31.1097 27.5623C30.8059 27.5165 30.4586 27.654 30.1548 27.5623C29.8075 27.5623 29.5036 27.6081 29.1564 27.5623C28.8091 27.5165 28.4619 27.4707 28.158 27.5623C27.8107 27.6081 27.4635 27.6081 27.1162 27.5623C26.9426 27.6081 26.769 27.654 26.5953 27.654C26.4217 27.654 26.2481 27.6081 26.031 27.5623C25.9442 27.5623 25.8574 27.5623 25.7272 27.5623C25.6404 27.5623 25.5535 27.5165 25.4233 27.5165C25.3799 27.5165 25.3365 27.5165 25.2931 27.4707C25.2497 27.4707 25.2063 27.4248 25.1629 27.4248C25.0761 27.379 24.9892 27.379 24.859 27.379C24.7722 27.3332 24.6854 27.2874 24.5986 27.2874C24.5552 27.2874 24.5118 27.2415 24.4684 27.2415L24.3381 27.1957C24.2513 27.1499 24.1645 27.1041 24.0777 27.0582C23.9909 27.0124 23.9041 26.9207 23.8172 26.8749C23.7304 26.8291 23.6436 26.7374 23.6002 26.6916L23.47 26.6C23.4266 26.5541 23.3832 26.5541 23.3398 26.5083C23.2529 26.4166 23.2095 26.3708 23.1227 26.2792L23.2963 26.1875L23.2529 26.1417C23.2095 26.0959 23.1661 26.0959 23.1227 26.05C22.9491 25.9126 22.8623 25.7292 22.732 25.5918C22.6886 25.5459 22.6886 25.5001 22.6452 25.4543L22.6018 25.271C22.5584 25.1793 22.515 25.0877 22.4716 24.996C22.4716 24.9044 22.4282 24.8127 22.3848 24.7211C22.3848 24.6752 22.3414 24.6294 22.3414 24.5836C22.3414 24.5377 22.298 24.4919 22.298 24.4461L22.2546 24.3086C22.2546 24.2628 22.2546 24.2628 22.2112 24.217L22.1677 24.1253C22.1243 24.0337 22.1243 23.942 22.0809 23.8503C22.0375 23.7587 22.0375 23.667 22.0375 23.5754C22.0375 23.4837 22.0375 23.3921 21.9941 23.3004C21.9941 23.2088 21.9941 23.1171 21.9941 23.0255C21.9941 22.9796 21.9941 22.9338 21.9941 22.888C21.9941 22.8422 21.9941 22.7963 21.9941 22.7505C21.9941 22.6588 21.9941 22.5672 21.9941 22.4755C21.9941 22.3839 21.9941 22.2922 22.0375 22.2006V22.0631C22.0375 22.0173 22.0375 21.9714 22.0809 21.9256C22.1243 21.834 22.1243 21.7423 22.1677 21.6507C22.1677 21.6048 22.1677 21.559 22.1677 21.5132C22.1677 21.4673 22.1677 21.4215 22.2112 21.3757C22.2546 21.284 22.298 21.1924 22.3414 21.1007C22.3848 21.0091 22.4282 20.9633 22.515 20.8716C22.5584 20.7799 22.6018 20.6883 22.6452 20.6425C22.7755 20.505 22.8623 20.3217 22.9491 20.1842C22.9925 20.0925 23.0359 20.0467 23.0793 19.9551C23.1227 19.8634 23.2095 19.8176 23.2529 19.7718C23.3398 19.6343 23.5134 19.5426 23.6436 19.4051C23.687 19.3593 23.7738 19.3135 23.8606 19.2677C23.9475 19.2218 23.9909 19.176 24.0343 19.0844C24.1211 19.0385 24.1645 18.9927 24.2513 18.9469C24.3381 18.901 24.3815 18.8552 24.4684 18.8094C24.5552 18.7636 24.5986 18.7177 24.6854 18.7177C24.7722 18.6719 24.8156 18.6719 24.9024 18.6261C24.9892 18.5803 25.0326 18.5344 25.1195 18.5344C25.1629 18.5344 25.2063 18.4886 25.2497 18.4886C25.2931 18.4886 25.3365 18.4886 25.3799 18.4886C25.5535 18.4886 25.6838 18.4428 25.8574 18.3969C25.9876 18.3511 26.1613 18.3511 26.2915 18.3511C26.4217 18.3511 26.5953 18.3511 26.7255 18.3511C26.986 18.4886 27.2464 18.3511 27.5069 18.3511C27.7673 18.3511 28.0278 18.2595 28.2882 18.3511C28.5487 18.3511 28.7657 18.4428 29.0262 18.3511C29.2432 18.3511 29.5036 18.5344 29.7207 18.3511C29.9377 18.3053 30.1548 18.4886 30.3718 18.3511C30.5888 18.2595 30.7625 18.3511 30.9795 18.3511C31.1531 18.3511 31.3702 18.3511 31.5438 18.3511C32.8894 18.3053 33.801 18.3511 33.801 18.4428C33.801 18.5344 32.7158 18.6261 30.8059 18.6719C30.6322 18.6719 30.4152 18.7636 30.1982 18.6719C29.9811 18.6719 29.7641 18.7636 29.547 18.6719C29.33 18.8094 29.113 18.6719 28.8525 18.6719C28.6355 18.6719 28.375 18.6261 28.1146 18.6719C27.8541 18.7636 27.5937 18.6261 27.3333 18.6719C27.0728 18.5803 26.8124 18.6261 26.5519 18.6719C26.4217 18.6261 26.2915 18.6261 26.1613 18.6719C26.031 18.6719 25.9008 18.7177 25.7706 18.7636C25.6404 18.7177 25.5101 18.7636 25.3799 18.8094C25.3365 18.8094 25.3365 18.8552 25.2931 18.8552C25.2497 18.8552 25.2497 18.901 25.2063 18.901C25.1629 18.9469 25.0761 18.9927 25.0326 18.9927C24.9892 19.0385 24.9024 19.0844 24.859 19.0844C24.8156 19.1302 24.7288 19.1302 24.6854 19.176C24.5986 19.3135 24.5552 19.3135 24.4684 19.3593C24.4249 19.4051 24.3381 19.451 24.2947 19.4968C24.0343 19.6343 23.8606 19.8634 23.6436 20.0925C23.6002 20.1384 23.5568 20.23 23.5134 20.2758C23.47 20.3217 23.4266 20.4133 23.3832 20.4592C23.2963 20.5966 23.2095 20.6883 23.1227 20.8258C23.0793 20.9174 23.0793 20.9633 23.0359 21.0549C22.9925 21.1466 22.9925 21.1924 22.9491 21.284C22.9057 21.3757 22.9057 21.4215 22.8623 21.5132L22.8189 21.6048C22.8189 21.6507 22.8189 21.6965 22.7755 21.7423C22.7755 21.834 22.732 21.8798 22.732 21.9714C22.732 22.0173 22.732 22.0631 22.732 22.1089V22.2464C22.732 22.3381 22.6886 22.3839 22.6886 22.4755C22.6886 22.5672 22.6886 22.6588 22.6886 22.7047C22.6886 22.7505 22.6886 22.7963 22.6886 22.8422C22.6886 22.888 22.6886 22.9338 22.6886 22.9796C22.6886 23.0713 22.6886 23.1629 22.6886 23.2088C22.6886 23.3004 22.6886 23.3921 22.732 23.4379C22.732 23.5296 22.7755 23.6212 22.8189 23.667C22.8623 23.7587 22.8623 23.8503 22.8623 23.8962V23.9878L22.9491 24.2628C22.9491 24.3086 22.9925 24.3544 22.9925 24.4003C23.0359 24.4919 23.0793 24.5377 23.1227 24.6294C23.1661 24.7211 23.2095 24.7669 23.2529 24.8585L23.2963 24.9502C23.2963 24.996 23.3398 25.0418 23.3832 25.0418C23.47 25.1793 23.5568 25.3168 23.687 25.4543C23.687 25.5001 23.7304 25.5459 23.7304 25.5918L23.8172 25.6834C23.8606 25.7292 23.9475 25.8209 23.9909 25.8667C24.0343 25.9126 24.0777 25.9126 24.0777 25.9584L24.2079 26.0042C24.2947 26.05 24.3381 26.0959 24.4249 26.1417C24.5118 26.1875 24.5552 26.2333 24.642 26.2792C24.7288 26.325 24.7722 26.3708 24.859 26.3708L24.9892 26.4166C25.0327 26.4166 25.0761 26.4625 25.1195 26.4625C25.2063 26.5083 25.2931 26.5083 25.3365 26.5541C25.4233 26.5541 25.5101 26.6 25.597 26.6L25.7272 26.6458C25.7706 26.6458 25.814 26.6458 25.8574 26.6458C25.9442 26.6458 26.031 26.6916 26.1178 26.6916C26.2047 26.6916 26.2915 26.6916 26.3783 26.6916C26.5519 26.6916 26.7255 26.6916 26.8992 26.6916C27.0728 26.6916 27.2464 26.6916 27.4201 26.6916C27.7673 26.6458 28.1146 26.7374 28.4619 26.6916C28.8091 26.6458 29.1564 26.6458 29.4602 26.6916C29.8075 26.6916 30.1113 26.8291 30.4586 26.6916C30.8059 26.6458 31.1097 26.5083 31.4136 26.6916C31.7174 26.6458 32.0213 26.7833 32.3685 26.6916C32.6724 26.8291 32.9763 26.6916 33.2801 26.6916C33.3235 26.6916 33.3669 26.6916 33.4537 26.6916H33.4971C33.5406 26.6916 33.584 26.6916 33.584 26.6916C33.584 26.6458 33.584 26.6458 33.5406 26.6V26.5083C33.5406 26.4166 33.5406 26.3708 33.5406 26.2792C33.5406 26.1417 33.584 26.0042 33.5406 25.8209C33.4537 25.5459 33.6274 25.271 33.5406 24.996C33.5406 24.7211 33.5406 24.4461 33.5406 24.1711C33.3669 23.8962 33.5406 23.667 33.5406 23.3921C33.584 23.1629 33.4537 22.888 33.5406 22.6588C33.4103 22.4297 33.5406 22.2006 33.5406 21.9714C33.584 21.7423 33.4971 21.559 33.5406 21.3299C33.4537 21.1466 33.584 20.9174 33.5406 20.7341C33.584 20.5508 33.5406 20.3675 33.5406 20.23C33.5406 20.0467 33.5406 19.9092 33.5406 19.7718C33.5406 19.6343 33.5406 19.4968 33.5406 19.3593C33.6708 18.8552 33.7142 18.4428 33.801 18.4428Z" fill="#44693D"/>
<path d="M26.5085 21.0091C26.5085 20.9633 26.5519 20.9633 26.5953 20.9633C26.6387 20.9633 26.6821 20.9633 26.7255 20.9174C26.769 20.9174 26.8124 20.9174 26.8992 20.9174C26.9426 20.9174 26.986 20.9174 27.0294 20.9174C27.0728 20.9174 27.0728 20.9174 27.1162 20.9174C27.1596 20.9174 27.1596 20.9174 27.203 20.9633C27.2464 21.0549 27.3333 20.8716 27.3767 21.0091C27.4201 21.0549 27.4635 21.0549 27.5503 21.1007C27.6371 21.1007 27.6371 21.1924 27.7239 21.1924C27.7673 21.1466 27.8107 21.2382 27.8107 21.284C27.8107 21.3299 27.8107 21.3757 27.8976 21.3299C27.9844 21.3757 28.0278 21.4215 28.0712 21.5132C28.0712 21.559 28.0712 21.6048 28.1146 21.6507C28.158 21.6965 28.2014 21.6965 28.2448 21.7423C28.2014 21.8798 28.2882 21.9256 28.375 21.9714C28.2882 22.1089 28.3316 22.2006 28.5053 22.2464C28.5053 22.2922 28.5053 22.3381 28.5487 22.3839C28.5487 22.4297 28.5487 22.4297 28.5487 22.4755C28.5487 22.5214 28.5487 22.5214 28.5921 22.5672C28.5921 22.613 28.6355 22.6588 28.6355 22.7047C28.6355 22.7505 28.6355 22.7963 28.6355 22.888C28.6789 22.9338 28.7223 22.9796 28.7223 23.0713C28.7223 23.1171 28.7223 23.1171 28.7223 23.1629C28.7223 23.2088 28.6789 23.2088 28.6789 23.2546C28.7657 23.3921 28.6789 23.4837 28.6355 23.6212C28.5921 23.667 28.5921 23.7129 28.5921 23.8045C28.5921 23.8503 28.5921 23.942 28.5053 23.9878C28.4619 24.0337 28.4619 24.0795 28.4184 24.1711C28.375 24.217 28.375 24.2628 28.3316 24.3086C28.2882 24.3086 28.2882 24.3544 28.2448 24.3544C28.2014 24.3544 28.2014 24.4003 28.158 24.4003C27.9844 24.3086 27.941 24.3544 27.941 24.4461C27.8976 24.4919 27.8541 24.5377 27.8107 24.5836C27.7673 24.6294 27.7239 24.6752 27.6371 24.6752C27.5937 24.8585 27.4201 24.8585 27.2898 24.8585C27.2464 24.9044 27.1596 24.9044 27.1162 24.9044C27.0294 24.9044 26.986 24.9044 26.9426 24.9502C26.8558 24.9502 26.8124 24.996 26.7255 24.996C26.6387 24.996 26.5953 24.996 26.5085 24.996C26.4217 24.996 26.3783 24.9502 26.2915 24.9502C26.2481 24.9502 26.1613 24.9502 26.0744 24.9502C25.9876 24.996 25.9442 24.9502 25.8574 24.9044C25.814 24.8585 25.7272 24.8127 25.6838 24.8127C25.6404 24.7211 25.597 24.7211 25.5101 24.7211C25.4233 24.7211 25.3799 24.6752 25.3365 24.6294C25.2931 24.5836 25.2497 24.5377 25.2063 24.4919C25.1629 24.4461 25.1195 24.4003 25.0326 24.3544C24.9892 24.3544 24.9892 24.3086 24.9458 24.3086C24.9024 24.3086 24.9024 24.2628 24.859 24.2628C24.859 24.217 24.8156 24.217 24.8156 24.1711C24.8156 24.1253 24.7722 24.1253 24.7722 24.0795C24.6854 24.0795 24.642 24.0337 24.642 23.942C24.642 23.8503 24.642 23.8045 24.5986 23.7587C24.5986 23.667 24.5552 23.6212 24.5552 23.5754C24.5118 23.5296 24.5118 23.4837 24.4684 23.3921C24.4249 23.3463 24.4249 23.2546 24.4249 23.2088C24.4249 23.1629 24.4249 23.0713 24.3815 23.0255C24.3815 22.9796 24.3815 22.9796 24.3815 22.9338C24.3815 22.888 24.3815 22.888 24.3815 22.8422C24.3815 22.7963 24.3815 22.7505 24.3815 22.6588C24.3381 22.613 24.3815 22.5672 24.3815 22.4755C24.4249 22.4297 24.4249 22.3839 24.4249 22.3381V22.1548C24.4249 22.1089 24.4684 22.0631 24.4684 22.0173C24.5552 21.9714 24.5552 21.9256 24.5552 21.8798C24.5552 21.834 24.5552 21.7881 24.5552 21.7423C24.5986 21.6507 24.5986 21.5132 24.6854 21.5132C24.7288 21.4673 24.7722 21.4673 24.7722 21.4215C24.8156 21.3757 24.8156 21.3757 24.8156 21.3299C24.8156 21.284 24.9024 21.284 24.9458 21.284C24.9892 21.284 25.0327 21.2382 24.9892 21.1466C24.9892 21.1007 25.0761 21.1007 25.0761 21.1007C25.1195 21.1007 25.1629 21.1007 25.1629 21.0091C25.1629 20.8716 25.2931 20.9174 25.3365 20.9174C25.3799 20.8716 25.4667 20.8716 25.5101 20.8258C25.7706 20.7341 25.9442 20.7341 26.1178 20.7341C26.4651 20.9174 26.5085 20.9633 26.5085 21.0091C26.5085 21.0091 26.5085 21.0549 26.4651 21.0549C26.4217 21.1007 26.3783 21.1007 26.2915 21.1466C26.1613 21.1924 25.9442 21.284 25.7706 21.4673C25.7272 21.5132 25.7272 21.6048 25.6404 21.559C25.6404 21.559 25.597 21.6048 25.597 21.6507C25.597 21.6965 25.5535 21.6965 25.5101 21.6965C25.5101 21.7423 25.5101 21.7881 25.4667 21.7881C25.4233 21.7881 25.4233 21.7881 25.3799 21.834C25.3799 21.8798 25.3365 21.8798 25.3365 21.9256C25.3365 21.9714 25.2931 21.9714 25.2931 22.0173C25.3365 22.1089 25.2063 22.1089 25.2063 22.2006C25.1195 22.2464 25.1195 22.2922 25.1629 22.3839C25.1195 22.3839 25.1195 22.4297 25.1195 22.4755V22.5672C25.0761 22.613 25.0326 22.613 25.0326 22.6588C25.0326 22.7047 25.0761 22.7505 25.0761 22.7963C25.0761 22.8422 25.0761 22.888 25.0761 22.888V22.9796C25.0761 23.0713 25.1195 23.1171 25.1195 23.2088C25.1629 23.2546 25.2063 23.2546 25.2063 23.3004C25.2063 23.3463 25.2497 23.3921 25.2063 23.4379C25.2497 23.4837 25.2497 23.4837 25.2931 23.5296C25.2931 23.5754 25.3365 23.6212 25.3365 23.6212L25.5101 23.8045C25.5535 23.8045 25.5535 23.8962 25.597 23.8962C25.6404 23.942 25.6404 23.9878 25.7272 23.942C25.814 23.9878 25.8574 24.0337 25.9442 24.0795C25.9876 24.0795 26.031 24.1253 26.0744 24.1253C26.1178 24.1253 26.1612 24.1253 26.2047 24.1253C26.2481 24.1711 26.2915 24.217 26.3349 24.217C26.3783 24.217 26.4217 24.1711 26.4651 24.1711C26.5085 24.1711 26.5519 24.1253 26.5953 24.1253C26.6387 24.1253 26.6821 24.1253 26.7255 24.1253C26.769 24.1253 26.8124 24.0795 26.8558 24.0795C26.8992 24.0795 26.9426 24.0337 26.986 24.0337C27.0294 23.9878 27.1596 23.9878 27.203 23.8962C27.2464 23.8503 27.2464 23.8503 27.2898 23.8045C27.3333 23.8045 27.3767 23.7587 27.3767 23.7129C27.3767 23.7129 27.3767 23.667 27.4201 23.667C27.4201 23.667 27.4201 23.6212 27.4635 23.6212L27.5069 23.5754C27.5069 23.5754 27.5503 23.5754 27.5503 23.5296C27.5937 23.4837 27.6371 23.4837 27.6371 23.4379C27.6805 23.3921 27.6805 23.3921 27.6805 23.3004C27.6805 23.2546 27.6805 23.2088 27.6805 23.1629C27.6805 23.1171 27.6805 23.0713 27.8107 23.0713C27.8107 23.0255 27.8107 22.9796 27.8541 22.9796C27.8976 22.9338 27.8976 22.888 27.8541 22.8422C27.941 23.0255 27.941 22.9796 27.941 22.9796V22.9338C27.941 22.888 27.8976 22.8422 27.8976 22.7963C27.8976 22.7505 27.941 22.7047 27.941 22.6588C27.941 22.613 27.941 22.5672 27.8976 22.5672L27.8541 22.5214V22.4755C27.8541 22.4297 27.8541 22.3839 27.8541 22.3839C27.8107 22.3839 27.8107 22.3381 27.8107 22.2922C27.8107 22.2464 27.8107 22.2006 27.7673 22.2006C27.7673 22.1089 27.6805 22.1089 27.6805 22.0173C27.5937 22.0173 27.5937 22.0173 27.5937 21.9714C27.5937 21.9256 27.5937 21.8798 27.5937 21.834C27.5937 21.7881 27.5503 21.7881 27.5069 21.7881C27.4635 21.7881 27.4635 21.7423 27.4635 21.6965C27.4201 21.7423 27.3767 21.6965 27.3767 21.6965C27.3767 21.6507 27.3767 21.6048 27.3333 21.6048C27.2898 21.559 27.203 21.6048 27.203 21.5132C27.1162 21.559 27.1596 21.4215 27.0728 21.4215C27.0728 21.3299 26.986 21.3757 26.9426 21.3299C26.8992 21.3299 26.8992 21.3299 26.8992 21.3299L26.8558 21.284C26.8124 21.284 26.769 21.2382 26.769 21.2382C26.7255 21.2382 26.6821 21.1924 26.6387 21.1924C26.5953 21.1924 26.5519 21.1466 26.5519 21.1466C26.5519 21.0549 26.5085 21.0091 26.5085 21.0091Z" fill="#44693D"/>
<path d="M5.36898 13.5393C5.36898 13.5851 5.32558 13.631 5.28217 13.6768C5.28217 13.6768 5.28217 13.6768 5.23876 13.6768C5.23876 13.6768 5.23876 13.7226 5.19535 13.6768C5.19535 13.631 5.19535 13.8143 5.15195 13.6768C5.15195 13.631 5.10854 13.6768 5.10854 13.6768C5.10854 13.6768 5.06513 13.631 5.06513 13.6768C5.06513 13.8143 5.02172 13.5393 5.02172 13.6768C5.02172 13.7226 4.97831 13.7226 4.97831 13.6768C4.97831 13.5851 4.93491 13.6768 4.93491 13.6768C4.93491 13.5393 4.8915 13.631 4.8915 13.6768C4.8915 13.5393 4.84809 13.5393 4.84809 13.6768C4.84809 13.6768 4.80468 13.631 4.80468 13.6768C4.80468 13.6768 4.76128 13.7226 4.76128 13.6768C4.76128 13.7684 4.71787 13.7684 4.71787 13.6768C4.71787 13.7684 4.67446 13.7226 4.67446 13.6768C4.67446 13.631 4.63105 13.7684 4.63105 13.6768C4.63105 13.6768 4.58765 13.7226 4.58765 13.6768C4.54424 13.631 4.54424 13.5851 4.50083 13.6768C4.45742 13.7226 4.45742 13.7226 4.41402 13.6768C4.37061 13.8143 4.37061 13.7226 4.3272 13.6768C4.28379 13.6768 4.28379 13.631 4.24038 13.6768C4.19698 13.6768 4.19698 13.7226 4.15357 13.6768C4.11016 13.631 4.11016 13.5851 4.06675 13.6768C4.02335 13.7684 4.02335 13.631 3.97994 13.6768C3.93653 13.5851 3.93653 13.7226 3.89312 13.6768C3.84972 13.6768 3.84972 13.631 3.80631 13.6768C3.7629 13.6768 3.7629 13.7226 3.71949 13.6768C3.67609 13.8601 3.67609 13.631 3.67609 13.6768C3.67609 13.5851 3.63268 13.6768 3.63268 13.6768C3.63268 13.7226 3.58927 13.5851 3.58927 13.6768C3.58927 13.6768 3.54586 13.7226 3.54586 13.6768C3.54586 13.7684 3.50245 13.5851 3.50245 13.6768H3.45905C3.45905 13.5393 3.41564 13.6768 3.41564 13.6768C3.41564 13.6768 3.37223 13.7684 3.37223 13.6768C3.37223 13.6768 3.32882 13.5851 3.32882 13.6768C3.32882 13.6768 3.28542 13.4935 3.28542 13.6768C3.28542 13.7226 3.24201 13.5393 3.24201 13.6768C3.24201 13.7684 3.1986 13.6768 3.1986 13.6768H3.15519C3.06838 13.631 2.98156 13.5393 2.98156 13.4935C2.98156 13.4018 3.06838 13.356 3.1986 13.2643C3.1986 13.2643 3.24201 13.1727 3.24201 13.2643C3.24201 13.2643 3.28542 13.1727 3.28542 13.2643C3.28542 13.1269 3.32882 13.2185 3.32882 13.2643C3.32882 13.2643 3.37223 13.3102 3.37223 13.2643C3.37223 13.1727 3.41564 13.3102 3.41564 13.2643C3.41564 13.356 3.45905 13.3102 3.45905 13.2643C3.45905 13.356 3.50245 13.2643 3.50245 13.2643C3.50245 13.4018 3.54586 13.3102 3.54586 13.2643C3.54586 13.2185 3.58927 13.2643 3.58927 13.2643C3.58927 13.2643 3.63268 13.2185 3.63268 13.2643C3.63268 13.2185 3.67609 13.1727 3.67609 13.2643C3.67609 13.2185 3.71949 13.2643 3.71949 13.2643C3.7629 13.2185 3.7629 13.2643 3.80631 13.2643C3.84972 13.2185 3.84972 13.4018 3.89312 13.2643C3.93653 13.2643 3.93653 13.2643 3.97994 13.2643C4.02335 13.2643 4.02335 13.3102 4.06675 13.2643C4.11016 13.4018 4.11016 13.3102 4.15357 13.2643C4.19698 13.2185 4.19698 13.2643 4.24038 13.2643C4.28379 13.2643 4.28379 13.2643 4.3272 13.2643C4.37061 13.2185 4.37061 13.3102 4.41402 13.2643C4.45742 13.2185 4.45742 13.3102 4.50083 13.2643C4.54424 13.2185 4.54424 13.2185 4.58765 13.2643C4.58765 13.2643 4.63105 13.4018 4.63105 13.2643C4.63105 13.2185 4.67446 13.081 4.67446 13.2643C4.67446 13.2185 4.71787 13.356 4.71787 13.2643C4.71787 13.4018 4.76128 13.2643 4.76128 13.2643C4.76128 13.3102 4.80468 13.3102 4.80468 13.2643C4.80468 13.2185 4.84809 13.3102 4.84809 13.2643C4.84809 13.1727 4.8915 13.356 4.8915 13.2643H4.93491C4.93491 13.081 4.97831 13.2643 4.97831 13.2643C4.97831 13.3102 5.02172 13.1727 5.02172 13.2643C5.02172 13.1269 5.06513 13.2643 5.06513 13.2643C5.06513 13.3102 5.10854 13.2185 5.10854 13.2643C5.10854 13.1727 5.15195 13.3102 5.15195 13.2643C5.15195 13.3102 5.19535 13.2643 5.19535 13.2643C5.19535 13.2643 5.19535 13.2643 5.23876 13.2643C5.23876 13.2643 5.23876 13.2643 5.28217 13.2643C5.36898 13.4476 5.36898 13.4935 5.36898 13.5393Z" fill="#44693D"/>
<path d="M14.0505 13.5393C14.0505 13.5851 14.0071 13.631 13.9637 13.6768C13.9637 13.6768 13.9637 13.6768 13.9203 13.6768C13.9203 13.6768 13.9203 13.7226 13.8769 13.6768C13.8769 13.631 13.8769 13.8143 13.8335 13.6768C13.8335 13.631 13.7901 13.6768 13.7901 13.6768C13.7901 13.6768 13.7467 13.631 13.7467 13.6768C13.7467 13.8143 13.7033 13.5393 13.7033 13.6768C13.7033 13.7226 13.6598 13.7226 13.6598 13.6768C13.6598 13.5851 13.6164 13.6768 13.6164 13.6768C13.6164 13.5393 13.573 13.631 13.573 13.6768C13.573 13.5393 13.5296 13.5393 13.5296 13.6768C13.5296 13.6768 13.4862 13.631 13.4862 13.6768C13.4862 13.6768 13.4428 13.7226 13.4428 13.6768C13.4428 13.7684 13.3994 13.7684 13.3994 13.6768C13.3994 13.7684 13.356 13.7226 13.356 13.6768C13.356 13.631 13.3126 13.7684 13.3126 13.6768C13.3126 13.6768 13.2692 13.7226 13.2692 13.6768C13.2692 13.631 13.2258 13.5851 13.1824 13.6768C13.139 13.7226 13.139 13.7226 13.0955 13.6768C13.0521 13.8143 13.0521 13.7226 13.0087 13.6768C12.9653 13.6768 12.9653 13.631 12.9219 13.6768C12.8785 13.6768 12.8785 13.7226 12.8351 13.6768C12.7917 13.631 12.7917 13.5851 12.7483 13.6768C12.7049 13.7684 12.7049 13.631 12.6615 13.6768C12.6181 13.5851 12.6181 13.7226 12.5747 13.6768C12.5312 13.6768 12.5312 13.631 12.4878 13.6768C12.4444 13.6768 12.4444 13.7226 12.401 13.6768C12.3576 13.8601 12.3576 13.631 12.3576 13.6768C12.3576 13.5851 12.3142 13.6768 12.3142 13.6768C12.3142 13.7226 12.2708 13.5851 12.2708 13.6768C12.2708 13.6768 12.2274 13.7226 12.2274 13.6768C12.2274 13.7684 12.184 13.5851 12.184 13.6768H12.1406C12.1406 13.5393 12.0972 13.6768 12.0972 13.6768C12.0972 13.6768 12.0538 13.7684 12.0538 13.6768C12.0538 13.6768 12.0104 13.5851 12.0104 13.6768C12.0104 13.6768 11.9669 13.4935 11.9669 13.6768C11.9669 13.7226 11.9235 13.5393 11.9235 13.6768C11.9235 13.7684 11.8801 13.6768 11.8801 13.6768H11.8367C11.7499 13.631 11.6631 13.5393 11.6631 13.4935C11.6631 13.4018 11.7499 13.356 11.8801 13.2643C11.8801 13.2643 11.9235 13.1727 11.9235 13.2643C11.9235 13.2643 11.9669 13.1727 11.9669 13.2643C11.9669 13.1269 12.0104 13.2185 12.0104 13.2643C12.0104 13.2643 12.0538 13.3102 12.0538 13.2643C12.0538 13.1727 12.0972 13.3102 12.0972 13.2643C12.0972 13.356 12.1406 13.3102 12.1406 13.2643C12.1406 13.356 12.184 13.2643 12.184 13.2643C12.184 13.4018 12.2274 13.3102 12.2274 13.2643C12.2274 13.2185 12.2708 13.2643 12.2708 13.2643C12.2708 13.2643 12.3142 13.2185 12.3142 13.2643C12.3142 13.2185 12.3576 13.1727 12.3576 13.2643C12.3576 13.2185 12.401 13.2643 12.401 13.2643C12.4444 13.2185 12.4444 13.2643 12.4878 13.2643C12.5312 13.2185 12.5312 13.4018 12.5747 13.2643C12.6181 13.2643 12.6181 13.2643 12.6615 13.2643C12.7049 13.2643 12.7049 13.3102 12.7483 13.2643C12.7917 13.4018 12.7917 13.3102 12.8351 13.2643C12.8785 13.2185 12.8785 13.2643 12.9219 13.2643C12.9653 13.2643 12.9653 13.2643 13.0087 13.2643C13.0521 13.2185 13.0521 13.3102 13.0955 13.2643C13.139 13.2185 13.139 13.3102 13.1824 13.2643C13.2258 13.2185 13.2258 13.2185 13.2692 13.2643C13.3126 13.2643 13.3126 13.4018 13.3126 13.2643C13.3126 13.2185 13.356 13.081 13.356 13.2643C13.356 13.2185 13.3994 13.356 13.3994 13.2643C13.3994 13.4018 13.4428 13.2643 13.4428 13.2643C13.4428 13.3102 13.4862 13.3102 13.4862 13.2643C13.4862 13.2185 13.5296 13.3102 13.5296 13.2643C13.5296 13.1727 13.573 13.356 13.573 13.2643H13.6164C13.6164 13.081 13.6598 13.2643 13.6598 13.2643C13.6598 13.3102 13.7033 13.1727 13.7033 13.2643C13.7033 13.1269 13.7467 13.2643 13.7467 13.2643C13.7467 13.3102 13.7901 13.2185 13.7901 13.2643C13.7901 13.1727 13.8335 13.3102 13.8335 13.2643C13.8335 13.3102 13.8769 13.2643 13.8769 13.2643C13.8769 13.2643 13.8769 13.2643 13.9203 13.2643C13.9203 13.2643 13.9203 13.2643 13.9637 13.2643C14.0071 13.4476 14.0505 13.4935 14.0505 13.5393Z" fill="#44693D"/>
<path d="M22.6886 13.5393C22.6886 13.5851 22.6452 13.631 22.6018 13.6768C22.6018 13.6768 22.6018 13.6768 22.5584 13.6768C22.5584 13.6768 22.5584 13.7226 22.515 13.6768C22.515 13.631 22.515 13.8143 22.4716 13.6768C22.4716 13.631 22.4282 13.6768 22.4282 13.6768C22.4282 13.6768 22.3848 13.631 22.3848 13.6768C22.3848 13.8143 22.3414 13.5393 22.3414 13.6768C22.3414 13.7226 22.298 13.7226 22.298 13.6768C22.298 13.5851 22.2546 13.6768 22.2546 13.6768C22.2546 13.5393 22.2112 13.631 22.2112 13.6768C22.2112 13.5393 22.1677 13.5393 22.1677 13.6768C22.1677 13.6768 22.1243 13.631 22.1243 13.6768C22.1243 13.6768 22.0809 13.7226 22.0809 13.6768C22.0809 13.7684 22.0375 13.7684 22.0375 13.6768C22.0375 13.7684 21.9941 13.7226 21.9941 13.6768C21.9941 13.631 21.9507 13.7684 21.9507 13.6768C21.9507 13.6768 21.9073 13.7226 21.9073 13.6768C21.8639 13.631 21.8639 13.5851 21.8205 13.6768C21.7771 13.7226 21.7771 13.7226 21.7337 13.6768C21.6903 13.8143 21.6903 13.7226 21.6469 13.6768C21.6034 13.6768 21.6034 13.631 21.56 13.6768C21.5166 13.6768 21.5166 13.7226 21.4732 13.6768C21.4298 13.631 21.4298 13.5851 21.3864 13.6768C21.343 13.7684 21.343 13.631 21.2996 13.6768C21.2562 13.5851 21.2562 13.7226 21.2128 13.6768C21.1694 13.6768 21.1694 13.631 21.126 13.6768C21.0826 13.6768 21.0826 13.7226 21.0391 13.6768C20.9957 13.8601 20.9957 13.631 20.9957 13.6768C20.9957 13.5851 20.9523 13.6768 20.9523 13.6768C20.9523 13.7226 20.9089 13.5851 20.9089 13.6768C20.9089 13.6768 20.8655 13.7226 20.8655 13.6768C20.8655 13.7684 20.8221 13.5851 20.8221 13.6768H20.7787C20.7787 13.5393 20.7353 13.6768 20.7353 13.6768C20.7353 13.6768 20.6919 13.7684 20.6919 13.6768C20.6919 13.6768 20.6485 13.5851 20.6485 13.6768C20.6485 13.6768 20.6051 13.4935 20.6051 13.6768C20.6051 13.7226 20.5617 13.5393 20.5617 13.6768C20.5617 13.7684 20.5183 13.6768 20.5183 13.6768H20.4748C20.388 13.631 20.3012 13.5393 20.3012 13.4935C20.3012 13.4018 20.388 13.356 20.5183 13.2643C20.5183 13.2643 20.5617 13.1727 20.5617 13.2643C20.5617 13.2643 20.6051 13.1727 20.6051 13.2643C20.6051 13.1269 20.6485 13.2185 20.6485 13.2643C20.6485 13.2643 20.6919 13.3102 20.6919 13.2643C20.6919 13.1727 20.7353 13.3102 20.7353 13.2643C20.7353 13.356 20.7787 13.3102 20.7787 13.2643C20.7787 13.356 20.8221 13.2643 20.8221 13.2643C20.8221 13.4018 20.8655 13.3102 20.8655 13.2643C20.8655 13.2185 20.9089 13.2643 20.9089 13.2643C20.9089 13.2643 20.9523 13.2185 20.9523 13.2643C20.9523 13.2185 20.9957 13.1727 20.9957 13.2643C20.9957 13.2185 21.0391 13.2643 21.0391 13.2643C21.0826 13.2185 21.0826 13.2643 21.126 13.2643C21.1694 13.2185 21.1694 13.4018 21.2128 13.2643C21.2562 13.2643 21.2562 13.2643 21.2996 13.2643C21.343 13.2643 21.343 13.3102 21.3864 13.2643C21.4298 13.4018 21.4298 13.3102 21.4732 13.2643C21.5166 13.2185 21.5166 13.2643 21.56 13.2643C21.6034 13.2643 21.6034 13.2643 21.6469 13.2643C21.6903 13.2185 21.6903 13.3102 21.7337 13.2643C21.7771 13.2185 21.7771 13.3102 21.8205 13.2643C21.8639 13.2185 21.8639 13.2185 21.9073 13.2643C21.9507 13.2643 21.9507 13.4018 21.9507 13.2643C21.9507 13.2185 21.9941 13.081 21.9941 13.2643C21.9941 13.2185 22.0375 13.356 22.0375 13.2643C22.0375 13.4018 22.0809 13.2643 22.0809 13.2643C22.0809 13.3102 22.1243 13.3102 22.1243 13.2643C22.1243 13.2185 22.1677 13.3102 22.1677 13.2643C22.1677 13.1727 22.2112 13.356 22.2112 13.2643H22.2546C22.2546 13.081 22.298 13.2643 22.298 13.2643C22.298 13.3102 22.3414 13.1727 22.3414 13.2643C22.3414 13.1269 22.3848 13.2643 22.3848 13.2643C22.3848 13.3102 22.4282 13.2185 22.4282 13.2643C22.4282 13.1727 22.4716 13.3102 22.4716 13.2643C22.4716 13.3102 22.515 13.2643 22.515 13.2643C22.515 13.2643 22.515 13.2643 22.5584 13.2643C22.5584 13.2643 22.5584 13.2643 22.6018 13.2643C22.6886 13.4476 22.6886 13.4935 22.6886 13.5393Z" fill="#44693D"/>
<path d="M31.3702 13.5393C31.3702 13.5851 31.3268 13.631 31.2834 13.6768C31.2834 13.6768 31.2834 13.6768 31.2399 13.6768C31.2399 13.6768 31.2399 13.7226 31.1965 13.6768C31.1965 13.631 31.1965 13.8143 31.1531 13.6768C31.1531 13.631 31.1097 13.6768 31.1097 13.6768C31.1097 13.6768 31.0663 13.631 31.0663 13.6768C31.0663 13.8143 31.0229 13.5393 31.0229 13.6768C31.0229 13.7226 30.9795 13.7226 30.9795 13.6768C30.9795 13.5851 30.9361 13.6768 30.9361 13.6768C30.9361 13.5393 30.8927 13.631 30.8927 13.6768C30.8927 13.5393 30.8493 13.5393 30.8493 13.6768C30.8493 13.6768 30.8059 13.631 30.8059 13.6768C30.8059 13.6768 30.7625 13.7226 30.7625 13.6768C30.7625 13.7684 30.7191 13.7684 30.7191 13.6768C30.7191 13.7684 30.6756 13.7226 30.6756 13.6768C30.6756 13.631 30.6322 13.7684 30.6322 13.6768C30.6322 13.6768 30.5888 13.7226 30.5888 13.6768C30.5454 13.631 30.5454 13.5851 30.502 13.6768C30.4586 13.7226 30.4586 13.7226 30.4152 13.6768C30.3718 13.8143 30.3718 13.7226 30.3284 13.6768C30.285 13.6768 30.285 13.631 30.2416 13.6768C30.1982 13.6768 30.1982 13.7226 30.1548 13.6768C30.1113 13.631 30.1113 13.5851 30.0679 13.6768C30.0245 13.7684 30.0245 13.631 29.9811 13.6768C29.9377 13.5851 29.9377 13.7226 29.8943 13.6768C29.8509 13.6768 29.8509 13.631 29.8075 13.6768C29.7641 13.6768 29.7641 13.7226 29.7207 13.6768C29.6773 13.8601 29.6773 13.631 29.6773 13.6768C29.6773 13.5851 29.6339 13.6768 29.6339 13.6768C29.6339 13.7226 29.5905 13.5851 29.5905 13.6768C29.5905 13.6768 29.547 13.7226 29.547 13.6768C29.547 13.7684 29.5036 13.5851 29.5036 13.6768H29.4602C29.4602 13.5393 29.4168 13.6768 29.4168 13.6768C29.4168 13.6768 29.3734 13.7684 29.3734 13.6768C29.3734 13.6768 29.33 13.5851 29.33 13.6768C29.33 13.6768 29.2866 13.4935 29.2866 13.6768C29.2866 13.7226 29.2432 13.5393 29.2432 13.6768C29.2432 13.7684 29.1998 13.6768 29.1998 13.6768H29.1564C29.0696 13.631 28.9827 13.5393 28.9827 13.4935C28.9827 13.4018 29.0696 13.356 29.1998 13.2643C29.1998 13.2643 29.2432 13.1727 29.2432 13.2643C29.2432 13.2643 29.2866 13.1727 29.2866 13.2643C29.2866 13.1269 29.33 13.2185 29.33 13.2643C29.33 13.2643 29.3734 13.3102 29.3734 13.2643C29.3734 13.1727 29.4168 13.3102 29.4168 13.2643C29.4168 13.356 29.4602 13.3102 29.4602 13.2643C29.4602 13.356 29.5036 13.2643 29.5036 13.2643C29.5036 13.4018 29.547 13.3102 29.547 13.2643C29.547 13.2185 29.5905 13.2643 29.5905 13.2643C29.5905 13.2643 29.6339 13.2185 29.6339 13.2643C29.6339 13.2185 29.6773 13.1727 29.6773 13.2643C29.6773 13.2185 29.7207 13.2643 29.7207 13.2643C29.7207 13.2185 29.7641 13.2643 29.8075 13.2643C29.8509 13.2185 29.8509 13.4018 29.8943 13.2643C29.9377 13.2643 29.9377 13.2643 29.9811 13.2643C30.0245 13.2643 30.0245 13.3102 30.0679 13.2643C30.1113 13.4018 30.1113 13.3102 30.1548 13.2643C30.1982 13.2185 30.1982 13.2643 30.2416 13.2643C30.285 13.2643 30.285 13.2643 30.3284 13.2643C30.3718 13.2185 30.3718 13.3102 30.4152 13.2643C30.4586 13.2185 30.4586 13.3102 30.502 13.2643C30.5454 13.2185 30.5454 13.2185 30.5888 13.2643C30.6322 13.2643 30.6322 13.4018 30.6322 13.2643C30.6322 13.2185 30.6756 13.081 30.6756 13.2643C30.6756 13.2185 30.7191 13.356 30.7191 13.2643C30.7191 13.4018 30.7625 13.2643 30.7625 13.2643C30.7625 13.3102 30.8059 13.3102 30.8059 13.2643C30.8059 13.2185 30.8493 13.3102 30.8493 13.2643C30.8493 13.1727 30.8927 13.356 30.8927 13.2643H30.9361C30.9361 13.081 30.9795 13.2643 30.9795 13.2643C30.9795 13.3102 31.0229 13.1727 31.0229 13.2643C31.0229 13.1269 31.0663 13.2643 31.0663 13.2643C31.0663 13.3102 31.1097 13.2185 31.1097 13.2643C31.1097 13.1727 31.1531 13.3102 31.1531 13.2643C31.1531 13.3102 31.1965 13.2643 31.1965 13.2643C31.1965 13.2643 31.1965 13.2643 31.2399 13.2643C31.2399 13.2643 31.2399 13.2643 31.2834 13.2643C31.3268 13.4476 31.3702 13.4935 31.3702 13.5393Z" fill="#44693D"/>
<path d="M5.36898 31.3201C5.36898 31.366 5.32558 31.4118 5.28217 31.4576C5.28217 31.4576 5.28217 31.4576 5.23876 31.4576C5.23876 31.4576 5.23876 31.5034 5.19535 31.4576C5.19535 31.4118 5.19535 31.5951 5.15195 31.4576C5.15195 31.4118 5.10854 31.4576 5.10854 31.4576C5.10854 31.4576 5.06513 31.4118 5.06513 31.4576C5.06513 31.5951 5.02172 31.3201 5.02172 31.4576C5.02172 31.5034 4.97831 31.5034 4.97831 31.4576C4.97831 31.366 4.93491 31.4576 4.93491 31.4576C4.93491 31.366 4.8915 31.4118 4.8915 31.4576C4.8915 31.3201 4.84809 31.3201 4.84809 31.4576C4.84809 31.4576 4.80468 31.4118 4.80468 31.4576C4.80468 31.4576 4.76128 31.5034 4.76128 31.4576C4.76128 31.5493 4.71787 31.5493 4.71787 31.4576C4.71787 31.5493 4.67446 31.5034 4.67446 31.4576C4.67446 31.4118 4.63105 31.5493 4.63105 31.4576C4.63105 31.4576 4.58765 31.5034 4.58765 31.4576C4.54424 31.4118 4.54424 31.366 4.50083 31.4576C4.45742 31.5034 4.45742 31.5034 4.41402 31.4576C4.37061 31.5951 4.37061 31.5034 4.3272 31.4576C4.28379 31.4576 4.28379 31.4118 4.24038 31.4576C4.19698 31.4576 4.19698 31.5034 4.15357 31.4576C4.11016 31.4118 4.11016 31.366 4.06675 31.4576C4.02335 31.5493 4.02335 31.4118 3.97994 31.4576C3.93653 31.366 3.93653 31.5034 3.89312 31.4576C3.84972 31.4576 3.84972 31.4118 3.80631 31.4576C3.7629 31.4576 3.7629 31.5034 3.71949 31.4576C3.67609 31.6409 3.67609 31.4118 3.67609 31.4576C3.67609 31.366 3.63268 31.4576 3.63268 31.4576C3.63268 31.5034 3.58927 31.366 3.58927 31.4576C3.58927 31.4576 3.54586 31.5034 3.54586 31.4576C3.54586 31.5493 3.50245 31.366 3.50245 31.4576H3.45905C3.45905 31.3201 3.41564 31.4118 3.41564 31.4576C3.41564 31.4576 3.37223 31.5493 3.37223 31.4576C3.37223 31.4576 3.32882 31.366 3.32882 31.4576C3.32882 31.4576 3.28542 31.2743 3.28542 31.4576C3.28542 31.5034 3.24201 31.3201 3.24201 31.4576C3.24201 31.5493 3.1986 31.4576 3.1986 31.4576H3.15519C3.06838 31.4118 2.98156 31.3201 2.98156 31.2743C2.98156 31.1826 3.06838 31.1368 3.1986 31.0452C3.1986 31.0452 3.24201 30.9535 3.24201 31.0452C3.24201 31.0452 3.28542 30.9535 3.28542 31.0452C3.28542 30.9077 3.32882 30.9993 3.32882 31.0452C3.32882 31.0452 3.37223 31.091 3.37223 31.0452C3.37223 30.9535 3.41564 31.091 3.41564 31.0452C3.41564 31.1368 3.45905 31.091 3.45905 31.0452C3.45905 31.1368 3.50245 31.0452 3.50245 31.0452C3.50245 31.1826 3.54586 31.091 3.54586 31.0452C3.54586 30.9993 3.58927 31.0452 3.58927 31.0452C3.58927 31.0452 3.63268 30.9993 3.63268 31.0452C3.63268 30.9993 3.67609 30.9535 3.67609 31.0452C3.67609 30.9993 3.71949 31.0452 3.71949 31.0452C3.7629 30.9993 3.7629 31.0452 3.80631 31.0452C3.84972 30.9993 3.84972 31.1826 3.89312 31.0452C3.93653 31.0452 3.93653 31.0452 3.97994 31.0452C4.02335 31.0452 4.02335 31.091 4.06675 31.0452C4.11016 31.1826 4.11016 31.091 4.15357 31.0452C4.19698 30.9993 4.19698 31.0452 4.24038 31.0452C4.28379 31.0452 4.28379 31.0452 4.3272 31.0452C4.37061 30.9993 4.37061 31.091 4.41402 31.0452C4.45742 30.9993 4.45742 31.091 4.50083 31.0452C4.54424 30.9993 4.54424 30.9993 4.58765 31.0452C4.58765 31.0452 4.63105 31.1826 4.63105 31.0452C4.63105 30.9993 4.67446 30.8619 4.67446 31.0452C4.67446 30.9993 4.71787 31.1368 4.71787 31.0452C4.71787 31.1826 4.76128 31.0452 4.76128 31.0452C4.76128 31.091 4.80468 31.091 4.80468 31.0452C4.80468 30.9993 4.84809 31.091 4.84809 31.0452C4.84809 30.9535 4.8915 31.1368 4.8915 31.0452H4.93491C4.93491 30.8619 4.97831 31.0452 4.97831 31.0452C4.97831 31.091 5.02172 30.9535 5.02172 31.0452C5.02172 30.9077 5.06513 31.0452 5.06513 31.0452C5.06513 31.091 5.10854 30.9993 5.10854 31.0452C5.10854 30.9535 5.15195 31.091 5.15195 31.0452C5.15195 31.091 5.19535 31.0452 5.19535 31.0452C5.19535 31.0452 5.19535 31.0452 5.23876 31.0452C5.23876 31.0452 5.23876 31.0452 5.28217 31.0452C5.36898 31.2285 5.36898 31.2743 5.36898 31.3201Z" fill="#44693D"/>
<path d="M14.0505 31.3201C14.0505 31.366 14.0071 31.4118 13.9637 31.4576C13.9637 31.4576 13.9637 31.4576 13.9203 31.4576C13.9203 31.4576 13.9203 31.5034 13.8769 31.4576C13.8769 31.4118 13.8769 31.5951 13.8335 31.4576C13.8335 31.4118 13.7901 31.4576 13.7901 31.4576C13.7901 31.4576 13.7467 31.4118 13.7467 31.4576C13.7467 31.5951 13.7033 31.3201 13.7033 31.4576C13.7033 31.5034 13.6598 31.5034 13.6598 31.4576C13.6598 31.366 13.6164 31.4576 13.6164 31.4576C13.6164 31.366 13.573 31.4118 13.573 31.4576C13.573 31.3201 13.5296 31.3201 13.5296 31.4576C13.5296 31.4576 13.4862 31.4118 13.4862 31.4576C13.4862 31.4576 13.4428 31.5034 13.4428 31.4576C13.4428 31.5493 13.3994 31.5493 13.3994 31.4576C13.3994 31.5493 13.356 31.5034 13.356 31.4576C13.356 31.4118 13.3126 31.5493 13.3126 31.4576C13.3126 31.4576 13.2692 31.5034 13.2692 31.4576C13.2692 31.4118 13.2258 31.366 13.1824 31.4576C13.139 31.5034 13.139 31.5034 13.0955 31.4576C13.0521 31.5951 13.0521 31.5034 13.0087 31.4576C12.9653 31.4576 12.9653 31.4118 12.9219 31.4576C12.8785 31.4576 12.8785 31.5034 12.8351 31.4576C12.7917 31.4118 12.7917 31.366 12.7483 31.4576C12.7049 31.5493 12.7049 31.4118 12.6615 31.4576C12.6181 31.366 12.6181 31.5034 12.5747 31.4576C12.5312 31.4576 12.5312 31.4118 12.4878 31.4576C12.4444 31.4576 12.4444 31.5034 12.401 31.4576C12.3576 31.6409 12.3576 31.4118 12.3576 31.4576C12.3576 31.366 12.3142 31.4576 12.3142 31.4576C12.3142 31.5034 12.2708 31.366 12.2708 31.4576C12.2708 31.4576 12.2274 31.5034 12.2274 31.4576C12.2274 31.5493 12.184 31.366 12.184 31.4576H12.1406C12.1406 31.3201 12.0972 31.4118 12.0972 31.4576C12.0972 31.4576 12.0538 31.5493 12.0538 31.4576C12.0538 31.4576 12.0104 31.366 12.0104 31.4576C12.0104 31.4576 11.9669 31.2743 11.9669 31.4576C11.9669 31.5034 11.9235 31.3201 11.9235 31.4576C11.9235 31.5493 11.8801 31.4576 11.8801 31.4576H11.8367C11.7499 31.4118 11.6631 31.3201 11.6631 31.2743C11.6631 31.1826 11.7499 31.1368 11.8801 31.0452C11.8801 31.0452 11.9235 30.9535 11.9235 31.0452C11.9235 31.0452 11.9669 30.9535 11.9669 31.0452C11.9669 30.9077 12.0104 30.9993 12.0104 31.0452C12.0104 31.0452 12.0538 31.091 12.0538 31.0452C12.0538 30.9535 12.0972 31.091 12.0972 31.0452C12.0972 31.1368 12.1406 31.091 12.1406 31.0452C12.1406 31.1368 12.184 31.0452 12.184 31.0452C12.184 31.1826 12.2274 31.091 12.2274 31.0452C12.2274 30.9993 12.2708 31.0452 12.2708 31.0452C12.2708 31.0452 12.3142 30.9993 12.3142 31.0452C12.3142 30.9993 12.3576 30.9535 12.3576 31.0452C12.3576 30.9993 12.401 31.0452 12.401 31.0452C12.4444 30.9993 12.4444 31.0452 12.4878 31.0452C12.5312 30.9993 12.5312 31.1826 12.5747 31.0452C12.6181 31.0452 12.6181 31.0452 12.6615 31.0452C12.7049 31.0452 12.7049 31.091 12.7483 31.0452C12.7917 31.1826 12.7917 31.091 12.8351 31.0452C12.8785 30.9993 12.8785 31.0452 12.9219 31.0452C12.9653 31.0452 12.9653 31.0452 13.0087 31.0452C13.0521 30.9993 13.0521 31.091 13.0955 31.0452C13.139 30.9993 13.139 31.091 13.1824 31.0452C13.2258 30.9993 13.2258 30.9993 13.2692 31.0452C13.3126 31.0452 13.3126 31.1826 13.3126 31.0452C13.3126 30.9993 13.356 30.8619 13.356 31.0452C13.356 30.9993 13.3994 31.1368 13.3994 31.0452C13.3994 31.1826 13.4428 31.0452 13.4428 31.0452C13.4428 31.091 13.4862 31.091 13.4862 31.0452C13.4862 30.9993 13.5296 31.091 13.5296 31.0452C13.5296 30.9535 13.573 31.1368 13.573 31.0452H13.6164C13.6164 30.8619 13.6598 31.0452 13.6598 31.0452C13.6598 31.091 13.7033 30.9535 13.7033 31.0452C13.7033 30.9077 13.7467 31.0452 13.7467 31.0452C13.7467 31.091 13.7901 30.9993 13.7901 31.0452C13.7901 30.9535 13.8335 31.091 13.8335 31.0452C13.8335 31.091 13.8769 31.0452 13.8769 31.0452C13.8769 31.0452 13.8769 31.0452 13.9203 31.0452C13.9203 31.0452 13.9203 31.0452 13.9637 31.0452C14.0071 31.2285 14.0505 31.2743 14.0505 31.3201Z" fill="#44693D"/>
<path d="M22.6886 31.3201C22.6886 31.366 22.6452 31.4118 22.6018 31.4576C22.6018 31.4576 22.6018 31.4576 22.5584 31.4576C22.5584 31.4576 22.5584 31.5034 22.515 31.4576C22.515 31.4118 22.515 31.5951 22.4716 31.4576C22.4716 31.4118 22.4282 31.4576 22.4282 31.4576C22.4282 31.4576 22.3848 31.4118 22.3848 31.4576C22.3848 31.5951 22.3414 31.3201 22.3414 31.4576C22.3414 31.5034 22.298 31.5034 22.298 31.4576C22.298 31.366 22.2546 31.4576 22.2546 31.4576C22.2546 31.366 22.2112 31.4118 22.2112 31.4576C22.2112 31.3201 22.1677 31.3201 22.1677 31.4576C22.1677 31.4576 22.1243 31.4118 22.1243 31.4576C22.1243 31.4576 22.0809 31.5034 22.0809 31.4576C22.0809 31.5493 22.0375 31.5493 22.0375 31.4576C22.0375 31.5493 21.9941 31.5034 21.9941 31.4576C21.9941 31.4118 21.9507 31.5493 21.9507 31.4576C21.9507 31.4576 21.9073 31.5034 21.9073 31.4576C21.8639 31.4118 21.8639 31.366 21.8205 31.4576C21.7771 31.5034 21.7771 31.5034 21.7337 31.4576C21.6903 31.5951 21.6903 31.5034 21.6469 31.4576C21.6034 31.4576 21.6034 31.4118 21.56 31.4576C21.5166 31.4576 21.5166 31.5034 21.4732 31.4576C21.4298 31.4118 21.4298 31.366 21.3864 31.4576C21.343 31.5493 21.343 31.4118 21.2996 31.4576C21.2562 31.366 21.2562 31.5034 21.2128 31.4576C21.1694 31.4576 21.1694 31.4118 21.126 31.4576C21.0826 31.4576 21.0826 31.5034 21.0391 31.4576C20.9957 31.6409 20.9957 31.4118 20.9957 31.4576C20.9957 31.366 20.9523 31.4576 20.9523 31.4576C20.9523 31.5034 20.9089 31.366 20.9089 31.4576C20.9089 31.4576 20.8655 31.5034 20.8655 31.4576C20.8655 31.5493 20.8221 31.366 20.8221 31.4576H20.7787C20.7787 31.3201 20.7353 31.4118 20.7353 31.4576C20.7353 31.4576 20.6919 31.5493 20.6919 31.4576C20.6919 31.4576 20.6485 31.366 20.6485 31.4576C20.6485 31.4576 20.6051 31.2743 20.6051 31.4576C20.6051 31.5034 20.5617 31.3201 20.5617 31.4576C20.5617 31.5493 20.5183 31.4576 20.5183 31.4576H20.4748C20.388 31.4118 20.3012 31.3201 20.3012 31.2743C20.3012 31.1826 20.388 31.1368 20.5183 31.0452C20.5183 31.0452 20.5617 30.9535 20.5617 31.0452C20.5617 31.0452 20.6051 30.9535 20.6051 31.0452C20.6051 30.9077 20.6485 30.9993 20.6485 31.0452C20.6485 31.0452 20.6919 31.091 20.6919 31.0452C20.6919 30.9535 20.7353 31.091 20.7353 31.0452C20.7353 31.1368 20.7787 31.091 20.7787 31.0452C20.7787 31.1368 20.8221 31.0452 20.8221 31.0452C20.8221 31.1826 20.8655 31.091 20.8655 31.0452C20.8655 30.9993 20.9089 31.0452 20.9089 31.0452C20.9089 31.0452 20.9523 30.9993 20.9523 31.0452C20.9523 30.9993 20.9957 30.9535 20.9957 31.0452C20.9957 30.9993 21.0391 31.0452 21.0391 31.0452C21.0826 30.9993 21.0826 31.0452 21.126 31.0452C21.1694 30.9993 21.1694 31.1826 21.2128 31.0452C21.2562 31.0452 21.2562 31.0452 21.2996 31.0452C21.343 31.0452 21.343 31.091 21.3864 31.0452C21.4298 31.1826 21.4298 31.091 21.4732 31.0452C21.5166 30.9993 21.5166 31.0452 21.56 31.0452C21.6034 31.0452 21.6034 31.0452 21.6469 31.0452C21.6903 30.9993 21.6903 31.091 21.7337 31.0452C21.7771 30.9993 21.7771 31.091 21.8205 31.0452C21.8639 30.9993 21.8639 30.9993 21.9073 31.0452C21.9507 31.0452 21.9507 31.1826 21.9507 31.0452C21.9507 30.9993 21.9941 30.8619 21.9941 31.0452C21.9941 30.9993 22.0375 31.1368 22.0375 31.0452C22.0375 31.1826 22.0809 31.0452 22.0809 31.0452C22.0809 31.091 22.1243 31.091 22.1243 31.0452C22.1243 30.9993 22.1677 31.091 22.1677 31.0452C22.1677 30.9535 22.2112 31.1368 22.2112 31.0452H22.2546C22.2546 30.8619 22.298 31.0452 22.298 31.0452C22.298 31.091 22.3414 30.9535 22.3414 31.0452C22.3414 30.9077 22.3848 31.0452 22.3848 31.0452C22.3848 31.091 22.4282 30.9993 22.4282 31.0452C22.4282 30.9535 22.4716 31.091 22.4716 31.0452C22.4716 31.091 22.515 31.0452 22.515 31.0452C22.515 31.0452 22.515 31.0452 22.5584 31.0452C22.5584 31.0452 22.5584 31.0452 22.6018 31.0452C22.6886 31.2285 22.6886 31.2743 22.6886 31.3201Z" fill="#44693D"/>
<path d="M31.3702 31.3201C31.3702 31.366 31.3268 31.4118 31.2834 31.4576C31.2834 31.4576 31.2834 31.4576 31.2399 31.4576C31.2399 31.4576 31.2399 31.5034 31.1965 31.4576C31.1965 31.4118 31.1965 31.5951 31.1531 31.4576C31.1531 31.4118 31.1097 31.4576 31.1097 31.4576C31.1097 31.4576 31.0663 31.4118 31.0663 31.4576C31.0663 31.5951 31.0229 31.3201 31.0229 31.4576C31.0229 31.5034 30.9795 31.5034 30.9795 31.4576C30.9795 31.366 30.9361 31.4576 30.9361 31.4576C30.9361 31.366 30.8927 31.4118 30.8927 31.4576C30.8927 31.3201 30.8493 31.3201 30.8493 31.4576C30.8493 31.4576 30.8059 31.4118 30.8059 31.4576C30.8059 31.4576 30.7625 31.5034 30.7625 31.4576C30.7625 31.5493 30.7191 31.5493 30.7191 31.4576C30.7191 31.5493 30.6756 31.5034 30.6756 31.4576C30.6756 31.4118 30.6322 31.5493 30.6322 31.4576C30.6322 31.4576 30.5888 31.5034 30.5888 31.4576C30.5454 31.4118 30.5454 31.366 30.502 31.4576C30.4586 31.5034 30.4586 31.5034 30.4152 31.4576C30.3718 31.5951 30.3718 31.5034 30.3284 31.4576C30.285 31.4576 30.285 31.4118 30.2416 31.4576C30.1982 31.4576 30.1982 31.5034 30.1548 31.4576C30.1113 31.4118 30.1113 31.366 30.0679 31.4576C30.0245 31.5493 30.0245 31.4118 29.9811 31.4576C29.9377 31.366 29.9377 31.5034 29.8943 31.4576C29.8509 31.4576 29.8509 31.4118 29.8075 31.4576C29.7641 31.4576 29.7641 31.5034 29.7207 31.4576C29.6773 31.6409 29.6773 31.4118 29.6773 31.4576C29.6773 31.366 29.6339 31.4576 29.6339 31.4576C29.6339 31.5034 29.5905 31.366 29.5905 31.4576C29.5905 31.4576 29.547 31.5034 29.547 31.4576C29.547 31.5493 29.5036 31.366 29.5036 31.4576H29.4602C29.4602 31.3201 29.4168 31.4118 29.4168 31.4576C29.4168 31.4576 29.3734 31.5493 29.3734 31.4576C29.3734 31.4576 29.33 31.366 29.33 31.4576C29.33 31.4576 29.2866 31.2743 29.2866 31.4576C29.2866 31.5034 29.2432 31.3201 29.2432 31.4576C29.2432 31.5493 29.1998 31.4576 29.1998 31.4576H29.1564C29.0696 31.4118 28.9827 31.3201 28.9827 31.2743C28.9827 31.1826 29.0696 31.1368 29.1998 31.0452C29.1998 31.0452 29.2432 30.9535 29.2432 31.0452C29.2432 31.0452 29.2866 30.9535 29.2866 31.0452C29.2866 30.9077 29.33 30.9993 29.33 31.0452C29.33 31.0452 29.3734 31.091 29.3734 31.0452C29.3734 30.9535 29.4168 31.091 29.4168 31.0452C29.4168 31.1368 29.4602 31.091 29.4602 31.0452C29.4602 31.1368 29.5036 31.0452 29.5036 31.0452C29.5036 31.1826 29.547 31.091 29.547 31.0452C29.547 30.9993 29.5905 31.0452 29.5905 31.0452C29.5905 31.0452 29.6339 30.9993 29.6339 31.0452C29.6339 30.9993 29.6773 30.9535 29.6773 31.0452C29.6773 30.9993 29.7207 31.0452 29.7207 31.0452C29.7207 30.9993 29.7641 31.0452 29.8075 31.0452C29.8509 30.9993 29.8509 31.1826 29.8943 31.0452C29.9377 31.0452 29.9377 31.0452 29.9811 31.0452C30.0245 31.0452 30.0245 31.091 30.0679 31.0452C30.1113 31.1826 30.1113 31.091 30.1548 31.0452C30.1982 30.9993 30.1982 31.0452 30.2416 31.0452C30.285 31.0452 30.285 31.0452 30.3284 31.0452C30.3718 30.9993 30.3718 31.091 30.4152 31.0452C30.4586 30.9993 30.4586 31.091 30.502 31.0452C30.5454 30.9993 30.5454 30.9993 30.5888 31.0452C30.6322 31.0452 30.6322 31.1826 30.6322 31.0452C30.6322 30.9993 30.6756 30.8619 30.6756 31.0452C30.6756 30.9993 30.7191 31.1368 30.7191 31.0452C30.7191 31.1826 30.7625 31.0452 30.7625 31.0452C30.7625 31.091 30.8059 31.091 30.8059 31.0452C30.8059 30.9993 30.8493 31.091 30.8493 31.0452C30.8493 30.9535 30.8927 31.1368 30.8927 31.0452H30.9361C30.9361 30.8619 30.9795 31.0452 30.9795 31.0452C30.9795 31.091 31.0229 30.9535 31.0229 31.0452C31.0229 30.9077 31.0663 31.0452 31.0663 31.0452C31.0663 31.091 31.1097 30.9993 31.1097 31.0452C31.1097 30.9535 31.1531 31.091 31.1531 31.0452C31.1531 31.091 31.1965 31.0452 31.1965 31.0452C31.1965 31.0452 31.1965 31.0452 31.2399 31.0452C31.2399 31.0452 31.2399 31.0452 31.2834 31.0452C31.3268 31.2285 31.3702 31.2743 31.3702 31.3201Z" fill="#44693D"/>
<path d="M19.5199 36.6819C19.5199 36.7277 19.4331 36.7735 19.2594 36.8194C19.216 36.8194 19.216 36.8194 19.1726 36.8194C19.1292 36.8194 19.0858 36.8652 19.0858 36.8194C19.0424 36.7735 18.999 36.9568 18.9556 36.8194C18.9122 36.7735 18.8688 36.8194 18.8254 36.8194C18.7819 36.8194 18.7385 36.7735 18.6951 36.8194C18.6517 36.9568 18.6083 36.6819 18.5649 36.8194C18.5215 36.8652 18.4781 36.8652 18.3913 36.8194C18.3479 36.7277 18.2611 36.8194 18.2176 36.8194C18.1742 36.6819 18.0874 36.7735 18.044 36.8194C18.0006 36.6819 17.9138 36.6819 17.8704 36.8194C17.827 36.8194 17.7402 36.7735 17.6968 36.8194C17.6533 36.8194 17.5665 36.8652 17.4797 36.8194C17.3929 36.911 17.3495 36.911 17.2627 36.8194C17.1759 36.911 17.1325 36.8652 17.0456 36.8194C16.9588 36.7735 16.9154 36.911 16.8286 36.8194C16.7418 36.8194 16.6984 36.8652 16.6116 36.8194C16.5247 36.7735 16.4379 36.7277 16.3945 36.8194C16.3077 36.8652 16.2209 36.8652 16.1775 36.8194C16.0907 36.9568 16.0039 36.8652 15.917 36.8194C15.8302 36.8194 15.7434 36.7735 15.6566 36.8194C15.5698 36.8194 15.483 36.8652 15.3961 36.8194C15.3093 36.7735 15.2225 36.7277 15.1357 36.8194C15.0489 36.911 14.9621 36.7735 14.8753 36.8194C14.7884 36.7277 14.7016 36.8652 14.6148 36.8194C14.528 36.8194 14.4412 36.7735 14.3978 36.8194C14.311 36.8194 14.2241 36.8652 14.1807 36.8194C14.0939 37.0027 14.0505 36.7735 13.9637 36.8194C13.8769 36.7277 13.8335 36.8194 13.7467 36.8194C13.6598 36.8652 13.6164 36.7277 13.5296 36.8194C13.4428 36.8194 13.3994 36.8652 13.3126 36.8194C13.2258 36.911 13.1824 36.7277 13.0955 36.8194C13.0521 36.8194 12.9653 36.8194 12.9219 36.8194C12.8785 36.6819 12.7917 36.7735 12.7483 36.8194C12.7049 36.8194 12.6181 36.911 12.5747 36.8194C12.5312 36.8194 12.4444 36.7277 12.401 36.8194C12.3576 36.8194 12.3142 36.636 12.2274 36.8194C12.184 36.8652 12.1406 36.6819 12.0972 36.8194C12.0538 36.911 12.0104 36.8194 11.9669 36.8194C11.9235 36.8194 11.8801 36.8194 11.8367 36.8194C11.4895 36.7735 11.2724 36.6819 11.2724 36.636C11.2724 36.5444 11.5329 36.4986 11.9669 36.4069C12.0104 36.4069 12.0538 36.3153 12.0972 36.4069C12.1406 36.4069 12.184 36.3153 12.2274 36.4069C12.2708 36.2694 12.3142 36.3611 12.401 36.4069C12.4444 36.4069 12.4878 36.4527 12.5747 36.4069C12.6181 36.3153 12.7049 36.4527 12.7483 36.4069C12.7917 36.4986 12.8785 36.4527 12.9219 36.4069C12.9653 36.4986 13.0521 36.4069 13.0955 36.4069C13.139 36.5444 13.2258 36.4527 13.3126 36.4069C13.3994 36.3611 13.4428 36.4069 13.5296 36.4069C13.6164 36.4069 13.6598 36.3611 13.7467 36.4069C13.8335 36.3611 13.8769 36.3153 13.9637 36.4069C14.0505 36.3611 14.0939 36.4069 14.1807 36.4069C14.2676 36.3611 14.3544 36.4069 14.3978 36.4069C14.4846 36.3611 14.5714 36.5444 14.6148 36.4069C14.7016 36.4069 14.7884 36.4069 14.8753 36.4069C14.9621 36.4069 15.0489 36.4527 15.1357 36.4069C15.2225 36.5444 15.3093 36.4527 15.3961 36.4069C15.483 36.3611 15.5698 36.4069 15.6566 36.4069C15.7434 36.4069 15.8302 36.4069 15.917 36.4069C16.0039 36.3611 16.0907 36.4527 16.1775 36.4069C16.2643 36.3611 16.3511 36.4527 16.3945 36.4069C16.4813 36.3611 16.5682 36.3611 16.6116 36.4069C16.6984 36.4069 16.7852 36.4986 16.8286 36.4069C16.9154 36.3611 16.9588 36.2236 17.0456 36.4069C17.1325 36.3611 17.1759 36.4986 17.2627 36.4069C17.3495 36.5444 17.3929 36.4069 17.4797 36.4069C17.5665 36.4527 17.6099 36.4527 17.6968 36.4069C17.7402 36.3611 17.827 36.4527 17.8704 36.4069C17.9138 36.3153 18.0006 36.4986 18.044 36.4069C18.0874 36.4069 18.1742 36.4069 18.2176 36.4069C18.2611 36.2236 18.3479 36.4069 18.3913 36.4069C18.4347 36.4527 18.4781 36.3153 18.5649 36.4069C18.6083 36.2694 18.6517 36.4069 18.6951 36.4069C18.7385 36.4527 18.7819 36.3611 18.8254 36.4069C18.8688 36.3153 18.9122 36.4527 18.9556 36.4069C18.999 36.4527 19.0424 36.4069 19.0858 36.4069C19.1292 36.4069 19.1726 36.4069 19.1726 36.4069C19.216 36.4069 19.216 36.4069 19.2594 36.4069C19.4331 36.5902 19.5199 36.636 19.5199 36.6819Z" fill="#44693D"/>
<path d="M23.6002 38.7899C23.6002 38.8357 23.5134 38.8816 23.3398 38.9274C23.2963 38.9274 23.2963 38.9274 23.2529 38.9274C23.2095 38.9274 23.1661 38.9732 23.1661 38.9274C23.1227 38.8816 23.0793 39.0649 23.0359 38.9274C22.9925 38.8816 22.9491 38.9274 22.9057 38.9274C22.8623 38.9274 22.8189 38.8816 22.7755 38.9274C22.732 39.0649 22.6886 38.7899 22.6452 38.9274C22.6018 38.9732 22.5584 38.9732 22.4716 38.9274C22.4282 38.8357 22.3414 38.9274 22.298 38.9274C22.2546 38.8357 22.1677 38.8816 22.1243 38.9274C22.0809 38.7899 21.9941 38.7899 21.9507 38.9274C21.9073 38.9274 21.8205 38.8816 21.7771 38.9274C21.7337 38.9274 21.6469 38.9732 21.56 38.9274C21.4732 39.019 21.4298 39.019 21.343 38.9274C21.2562 39.019 21.2128 38.9732 21.126 38.9274C21.0391 38.8816 20.9957 39.019 20.9089 38.9274C20.8221 38.9274 20.7787 38.9732 20.6919 38.9274C20.6051 38.8816 20.5183 38.8357 20.4748 38.9274C20.388 38.9732 20.3012 38.9732 20.2578 38.9274C20.171 39.0649 20.0842 38.9732 19.9974 38.9274C19.9105 38.9274 19.8237 38.8816 19.7369 38.9274C19.6501 38.9274 19.5633 38.9732 19.4765 38.9274C19.3897 38.8816 19.3028 38.8357 19.216 38.9274C19.1292 39.019 19.0424 38.8816 18.9556 38.9274C18.8688 38.8357 18.7819 38.9732 18.6951 38.9274C18.6083 38.9274 18.5215 38.8816 18.4781 38.9274C18.3913 38.9274 18.3045 38.9732 18.2611 38.9274C18.1742 39.1107 18.1308 38.8816 18.044 38.9274C17.9572 38.8357 17.9138 38.9274 17.827 38.9274C17.7402 38.9732 17.6968 38.8357 17.6099 38.9274C17.5231 38.9274 17.4797 38.9732 17.3929 38.9274C17.3061 39.019 17.2627 38.8357 17.1759 38.9274C17.1325 38.9274 17.0456 38.9274 17.0022 38.9274C16.9588 38.7899 16.872 38.8816 16.8286 38.9274C16.7852 38.9274 16.6984 39.019 16.655 38.9274C16.6116 38.9274 16.5247 38.8357 16.4813 38.9274C16.4379 38.9274 16.3945 38.7441 16.3077 38.9274C16.2643 38.9732 16.2209 38.7899 16.1775 38.9274C16.1341 39.019 16.0907 38.9274 16.0473 38.9274C16.0039 38.9274 15.9605 38.9274 15.917 38.9274C15.5698 38.8816 15.3527 38.7899 15.3527 38.7441C15.3527 38.6524 15.6132 38.6066 16.0473 38.5149C16.0907 38.5149 16.1341 38.4233 16.1775 38.5149C16.2209 38.5149 16.2643 38.4233 16.3077 38.5149C16.3511 38.3775 16.3945 38.4691 16.4813 38.5149C16.5247 38.5149 16.5682 38.5608 16.655 38.5149C16.6984 38.4233 16.7852 38.5608 16.8286 38.5149C16.872 38.6066 16.9588 38.5608 17.0022 38.5149C17.0456 38.6066 17.1325 38.5149 17.1759 38.5149C17.2193 38.6524 17.3061 38.5608 17.3929 38.5149C17.4797 38.4691 17.5231 38.5149 17.6099 38.5149C17.6968 38.5149 17.7402 38.4691 17.827 38.5149C17.9138 38.4691 17.9572 38.4233 18.044 38.5149C18.1308 38.4691 18.1742 38.5149 18.2611 38.5149C18.3479 38.4691 18.4347 38.5149 18.4781 38.5149C18.5649 38.4691 18.6517 38.6524 18.6951 38.5149C18.7819 38.5149 18.8688 38.5149 18.9556 38.5149C19.0424 38.5149 19.1292 38.5608 19.216 38.5149C19.3028 38.6524 19.3897 38.5608 19.4765 38.5149C19.5633 38.4691 19.6501 38.5149 19.7369 38.5149C19.8237 38.5149 19.9105 38.5149 19.9974 38.5149C20.0842 38.4691 20.171 38.5608 20.2578 38.5149C20.3446 38.4691 20.4314 38.5608 20.4748 38.5149C20.5617 38.4691 20.6485 38.4691 20.6919 38.5149C20.7787 38.5149 20.8221 38.6066 20.9089 38.5149C20.9957 38.4691 21.0391 38.3316 21.126 38.5149C21.2128 38.4691 21.2562 38.6066 21.343 38.5149C21.4298 38.6524 21.4732 38.5149 21.56 38.5149C21.6469 38.5608 21.6903 38.5608 21.7771 38.5149C21.8205 38.4691 21.9073 38.5608 21.9507 38.5149C21.9941 38.4233 22.0809 38.6066 22.1243 38.5149C22.1677 38.5149 22.2546 38.5149 22.298 38.5149C22.3414 38.3316 22.4282 38.5149 22.4716 38.5149C22.515 38.5608 22.5584 38.4233 22.6452 38.5149C22.6886 38.3775 22.732 38.5149 22.7755 38.5149C22.8189 38.5608 22.8623 38.4691 22.9057 38.5149C22.9491 38.4233 22.9925 38.5608 23.0359 38.5149C23.0793 38.5608 23.1227 38.5149 23.1661 38.5149C23.2095 38.5149 23.2529 38.5149 23.2529 38.5149C23.2963 38.5149 23.2963 38.5149 23.3398 38.5149C23.5134 38.6983 23.6002 38.7441 23.6002 38.7899Z" fill="#44693D"/>
</svg>
