<svg width="36" height="40" viewBox="0 0 36 40" fill="none" xmlns="http://www.w3.org/2000/svg">
<path d="M26.9761 7.2506C26.9761 7.2506 26.9284 7.2506 26.8806 7.29769C26.8329 7.29769 26.7374 7.34477 26.5942 7.34477C26.3554 7.34477 26.0212 7.39185 25.5438 7.39185C25.4005 7.39185 25.2096 7.39185 25.0663 7.39185C24.8753 7.39185 24.6844 7.43893 24.4934 7.39185C24.3024 7.34477 24.1114 7.53309 23.8727 7.39185C23.634 7.34477 23.443 7.39185 23.2042 7.39185C22.9655 7.39185 22.7268 7.34477 22.4881 7.39185C22.2493 7.53309 21.9629 7.2506 21.6764 7.39185C21.3899 7.43893 21.1034 7.43893 20.817 7.39185C20.5305 7.29769 20.244 7.39185 19.9098 7.39185C19.6233 7.29769 19.2891 7.34477 18.9549 7.39185C18.6207 7.2506 18.2865 7.2506 17.9523 7.39185C17.618 7.39185 17.2838 7.34477 16.9019 7.39185C16.5676 7.39185 16.1857 7.43893 15.8037 7.39185C15.6127 7.43893 15.4218 7.48601 15.2308 7.48601C15.1353 7.48601 15.0398 7.48601 14.9443 7.48601C14.8488 7.48601 14.8011 7.48601 14.7056 7.48601C14.6101 7.48601 14.5623 7.48601 14.4668 7.43893C14.4191 7.43893 14.3714 7.43893 14.3236 7.43893C13.9894 6.7327 13.9894 6.54438 13.9416 6.16772C13.8939 5.79107 13.6074 5.46149 13.5597 5.03776C13.4642 4.6611 13.2732 4.28445 13.1777 3.86071C13.13 3.67238 13.0822 3.43697 13.0345 3.24865C12.9867 3.15448 12.9867 3.06032 12.939 2.96616V2.87199C12.939 2.82491 12.939 2.77783 12.939 2.77783C12.939 2.73075 12.8912 2.68366 12.8912 2.63658C12.8435 2.21285 12.7958 1.74203 12.9867 1.27121C12.9867 1.0358 13.0345 0.753309 13.2255 0.5179C13.321 0.376655 13.4164 0.282491 13.5597 0.188327C13.7029 0.0941637 13.8939 0.0470818 14.0371 0C14.1326 0.0470818 14.2759 0.0470818 14.4191 0.0470818C14.5623 0.0470818 14.7056 0.0941637 14.8488 0.141246C15.0875 0.235409 15.3263 0.329573 15.565 0.423737C15.9947 0.659146 16.4244 0.894555 16.7109 1.27121C16.9019 1.45954 17.0451 1.60078 17.1883 1.78911L17.2838 1.97744C17.2838 1.97744 17.2838 1.97744 17.3316 2.02452H17.3793L17.4748 1.97744C17.5703 1.93036 17.618 1.88327 17.7135 1.83619C17.9045 1.74203 18.0477 1.60078 18.2387 1.41246C18.4297 1.31829 18.6207 1.12996 18.7639 0.988719C19.0027 0.706228 19.1936 0.564982 19.4801 0.470818C19.6233 0.423737 19.7666 0.376655 19.9098 0.376655C20.1008 0.376655 20.244 0.423737 20.435 0.5179C20.5783 0.612064 20.7215 0.706228 20.817 0.800391C20.9125 0.894555 20.9602 1.0358 21.0557 1.12996C21.1989 1.36537 21.2467 1.5537 21.3422 1.78911C21.3899 1.88327 21.3899 2.02452 21.4377 2.11868V2.30701L21.3899 2.40117C21.4377 2.44826 21.4377 2.49534 21.4854 2.49534C21.4854 2.49534 21.4854 2.54242 21.5332 2.54242V2.63658H21.5809C21.5809 2.63658 21.5809 2.63658 21.6286 2.63658C21.6286 2.63658 21.6764 2.63658 21.6764 2.5895C21.7241 2.54242 21.7719 2.54242 21.7719 2.49534C21.8674 2.49534 21.9629 2.40117 22.0106 2.35409C22.1538 2.21285 22.2971 2.0716 22.4403 1.93036C22.5836 1.78911 22.7745 1.64786 22.9655 1.5537C23.1565 1.45954 23.3952 1.36537 23.6817 1.31829C23.9682 1.31829 24.2069 1.41246 24.4456 1.5537C24.6366 1.69495 24.8276 1.83619 24.9231 2.02452C25.0663 2.16576 25.1618 2.35409 25.2573 2.49534C25.305 2.63658 25.4005 2.77783 25.496 2.87199C25.5915 2.96616 25.687 3.06032 25.7825 3.1074C25.878 3.15448 25.9735 3.15448 26.1167 3.15448C26.26 3.20157 26.4032 3.15448 26.4987 3.1074C26.6419 3.01324 26.7374 2.91907 26.8329 2.82491C26.8806 2.77783 26.9284 2.73075 26.9761 2.68366L27.1194 2.54242C27.1671 2.49534 27.2149 2.44826 27.2626 2.40117C27.3581 2.30701 27.4536 2.16576 27.5491 2.0716C27.6446 1.97744 27.7401 1.88327 27.7878 1.83619C27.8833 1.74203 27.931 1.69495 28.0265 1.64786C28.0743 1.60078 28.122 1.60078 28.1698 1.5537C28.2653 1.50662 28.313 1.45954 28.4085 1.36537H28.4562C28.4562 1.36537 28.4562 1.36537 28.504 1.36537L28.5517 1.41246C28.5517 1.45954 28.5517 1.5537 28.5517 1.60078C28.5517 1.74203 28.504 1.88327 28.5995 1.83619C28.5995 1.97744 28.504 2.16576 28.4562 2.30701C28.4085 2.49534 28.3607 2.63658 28.3607 2.68366C28.4085 2.73075 28.3607 2.87199 28.313 3.01324C28.2653 3.15448 28.1698 3.34281 28.1698 3.43697C28.122 3.67238 28.0265 3.90779 27.9788 4.1432C27.4058 6.2148 27.0239 7.29769 26.9761 7.2506C26.9284 7.2506 26.9761 6.92103 27.0716 6.35605C27.1671 5.79107 27.3581 4.99068 27.5968 4.04904C27.5968 3.95487 27.5968 3.90779 27.5968 3.81363C27.5968 3.71947 27.6446 3.6253 27.7401 3.43697C27.7878 3.34281 27.7878 3.24865 27.7878 3.15448C27.7878 3.06032 27.8355 2.96616 27.8833 2.77783C27.8833 2.77783 27.8833 2.77783 27.8355 2.77783C27.8355 2.77783 27.8355 2.77783 27.7878 2.77783C27.7878 2.77783 27.7878 2.77783 27.7878 2.73075C27.7878 2.68366 27.8355 2.63658 27.8355 2.5895V2.54242C27.7878 2.5895 27.7878 2.5895 27.7401 2.63658C27.6923 2.68366 27.6446 2.73075 27.5968 2.82491C27.5491 2.91907 27.5491 2.91907 27.5013 2.96616H27.4536C27.4058 3.01324 27.3103 3.06032 27.2626 3.15448C27.1194 3.24865 26.9284 3.34281 26.7851 3.43697C26.6419 3.53114 26.4509 3.6253 26.2122 3.67238C25.9735 3.67238 25.7348 3.6253 25.5438 3.53114C25.3528 3.43697 25.1618 3.29573 25.0186 3.15448C24.9231 2.96616 24.8276 2.77783 24.7321 2.63658C24.6366 2.49534 24.5411 2.35409 24.3979 2.25993C24.3024 2.16576 24.1592 2.02452 24.0637 1.97744C23.9682 1.88327 23.8727 1.83619 23.7294 1.88327C23.634 1.88327 23.4907 1.93036 23.3475 2.02452C23.2042 2.11868 23.1088 2.21285 22.9655 2.35409C22.8223 2.5895 22.7268 2.73075 22.5836 2.87199C22.5358 2.96616 22.4403 3.01324 22.3448 3.1074C22.2971 3.15448 22.2493 3.15448 22.2016 3.20157C22.2016 3.20157 22.1538 3.24865 22.1061 3.24865L22.0106 3.29573C21.8674 3.38989 21.6764 3.48406 21.5332 3.53114C21.3422 3.53114 21.1512 3.48406 21.0557 3.38989C20.9602 3.34281 20.9125 3.24865 20.8647 3.20157C20.817 3.15448 20.817 3.1074 20.817 3.06032C20.817 3.01324 20.7692 2.96616 20.7692 2.91907V2.82491C20.7692 2.77783 20.7692 2.77783 20.7215 2.73075C20.7215 2.68366 20.6737 2.63658 20.6737 2.54242C20.6737 2.49534 20.626 2.44826 20.626 2.40117V2.21285C20.626 2.11868 20.5782 2.02452 20.5782 1.93036C20.435 1.78911 20.3873 1.60078 20.2918 1.45954C20.1963 1.31829 20.1485 1.17705 20.0531 1.12996C20.0053 1.08288 19.9576 1.08288 19.9098 1.08288C19.8621 1.08288 19.8143 1.12996 19.7188 1.17705C19.5756 1.22413 19.4324 1.36537 19.2414 1.45954C19.0981 1.60078 18.9072 1.69495 18.7639 1.88327C18.5729 2.02452 18.4297 2.16576 18.2387 2.30701C18.1432 2.40117 18.0477 2.44826 17.9523 2.54242C17.9045 2.5895 17.8568 2.63658 17.7613 2.63658H17.6658C17.618 2.63658 17.618 2.63658 17.5703 2.68366C17.5225 2.68366 17.4748 2.73075 17.4271 2.73075C17.2361 2.73075 16.9973 2.68366 16.8541 2.54242C16.7586 2.49534 16.7109 2.40117 16.6631 2.30701C16.6631 2.30701 16.6631 2.30701 16.6154 2.25993V2.21285L16.5676 2.16576C16.4244 2.02452 16.2334 1.88327 16.0424 1.78911C15.7082 1.5537 15.374 1.27121 15.0398 1.0358C14.8488 0.941637 14.6578 0.847473 14.5146 0.800391C14.3236 0.753309 14.1804 0.753309 14.0849 0.753309C14.0371 0.800391 13.9894 0.800391 13.9416 0.847473C13.8939 0.894555 13.8462 0.941637 13.7984 0.988719C13.7029 1.08288 13.6552 1.27121 13.6074 1.45954C13.6074 1.83619 13.4642 2.21285 13.5119 2.63658V2.77783C13.7507 3.01324 13.7507 3.1074 13.7984 3.20157C13.8462 3.38989 13.8939 3.57822 13.9416 3.81363C14.0849 4.19028 14.0849 4.61402 14.3236 4.99068C14.4668 5.36733 14.7533 5.6969 14.6578 6.12064C14.7533 6.30897 14.7533 6.45021 14.8011 6.63854L14.8488 6.77979V6.87395C14.8488 6.87395 14.8488 6.92103 14.8966 6.92103C14.8966 6.92103 14.8966 6.92103 14.9443 6.92103V6.96811C15.0398 6.96811 15.1353 6.96811 15.2308 6.96811C15.4218 6.96811 15.6127 6.92103 15.8037 6.92103C16.1857 6.96811 16.5199 6.96811 16.9019 6.92103C17.2361 6.87395 17.618 6.96811 17.9523 6.92103C18.2865 6.82687 18.6207 7.01519 18.9549 6.92103C19.2891 6.92103 19.5756 6.92103 19.9098 6.92103C20.1963 6.7327 20.5305 6.92103 20.817 6.92103C21.1034 6.96811 21.3899 6.77979 21.6764 6.92103C21.9629 6.77979 22.2016 6.92103 22.4881 6.92103C22.7268 6.96811 23.0133 6.87395 23.2042 6.92103C23.443 6.82687 23.6817 6.96811 23.8727 6.92103C24.1114 6.96811 24.3024 6.92103 24.4934 6.92103C24.6844 6.92103 24.8753 6.92103 25.0663 6.92103C25.2573 6.92103 25.4005 6.92103 25.5438 6.92103C26.0212 6.92103 26.3554 6.96811 26.5942 6.96811C26.6897 6.96811 26.7851 7.01519 26.8806 7.01519C26.9284 7.20352 26.9761 7.2506 26.9761 7.2506Z" fill="#44693D"/>
<path d="M26.8806 7.2506C26.8806 7.2506 26.9761 7.20352 27.1194 7.20352C27.2149 7.20352 27.3103 7.2506 27.4058 7.29769C27.5013 7.34477 27.6446 7.43893 27.7401 7.62726C27.7878 7.72142 27.8355 7.86267 27.8833 7.95683C27.931 8.09808 27.931 8.23932 27.8833 8.38057C27.8355 8.42765 27.8355 8.42765 27.8355 8.47473C27.8355 8.52181 27.8355 8.5689 27.7878 8.61598C27.7878 8.71014 27.7401 8.80431 27.6446 8.80431C27.5013 8.89847 27.3581 9.03971 27.1671 9.13388C27.0716 9.18096 26.9761 9.18096 26.8806 9.18096H26.7851C26.7374 9.18096 26.6897 9.18096 26.6419 9.22804C26.4509 9.36929 26.3077 9.08679 26.1167 9.22804C25.9257 9.27512 25.7348 9.27512 25.5438 9.22804C25.3528 9.13388 25.1618 9.22804 24.9231 9.22804C24.7321 9.08679 24.4934 9.18096 24.3024 9.22804C24.0637 9.08679 23.8727 9.08679 23.634 9.22804C23.3952 9.22804 23.1565 9.18096 22.9178 9.22804C22.679 9.22804 22.4403 9.27512 22.2016 9.22804C21.9629 9.3222 21.7241 9.3222 21.4377 9.22804C21.1989 9.3222 20.9125 9.27512 20.6737 9.22804C20.3873 9.18096 20.1485 9.3222 19.8621 9.22804C19.5756 9.22804 19.3369 9.27512 19.0504 9.22804C18.7639 9.18096 18.4775 9.13388 18.191 9.22804C17.9045 9.27512 17.618 9.27512 17.3316 9.22804C17.0451 9.36929 16.7586 9.27512 16.4244 9.22804C16.1379 9.22804 15.8037 9.18096 15.5172 9.22804C15.2308 9.22804 14.8966 9.27512 14.6101 9.22804C14.3714 9.22804 14.1804 9.13388 13.9894 9.03971C13.7984 8.94555 13.6552 8.8043 13.5119 8.61598C13.3687 8.42765 13.321 8.19224 13.321 8.00391C13.321 7.7685 13.4164 7.58018 13.5119 7.39185C13.6552 7.2506 13.7984 7.06228 13.9416 6.96811C14.0849 6.82687 14.3236 6.7327 14.5146 6.7327C14.6578 6.7327 14.7056 6.7327 14.7533 6.7327C14.8488 6.7327 14.8966 6.7327 14.992 6.7327C15.1353 6.7327 15.2785 6.7327 15.4218 6.7327C15.7082 6.7327 15.9947 6.68562 16.2812 6.7327C16.5676 6.54438 16.8541 6.77979 17.0928 6.7327C17.3793 6.82687 17.618 6.7327 17.9045 6.7327C18.191 6.68562 18.4297 6.82687 18.6684 6.7327C18.9072 6.7327 19.1936 6.68562 19.4324 6.7327C19.6711 6.63854 19.9098 6.82687 20.1485 6.7327C20.3873 6.7327 20.626 6.7327 20.8647 6.7327C21.1035 6.87395 21.2944 6.7327 21.5332 6.7327C21.7719 6.7327 21.9629 6.63854 22.1538 6.7327C22.3448 6.7327 22.5836 6.82687 22.7745 6.7327C22.9655 6.7327 23.1565 6.92103 23.3475 6.7327C23.5385 6.68562 23.7294 6.87395 23.8727 6.7327C24.0637 6.63854 24.2069 6.7327 24.3501 6.7327C24.4934 6.7327 24.6844 6.7327 24.8276 6.7327C26.1167 7.10936 26.8806 7.20352 26.8806 7.2506C26.8806 7.34477 25.9735 7.39185 24.3501 7.48601C24.2069 7.48601 24.0159 7.58018 23.8727 7.48601C23.6817 7.48601 23.5385 7.58018 23.3475 7.48601C23.1565 7.62726 22.9655 7.53309 22.7745 7.48601C22.5836 7.48601 22.3926 7.43893 22.1538 7.48601C21.9629 7.58018 21.7241 7.43893 21.5332 7.48601C21.2944 7.39185 21.1035 7.43893 20.8647 7.48601C20.626 7.39185 20.3873 7.48601 20.1485 7.48601C19.9098 7.34477 19.6711 7.43893 19.4324 7.48601C19.1936 7.53309 18.9549 7.48601 18.6684 7.48601C18.4297 7.48601 18.1432 7.53309 17.9045 7.48601C17.618 7.53309 17.3793 7.58018 17.0928 7.48601C16.8064 7.53309 16.5199 7.48601 16.2812 7.48601C15.9947 7.53309 15.7082 7.48601 15.4218 7.48601C15.2785 7.48601 15.1353 7.48601 14.992 7.43893C14.8966 7.43893 14.8488 7.43893 14.7533 7.43893C14.7056 7.43893 14.6101 7.43893 14.5623 7.48601C14.4668 7.48601 14.4191 7.53309 14.3236 7.58018C14.2759 7.62726 14.1804 7.67434 14.1804 7.7685C14.1326 7.81559 14.0849 7.90975 14.0849 8.00391C14.0849 8.09808 14.1326 8.19224 14.1804 8.23932C14.1804 8.2864 14.1804 8.33349 14.2281 8.38057C14.2759 8.42765 14.2759 8.42765 14.3236 8.47473C14.4191 8.52181 14.5146 8.52181 14.6101 8.47473C14.8966 8.42765 15.2308 8.47473 15.5172 8.47473C15.8037 8.47473 16.1379 8.47473 16.4244 8.47473C16.7109 8.42765 16.9973 8.52181 17.3316 8.47473C17.618 8.42765 17.9045 8.52181 18.191 8.47473C18.4775 8.42765 18.7639 8.42765 19.0504 8.47473C19.3369 8.47473 19.6233 8.5689 19.8621 8.47473C20.1485 8.42765 20.3873 8.2864 20.6737 8.47473C20.9602 8.42765 21.1989 8.5689 21.4377 8.47473C21.6764 8.61598 21.9629 8.47473 22.2016 8.47473C22.4403 8.52181 22.679 8.52181 22.9178 8.47473C23.1565 8.42765 23.3952 8.52181 23.634 8.47473C23.8727 8.38057 24.0637 8.5689 24.3024 8.47473C24.5411 8.47473 24.7321 8.47473 24.9231 8.47473C25.1141 8.2864 25.3528 8.47473 25.5438 8.47473C25.7348 8.52181 25.9257 8.38057 26.1167 8.47473C26.3077 8.33349 26.4987 8.47473 26.6419 8.47473C26.6897 8.47473 26.7374 8.47473 26.7851 8.47473H26.8806C26.9284 8.47473 26.9761 8.42765 27.0716 8.47473C27.1194 8.42765 27.1671 8.42765 27.2149 8.38057C27.2626 8.38057 27.3581 8.33349 27.3581 8.2864C27.4058 8.2864 27.4536 8.23932 27.5013 8.19224C27.5013 8.14516 27.5013 8.14516 27.5491 8.09808C27.5491 8.05099 27.5491 8.05099 27.5968 8.00391C27.5968 7.90975 27.5968 7.81559 27.6446 7.72142C27.6446 7.62726 27.5968 7.53309 27.5968 7.48601C27.5491 7.39185 27.4536 7.29769 27.4058 7.20352C27.3103 7.15644 27.2626 7.10936 27.1671 7.06228C26.9284 7.29769 26.8806 7.29769 26.8806 7.2506Z" fill="#44693D"/>
<path d="M4.39257 4.1432C4.39257 4.19028 4.34483 4.19028 4.20159 4.23737C4.1061 4.23737 4.05836 4.23737 3.96287 4.28445C3.86737 4.33153 3.72414 4.33153 3.62865 4.37861C3.53316 4.37861 3.43767 4.42569 3.38992 4.47277C3.34218 4.47277 3.29443 4.51986 3.24668 4.51986C3.19894 4.51986 3.15119 4.56694 3.10345 4.56694C2.96021 4.51986 2.91247 4.75527 2.76923 4.70818C2.72149 4.70818 2.67374 4.75527 2.57825 4.75527C2.5305 4.75527 2.5305 4.80235 2.48276 4.80235C2.43501 4.80235 2.43501 4.84943 2.38727 4.84943C2.29178 4.94359 2.14854 4.94359 2.05305 5.08484C2.05305 5.179 1.95756 5.179 1.86207 5.22608C1.76658 5.22608 1.71883 5.27317 1.71883 5.36733C1.67109 5.41441 1.62334 5.46149 1.5756 5.55566C1.52785 5.60274 1.48011 5.64982 1.43236 5.74399C1.33687 5.74399 1.28912 5.83815 1.24138 5.88523C1.19363 5.97939 1.19363 6.02648 1.14589 6.12064C0.954907 6.2148 0.907162 6.35605 0.907162 6.54438C0.859416 6.54438 0.811671 6.59146 0.763926 6.63854C0.71618 6.68562 0.71618 6.7327 0.668435 6.7327C0.62069 6.82687 0.668435 6.92103 0.71618 7.01519C0.668435 7.10936 0.668435 7.20352 0.62069 7.2506C0.62069 7.29769 0.572944 7.34477 0.572944 7.39185C0.572944 7.43893 0.572944 7.48601 0.572944 7.53309C0.572944 7.62726 0.572944 7.72142 0.572944 7.81559C0.572944 7.90975 0.572944 8.00391 0.572944 8.09808C0.572944 8.14516 0.62069 8.19224 0.62069 8.23932C0.62069 8.2864 0.668435 8.33349 0.668435 8.38057C0.668435 8.42765 0.668435 8.47473 0.668435 8.52181C0.668435 8.5689 0.668435 8.61598 0.62069 8.66306C0.668435 8.71014 0.668435 8.75722 0.71618 8.80431C0.71618 8.80431 0.71618 8.85139 0.71618 8.89847C0.71618 8.89847 0.71618 8.94555 0.71618 8.99263C0.71618 9.0868 0.71618 9.18096 0.71618 9.32221C0.71618 9.41637 0.763926 9.51053 0.859416 9.6047C0.907162 9.69886 1.00265 9.79302 1.00265 9.88719L1.0504 9.98135L1.09814 10.0284C1.14589 10.0755 1.14589 10.1226 1.19363 10.1697C1.24138 10.2638 1.33687 10.358 1.38462 10.4522C1.38462 10.4993 1.43236 10.5463 1.48011 10.5934C1.52785 10.6405 1.52785 10.6876 1.5756 10.7347C1.62334 10.7817 1.67109 10.8288 1.71883 10.8759C1.76658 10.923 1.81432 10.923 1.86207 10.9701C1.95756 11.0172 2.05305 11.1113 2.14854 11.1584C2.24403 11.2055 2.33952 11.2996 2.38727 11.3938C2.62599 11.3938 2.81698 11.5351 3.00796 11.7234C3.0557 11.7234 3.10345 11.7705 3.15119 11.7705C3.19894 11.7705 3.24668 11.8175 3.29443 11.8175C3.38992 11.8646 3.53316 11.9117 3.62865 11.8646C3.72414 11.9117 3.86737 11.9117 3.96287 11.9117C4.05836 11.9117 4.20159 11.9117 4.29708 11.9588C4.44032 11.9588 4.53581 12.0059 4.67905 11.9588C4.82228 11.9588 4.91777 11.9117 5.01326 11.8646C5.10875 11.8175 5.25199 11.7705 5.34748 11.7705C5.39523 11.7705 5.44297 11.7705 5.53846 11.7234C5.58621 11.7234 5.63395 11.6763 5.6817 11.6763C5.72944 11.6763 5.72944 11.6763 5.77719 11.6763C5.82493 11.6763 5.82493 11.6763 5.87268 11.6292C5.92042 11.6292 5.96817 11.5821 6.01592 11.5351L6.11141 11.4409C6.15915 11.3938 6.2069 11.3938 6.25464 11.3467C6.35013 11.2996 6.44562 11.2526 6.54111 11.1584C6.63661 11.1113 6.7321 11.0172 6.77984 10.923C6.82759 10.8759 6.87533 10.8288 6.87533 10.7817C6.92308 10.7347 6.92308 10.6876 6.97082 10.6405C7.01857 10.5934 7.06631 10.5463 7.06631 10.5463C7.11406 10.4993 7.1618 10.4522 7.1618 10.4522C7.1618 10.3109 7.20955 10.2168 7.30504 10.1697C7.35279 10.1226 7.40053 10.0755 7.44828 10.0755L7.49602 10.0284C7.49602 10.0284 7.54377 9.98135 7.54377 9.93427C7.63926 9.84011 7.687 9.74594 7.687 9.65178C7.73475 9.55761 7.73475 9.46345 7.78249 9.36929C7.78249 9.27512 7.83024 9.18096 7.87798 9.0868C7.87798 9.03971 7.87798 9.03971 7.92573 8.99263C7.92573 8.94555 7.92573 8.94555 7.92573 8.89847C7.92573 8.85139 7.92573 8.8043 7.92573 8.75722C7.92573 8.71014 7.92573 8.66306 7.92573 8.61598C7.92573 8.5689 7.92573 8.52181 7.92573 8.47473C7.92573 8.42765 7.92573 8.38057 7.92573 8.33349C7.92573 8.2864 7.92573 8.23932 7.97347 8.19224C7.92573 8.09808 7.92573 8.00391 7.97347 7.90975C7.97347 7.81559 7.97347 7.72142 7.97347 7.62726C7.97347 7.58018 7.97347 7.53309 7.97347 7.48601C7.97347 7.43893 7.97347 7.39185 7.92573 7.34477C7.87798 7.2506 7.87798 7.15644 7.87798 7.06228C7.92573 6.96811 7.87798 6.87395 7.83024 6.77979C7.83024 6.7327 7.78249 6.68562 7.73475 6.68562C7.687 6.63854 7.687 6.63854 7.63926 6.59146C7.59151 6.40313 7.40053 6.35605 7.40053 6.16772C7.35279 6.07356 7.30504 6.02648 7.30504 5.93231C7.2573 5.83815 7.20955 5.79107 7.1618 5.74399C7.11406 5.6969 7.06631 5.60274 7.06631 5.50858C7.01857 5.41441 6.97082 5.36733 6.87533 5.41441C6.82759 5.36733 6.77984 5.32025 6.7321 5.22608C6.68435 5.179 6.63661 5.13192 6.54111 5.13192C6.35013 5.13192 6.30239 4.99067 6.2069 4.89651C6.15915 4.89651 6.15915 4.84943 6.11141 4.84943C6.06366 4.84943 6.06366 4.80235 6.01592 4.80235C6.15915 4.75527 6.11141 4.75527 6.01592 4.70818C5.53846 4.47277 5.10875 4.37861 4.82228 4.28445C4.58356 4.23737 4.39257 4.19028 4.39257 4.1432C4.39257 4.1432 4.44032 4.09612 4.53581 4.09612C4.58355 4.09612 4.6313 4.09612 4.72679 4.09612C4.77454 4.09612 4.82228 4.09612 4.82228 4.09612C4.87003 4.09612 4.91777 4.09612 4.96552 4.09612C5.34748 4.09612 5.92042 4.19028 6.58886 4.51986C6.7321 4.56694 6.92308 4.56694 6.97082 4.75527C7.01857 4.80235 7.11406 4.84943 7.1618 4.89651C7.25729 4.94359 7.30504 4.99067 7.35279 5.08484C7.44828 5.08484 7.54377 5.13192 7.59151 5.22608C7.63926 5.32025 7.687 5.36733 7.73475 5.46149C7.78249 5.50858 7.83024 5.60274 7.87798 5.6969C7.92573 5.79107 7.97347 5.83815 8.06897 5.88523C8.2122 6.02648 8.25995 6.2148 8.35544 6.40313C8.35544 6.45021 8.35544 6.49729 8.40318 6.54438C8.40318 6.59146 8.45093 6.63854 8.45093 6.68562C8.49867 6.77979 8.54642 6.87395 8.64191 6.96811C8.64191 7.06228 8.64191 7.20352 8.68966 7.29769C8.68966 7.34477 8.7374 7.39185 8.7374 7.43893C8.7374 7.48601 8.78515 7.53309 8.78515 7.58018C8.7374 7.72142 8.7374 7.81559 8.78515 7.90975C8.78515 8.00391 8.83289 8.14516 8.88064 8.23932C8.88064 8.2864 8.88064 8.33349 8.88064 8.42765C8.88064 8.47473 8.88064 8.52181 8.88064 8.61598C8.88064 8.66306 8.88064 8.71014 8.88064 8.80431C8.88064 8.85139 8.88064 8.89847 8.88064 8.99263C8.88064 9.03971 8.83289 9.08679 8.83289 9.18096V9.36929C8.83289 9.51053 8.78515 9.6047 8.7374 9.74594C8.7374 9.88719 8.68966 9.98135 8.64191 10.1226C8.59416 10.2638 8.54642 10.358 8.45093 10.4522C8.45093 10.4993 8.45093 10.4993 8.40318 10.5463C8.40318 10.5934 8.35544 10.5934 8.35544 10.6405C8.30769 10.6876 8.30769 10.7347 8.25995 10.8288C8.2122 10.923 8.11671 11.0172 8.02122 11.1584C7.97347 11.2055 7.97347 11.2526 7.92573 11.3467C7.87798 11.3938 7.83024 11.4409 7.78249 11.488C7.73475 11.5351 7.687 11.5821 7.63926 11.6292C7.59151 11.6763 7.54377 11.7234 7.49602 11.7705C7.40053 11.8646 7.30504 11.9588 7.1618 12.0059C7.01857 12.053 6.92308 12.1471 6.82759 12.2884C6.58886 12.4296 6.35013 12.5238 6.06366 12.665L5.87268 12.7121C5.82493 12.7121 5.72944 12.7592 5.6817 12.7592C5.53846 12.8063 5.39523 12.8533 5.25199 12.9004C5.10875 12.8533 4.96552 12.8533 4.82228 12.9004C4.67905 12.9004 4.53581 12.9475 4.39257 12.9946C4.24934 12.9946 4.1061 12.9946 3.96287 12.9946C3.81963 12.9946 3.67639 12.9475 3.53316 12.9004C3.38992 12.9004 3.24668 12.8533 3.10345 12.8063C3.0557 12.8063 2.96021 12.7592 2.91247 12.7592C2.86472 12.7121 2.76923 12.7121 2.72149 12.665C2.67374 12.665 2.57825 12.6179 2.5305 12.5709C2.48276 12.5238 2.38727 12.5238 2.33952 12.4767L2.24403 12.4296C2.19629 12.4296 2.19629 12.3825 2.14854 12.3825C2.1008 12.3354 2.00531 12.3354 1.95756 12.2884C1.81432 12.2413 1.71883 12.1471 1.62334 12.053C1.52785 11.9588 1.43236 11.8646 1.33687 11.7705C1.28912 11.7234 1.24138 11.6763 1.19363 11.6292C1.14589 11.5821 1.09814 11.5351 1.0504 11.488C1.00265 11.4409 0.954907 11.3938 0.907162 11.3467C0.859416 11.2996 0.859416 11.2526 0.811671 11.1584C0.71618 11.0642 0.668435 10.923 0.62069 10.8288C0.572944 10.7817 0.572944 10.7347 0.525199 10.6405C0.525199 10.5934 0.477454 10.5934 0.477454 10.5463C0.477454 10.4993 0.429708 10.4993 0.429708 10.4993C0.381963 10.4051 0.286472 10.3109 0.190981 10.1697C0.143236 10.0755 0.0954907 9.93427 0.143236 9.79302C0.0954907 9.69886 0.0954907 9.55761 0.0477454 9.41637C0.0477454 9.36929 0.0477454 9.36929 0.0477454 9.32221C0.0477454 9.27512 0.0477454 9.27512 0.0477454 9.22804C0.0477454 9.18096 0.0477454 9.13388 0 9.03971C0.0477454 8.99263 0.0477454 8.89847 0.0477454 8.85139C0.0477454 8.80431 0.0477454 8.75722 0.0477454 8.66306C0.0477454 8.61598 0 8.5689 0 8.47473C0 8.42765 0 8.38057 0 8.2864C0 8.19224 0.0477454 8.05099 0.0477454 7.95683C0.0477454 7.86267 0.0954907 7.72142 0.0477454 7.62726C0.0477454 7.58018 0.0477454 7.53309 0.0477454 7.43893C0.0477454 7.39185 0.0954907 7.34477 0.0954907 7.29769C0.143236 7.20352 0.190981 7.10936 0.190981 7.01519C0.190981 6.92103 0.238727 6.82687 0.286472 6.7327C0.334218 6.68562 0.334218 6.63854 0.381963 6.59146C0.381963 6.40313 0.381963 6.35605 0.381963 6.30897C0.477454 6.12064 0.572944 5.97939 0.668435 5.79107C0.668435 5.64982 0.71618 5.60274 0.763926 5.50858C0.859416 5.46149 0.954907 5.41441 1.00265 5.36733C1.0504 5.32025 1.09814 5.22608 1.14589 5.13192C1.19363 5.03776 1.24138 4.99068 1.38462 4.99068C1.38462 4.89651 1.48011 4.80235 1.52785 4.80235C1.67109 4.80235 1.76658 4.75527 1.81432 4.75527C1.95756 4.70818 2.05305 4.51986 2.19629 4.51986C2.19629 4.47277 2.24403 4.47278 2.29178 4.42569C2.33952 4.42569 2.33952 4.42569 2.38727 4.37861C2.48276 4.37861 2.5305 4.37861 2.57825 4.33153C2.72149 4.33153 2.81698 4.23737 2.91247 4.19028C2.96021 4.1432 3.00796 4.1432 3.0557 4.1432C3.10345 4.1432 3.15119 4.1432 3.19894 4.1432C3.29443 4.1432 3.38992 4.09612 3.48541 4.09612C3.62865 4.09612 3.72414 4.09612 3.86737 4.09612C3.96287 4.09612 4.05836 4.09612 4.15385 4.09612C4.34483 4.09612 4.39257 4.1432 4.39257 4.1432Z" fill="#44693D"/>
<path d="M4.39257 5.50858C4.39257 5.55566 4.34483 5.55566 4.24934 5.60274C4.20159 5.60274 4.15385 5.64982 4.1061 5.64982C4.05836 5.64982 3.96287 5.6969 3.91512 5.6969C3.86737 5.6969 3.81963 5.74399 3.72414 5.74399C3.67639 5.74399 3.67639 5.79107 3.62865 5.79107C3.5809 5.79107 3.5809 5.83815 3.53316 5.83815C3.43767 5.79107 3.43767 5.97939 3.34218 5.93231C3.24668 5.93231 3.19894 5.97939 3.15119 6.07356C3.10345 6.12064 2.96021 6.12064 2.96021 6.2148C2.96021 6.30897 2.91247 6.30897 2.86472 6.30897C2.81698 6.30897 2.76923 6.30897 2.76923 6.40313C2.76923 6.45021 2.72149 6.49729 2.67374 6.49729C2.626 6.54438 2.62599 6.54438 2.57825 6.59146C2.48276 6.59146 2.48276 6.63854 2.43501 6.68562C2.43501 6.7327 2.38727 6.77979 2.38727 6.82687C2.24403 6.87395 2.19629 6.96811 2.24403 7.10936C2.14854 7.10936 2.1008 7.15644 2.05305 7.20352C2.05305 7.2506 2.05305 7.34477 2.1008 7.39185C2.1008 7.43893 2.05305 7.48601 2.05305 7.53309C2.05305 7.58018 2.05305 7.58018 2.05305 7.62726C2.05305 7.67434 2.05305 7.67434 2.05305 7.72142C2.05305 7.7685 2.05305 7.86267 2.05305 7.90975C2.05305 7.95683 2.05305 8.05099 2.05305 8.09808C2.1008 8.14516 2.14854 8.23932 2.14854 8.2864C2.14854 8.33349 2.14854 8.33349 2.14854 8.38057C2.14854 8.42765 2.14854 8.42765 2.1008 8.47473C2.24403 8.5689 2.19629 8.71014 2.19629 8.85139C2.19629 8.94555 2.24403 8.99263 2.29178 9.03971C2.24403 9.18096 2.29178 9.22804 2.29178 9.32221C2.29178 9.36929 2.33952 9.41637 2.38727 9.51053C2.43501 9.55761 2.48276 9.6047 2.48276 9.69886C2.48276 9.74594 2.48276 9.74594 2.5305 9.79302C2.5305 9.84011 2.57825 9.84011 2.57825 9.88719C2.57825 9.93427 2.626 9.93427 2.67374 9.98135C2.72149 9.93427 2.76923 9.93427 2.81698 9.93427C2.86472 9.98135 2.96021 10.0284 3.00796 10.0284C3.0557 10.0755 3.10345 10.1226 3.15119 10.1697C3.34218 10.1226 3.43767 10.2638 3.53316 10.358C3.62865 10.358 3.67639 10.4051 3.72414 10.4522C3.77188 10.4993 3.86737 10.4993 3.96287 10.4993C4.05836 10.4993 4.1061 10.4993 4.20159 10.4993C4.29708 10.4993 4.34483 10.4993 4.44032 10.5463C4.53581 10.5463 4.58356 10.5934 4.67905 10.5934C4.77454 10.5934 4.82228 10.5463 4.91777 10.4993C4.96552 10.4522 5.06101 10.4522 5.10875 10.4522C5.20424 10.4522 5.25199 10.4522 5.29973 10.4051C5.34748 10.4051 5.39523 10.4051 5.39523 10.4051C5.44297 10.4051 5.44297 10.358 5.49072 10.358L5.58621 10.2638C5.63395 10.2168 5.63395 10.2168 5.6817 10.2168C5.72944 10.1697 5.82493 10.1226 5.87268 10.1226C5.92042 10.0755 6.01592 10.0284 6.01592 9.98135C6.01592 9.93427 6.06366 9.93427 6.06366 9.88719C6.06366 9.84011 6.11141 9.84011 6.11141 9.79302C6.11141 9.74594 6.15915 9.74594 6.2069 9.69886C6.25464 9.65178 6.25464 9.65178 6.30239 9.65178C6.25464 9.55761 6.30239 9.51053 6.39788 9.46345C6.44562 9.46345 6.44562 9.41637 6.49337 9.41637C6.49337 9.41637 6.54111 9.41637 6.54111 9.36929V9.32221C6.58886 9.27512 6.63661 9.22804 6.63661 9.13388C6.63661 9.08679 6.6366 8.99263 6.68435 8.94555C6.68435 8.89847 6.7321 8.8043 6.7321 8.75722C6.77984 8.71014 6.77984 8.61598 6.77984 8.5689C6.77984 8.52181 6.77984 8.52181 6.77984 8.47473C6.77984 8.42765 6.77984 8.42765 6.77984 8.38057C6.77984 8.33349 6.77984 8.23932 6.82759 8.19224C6.77984 8.14516 6.77984 8.05099 6.82759 8.00391C6.82759 7.95683 6.87533 7.86267 6.82759 7.81559C6.82759 7.7685 6.82759 7.7685 6.82759 7.72142C6.82759 7.67434 6.82759 7.67434 6.82759 7.62726C6.82759 7.58018 6.82759 7.53309 6.77984 7.43893C6.82759 7.34477 6.82759 7.29769 6.77984 7.2506C6.7321 7.20352 6.68435 7.15644 6.68435 7.10936C6.6366 7.01519 6.49337 6.96811 6.54111 6.82687C6.49337 6.77979 6.49337 6.7327 6.49337 6.68562C6.49337 6.63854 6.44562 6.59146 6.39788 6.59146C6.35013 6.54438 6.35013 6.49729 6.35013 6.45021C6.35013 6.40313 6.30239 6.35605 6.2069 6.40313C6.15915 6.40313 6.15915 6.30897 6.11141 6.26188C6.11141 6.2148 6.06366 6.16772 5.96817 6.2148C5.82493 6.26189 5.82493 6.12064 5.77719 6.07356C5.72944 6.02648 5.63395 5.97939 5.58621 5.93231C5.1565 5.79107 4.87003 5.6969 4.67905 5.64982C4.48806 5.60274 4.39257 5.55566 4.39257 5.50858C4.39257 5.50858 4.44032 5.46149 4.48806 5.46149C4.53581 5.46149 4.58355 5.46149 4.6313 5.46149C4.67905 5.46149 4.72679 5.46149 4.82228 5.46149C5.06101 5.46149 5.49072 5.50858 5.92042 5.74399C6.01592 5.79107 6.15915 5.74398 6.2069 5.88523C6.25464 5.93231 6.30239 5.93231 6.35013 5.97939C6.39788 6.02648 6.44562 6.02648 6.49337 6.12064C6.58886 6.12064 6.6366 6.16772 6.68435 6.2148C6.7321 6.26189 6.7321 6.30897 6.77984 6.35605C6.82759 6.40313 6.87533 6.45021 6.87533 6.49729C6.92308 6.54438 6.97082 6.59146 7.01857 6.63854C7.1618 6.7327 7.11406 6.87395 7.20955 6.96811C7.20955 7.06228 7.20955 7.10936 7.2573 7.15644C7.30504 7.20352 7.35279 7.29769 7.40053 7.34477C7.40053 7.43893 7.40053 7.48601 7.44828 7.58018C7.44828 7.62726 7.49602 7.62726 7.49602 7.67434C7.49602 7.72142 7.54377 7.7685 7.54377 7.7685C7.49602 7.86267 7.49602 7.90975 7.49602 8.00391C7.49602 8.09808 7.54377 8.14516 7.59151 8.23932C7.63926 8.33349 7.59151 8.38057 7.59151 8.47473C7.59151 8.52181 7.59151 8.5689 7.59151 8.61598C7.59151 8.66306 7.59151 8.71014 7.59151 8.75722C7.54377 8.89847 7.54377 9.08679 7.49602 9.22804C7.49602 9.3222 7.49602 9.41637 7.44828 9.51053C7.40053 9.6047 7.35279 9.65178 7.30504 9.74594V9.79302C7.30504 9.79302 7.30504 9.84011 7.2573 9.84011C7.2573 9.88719 7.20955 9.93427 7.20955 9.93427C7.1618 10.0284 7.11406 10.0755 7.06631 10.1697C7.06631 10.2168 7.01857 10.2638 7.01857 10.3109C6.97082 10.358 6.97082 10.358 6.92308 10.4051H6.63661C6.58886 10.4522 6.58886 10.4522 6.54111 10.4993C6.49337 10.5934 6.39788 10.5934 6.30239 10.6405C6.2069 10.6876 6.15915 10.7347 6.11141 10.8288C5.96817 10.9701 5.77719 11.0172 5.58621 11.1113C5.49072 11.1584 5.39523 11.1584 5.29973 11.2055C5.20424 11.2055 5.10875 11.2526 5.01326 11.2996C4.91777 11.2526 4.82228 11.2526 4.72679 11.2526C4.6313 11.2526 4.53581 11.2996 4.44032 11.3467C4.34483 11.3467 4.24934 11.3467 4.15385 11.3467C4.05836 11.3467 3.96287 11.2996 3.86737 11.2996C3.77188 11.2996 3.67639 11.2526 3.5809 11.2526C3.48541 11.2055 3.38992 11.2055 3.29443 11.1584C3.24668 11.1584 3.19894 11.1113 3.15119 11.1113C3.10345 11.1113 3.0557 11.0642 3.00796 11.0172L2.91247 10.923C2.81698 10.923 2.76923 10.8759 2.72149 10.8759C2.62599 10.8759 2.57825 10.7817 2.48276 10.6876C2.43501 10.6405 2.33952 10.5463 2.24403 10.4993C2.19629 10.4522 2.14854 10.4522 2.1008 10.4051C2.05305 10.358 2.05305 10.358 2.00531 10.3109C1.95756 10.2638 1.95756 10.2638 1.90981 10.2168C1.90981 10.1697 1.86207 10.1226 1.86207 10.0755C1.81432 10.0284 1.81432 9.93427 1.76658 9.84011C1.71883 9.74594 1.67109 9.69886 1.62334 9.65178C1.5756 9.55761 1.48011 9.51053 1.43236 9.46345C1.38462 9.36929 1.38462 9.27512 1.43236 9.18096C1.38462 9.08679 1.38462 8.99263 1.33687 8.89847V8.80431C1.33687 8.75722 1.33687 8.71014 1.28912 8.66306C1.33687 8.61598 1.33687 8.5689 1.33687 8.52181C1.33687 8.47473 1.33687 8.42765 1.33687 8.38057C1.33687 8.2864 1.28912 8.23932 1.28912 8.14516C1.28912 8.09808 1.33687 8.05099 1.33687 7.95683C1.33687 7.86267 1.38462 7.81559 1.33687 7.72142C1.33687 7.67434 1.33687 7.62726 1.33687 7.62726C1.33687 7.58018 1.38462 7.53309 1.38462 7.53309C1.43236 7.48601 1.43236 7.39185 1.48011 7.34477C1.48011 7.2506 1.52785 7.20352 1.5756 7.15644C1.62334 7.10936 1.67109 7.06228 1.67109 6.96811C1.71883 6.82687 1.81432 6.7327 1.86207 6.63854C1.81432 6.54438 1.86207 6.49729 1.90981 6.45021C1.95756 6.40313 2.05305 6.40313 2.1008 6.35605C2.14854 6.30897 2.14854 6.26189 2.19629 6.2148C2.24403 6.16772 2.29178 6.12064 2.33952 6.12064C2.33952 6.02648 2.38727 5.97939 2.43501 5.97939C2.48276 5.97939 2.57825 5.97939 2.62599 5.93231C2.72149 5.79107 2.76923 5.64982 2.91247 5.6969C2.91247 5.64982 2.96021 5.60274 3.0557 5.60274C3.10345 5.60274 3.15119 5.60274 3.19894 5.55566C3.29443 5.55566 3.34218 5.50858 3.43767 5.46149C3.48541 5.41441 3.48541 5.41441 3.53316 5.41441C3.5809 5.41441 3.62865 5.41441 3.62865 5.41441C3.67639 5.41441 3.77188 5.41441 3.81963 5.36733C3.91512 5.36733 4.01061 5.36733 4.05836 5.36733C4.1061 5.36733 4.20159 5.36733 4.24934 5.36733C4.34483 5.46149 4.39257 5.50858 4.39257 5.50858Z" fill="#44693D"/>
<path d="M27.0239 37.2888C27.0239 37.3359 26.8329 37.383 26.4509 37.4301C26.4032 37.4301 26.3077 37.4301 26.2599 37.4301C26.2122 37.4301 26.1167 37.4771 26.0212 37.4301C25.9257 37.383 25.878 37.5713 25.7825 37.4301C25.687 37.383 25.5915 37.4301 25.496 37.4301C25.4005 37.4301 25.305 37.383 25.2096 37.4301C25.1141 37.5713 24.9708 37.2888 24.8753 37.4301C24.7798 37.4771 24.6366 37.4771 24.5411 37.4301C24.3979 37.3359 24.3024 37.4301 24.1592 37.4301C24.0159 37.3359 23.9204 37.383 23.7772 37.4301C23.634 37.2888 23.4907 37.2888 23.3475 37.4301C23.2042 37.4301 23.061 37.383 22.9178 37.4301C22.7745 37.4301 22.6313 37.4771 22.4881 37.4301C22.3448 37.5242 22.2016 37.5242 22.0106 37.4301C21.8674 37.5242 21.6764 37.4771 21.5332 37.4301C21.3899 37.383 21.1989 37.5242 21.0557 37.4301C20.8647 37.4301 20.7215 37.4771 20.5305 37.4301C20.3395 37.383 20.1963 37.3359 20.0053 37.4301C19.8143 37.4771 19.6711 37.4771 19.4801 37.4301C19.2891 37.5713 19.0981 37.4771 18.9549 37.4301C18.7639 37.4301 18.5729 37.383 18.382 37.4301C18.191 37.4301 18 37.4771 17.809 37.4301C17.618 37.383 17.4271 37.3359 17.2361 37.4301C17.0451 37.5242 16.8541 37.383 16.6631 37.4301C16.4721 37.3359 16.2812 37.4771 16.1379 37.4301C15.9469 37.4301 15.756 37.383 15.6127 37.4301C15.4218 37.4301 15.2785 37.4771 15.0875 37.4301C14.8966 37.6184 14.7533 37.383 14.5623 37.4301C14.3714 37.3359 14.2281 37.4301 14.0849 37.4301C13.9416 37.4771 13.7507 37.3359 13.6074 37.4301C13.4642 37.4301 13.2732 37.4771 13.13 37.4301C12.9867 37.5242 12.8435 37.3359 12.7003 37.4301C12.557 37.4301 12.4138 37.4301 12.2706 37.4301C12.1273 37.2888 11.9841 37.383 11.8408 37.4301C11.6976 37.4301 11.5544 37.5242 11.4589 37.4301C11.3157 37.4301 11.2202 37.3359 11.0769 37.4301C10.9337 37.4301 10.8382 37.2417 10.7427 37.4301C10.6472 37.4771 10.504 37.2888 10.4085 37.4301C10.313 37.5242 10.2175 37.4301 10.122 37.4301C10.0265 37.4301 9.93104 37.4301 9.83554 37.4301C9.02387 37.383 8.59416 37.2888 8.59416 37.2417C8.59416 37.1476 9.16711 37.1005 10.122 37.0063C10.2175 37.0063 10.313 36.9122 10.4085 37.0063C10.504 37.0063 10.6472 36.9122 10.7427 37.0063C10.8382 36.8651 10.9814 36.9592 11.0769 37.0063C11.2202 37.0063 11.3157 37.0534 11.4589 37.0063C11.6021 36.9122 11.6976 37.0534 11.8408 37.0063C11.9841 37.1005 12.1273 37.0534 12.2706 37.0063C12.4138 37.1005 12.557 37.0063 12.7003 37.0063C12.8435 37.1476 12.9867 37.0534 13.13 37.0063C13.2732 36.9592 13.4164 37.0063 13.6074 37.0063C13.7507 37.0063 13.9416 36.9592 14.0849 37.0063C14.2281 36.9592 14.4191 36.9122 14.5623 37.0063C14.7533 36.9592 14.8966 37.0063 15.0875 37.0063C15.2785 36.9592 15.4218 37.0063 15.6127 37.0063C15.8037 36.9592 15.9469 37.1476 16.1379 37.0063C16.3289 37.0063 16.5199 37.0063 16.6631 37.0063C16.8541 37.0063 17.0451 37.0534 17.2361 37.0063C17.4271 37.1476 17.618 37.0534 17.809 37.0063C18 36.9592 18.191 37.0063 18.382 37.0063C18.5729 37.0063 18.7639 37.0063 18.9549 37.0063C19.1459 36.9592 19.3369 37.0534 19.4801 37.0063C19.6711 36.9592 19.8621 37.0534 20.0053 37.0063C20.1963 36.9592 20.3395 36.9592 20.5305 37.0063C20.7215 37.0063 20.8647 37.1005 21.0557 37.0063C21.2467 36.9592 21.3899 36.818 21.5332 37.0063C21.6764 36.9592 21.8674 37.1005 22.0106 37.0063C22.1538 37.1476 22.3448 37.0063 22.4881 37.0063C22.6313 37.0534 22.7745 37.0534 22.9178 37.0063C23.061 36.9592 23.2042 37.0534 23.3475 37.0063C23.4907 36.9122 23.634 37.1005 23.7772 37.0063C23.9204 37.0063 24.0637 37.0063 24.1592 37.0063C24.3024 36.818 24.3979 37.0063 24.5411 37.0063C24.6843 37.0534 24.7798 36.8651 24.8753 37.0063C24.9708 36.8651 25.1141 37.0063 25.2096 37.0063C25.305 37.0534 25.4005 36.9592 25.496 37.0063C25.5915 36.9122 25.687 37.0534 25.7825 37.0063C25.878 37.0534 25.9735 37.0063 26.0212 37.0063C26.1167 37.0063 26.1645 37.0063 26.2599 37.0063C26.3077 37.0063 26.4032 37.0063 26.4509 37.0063C26.7851 37.1947 27.0239 37.2417 27.0239 37.2888Z" fill="#44693D"/>
<path d="M33.756 39.7842C33.756 39.8312 33.565 39.8783 33.183 39.9254C33.1353 39.9254 33.0398 39.9254 32.992 39.9254C32.9443 39.9254 32.8488 39.9725 32.7533 39.9254C32.6578 39.8783 32.6101 40.0666 32.5146 39.9254C32.4191 39.8783 32.3236 39.9254 32.2281 39.9254C32.1326 39.9254 32.0371 39.8783 31.9416 39.9254C31.8462 40.0666 31.7029 39.7842 31.6074 39.9254C31.5119 39.9725 31.3687 39.9725 31.2732 39.9254C31.13 39.8312 31.0345 39.9254 30.8912 39.9254C30.748 39.8312 30.6525 39.8783 30.5093 39.9254C30.366 39.7842 30.2228 39.7842 30.0796 39.9254C29.9363 39.9254 29.7931 39.8783 29.6499 39.9254C29.5066 39.9254 29.3634 39.9725 29.2202 39.9254C29.0769 40.0196 28.9337 40.0196 28.7427 39.9254C28.5995 40.0196 28.4085 39.9725 28.2653 39.9254C28.122 39.8783 27.931 40.0196 27.7878 39.9254C27.5968 39.9254 27.4536 39.9725 27.2626 39.9254C27.0716 39.8783 26.9284 39.8312 26.7374 39.9254C26.5464 39.9725 26.4032 39.9725 26.2122 39.9254C26.0212 40.0666 25.8302 39.9725 25.687 39.9254C25.496 39.9254 25.305 39.8783 25.1141 39.9254C24.9231 39.9254 24.7321 39.9725 24.5411 39.9254C24.3501 39.8783 24.1592 39.8312 23.9682 39.9254C23.7772 40.0196 23.5862 39.8783 23.3952 39.9254C23.2042 39.8312 23.0133 39.9725 22.87 39.9254C22.679 39.9254 22.4881 39.8783 22.3448 39.9254C22.1538 39.9254 22.0106 39.9725 21.8196 39.9254C21.6286 40.1137 21.4854 39.8783 21.2944 39.9254C21.1034 39.8312 20.9602 39.9254 20.817 39.9254C20.6737 39.9725 20.4828 39.8312 20.3395 39.9254C20.1963 39.9254 20.0053 39.9725 19.8621 39.9254C19.7188 40.0196 19.5756 39.8312 19.4324 39.9254C19.2891 39.9254 19.1459 39.9254 19.0027 39.9254C18.8594 39.7842 18.7162 39.9254 18.5729 39.9254C18.4297 39.9254 18.2865 40.0196 18.191 39.9254C18.0477 39.9254 17.9523 39.8312 17.809 39.9254C17.6658 39.9254 17.5703 39.7371 17.4748 39.9254C17.3793 39.9725 17.2361 39.7842 17.1406 39.9254C17.0451 40.0196 16.9496 39.9254 16.8541 39.9254C16.7586 39.9254 16.6631 39.9254 16.5676 39.9254C15.6605 39.9254 15.183 39.8783 15.183 39.7842C15.183 39.69 15.756 39.6429 16.7109 39.5487C16.8064 39.5487 16.9019 39.4546 16.9973 39.5487C17.0928 39.5487 17.1883 39.4546 17.3316 39.5487C17.4271 39.4075 17.5703 39.5017 17.6658 39.5487C17.809 39.5487 17.9045 39.5958 18.0477 39.5487C18.191 39.4546 18.2865 39.5958 18.4297 39.5487C18.5729 39.6429 18.7162 39.5958 18.8594 39.5487C19.0027 39.6429 19.1459 39.5487 19.2891 39.5487C19.4324 39.69 19.5756 39.5958 19.7188 39.5487C19.8621 39.5017 20.0053 39.5487 20.1963 39.5487C20.3395 39.5487 20.5305 39.5017 20.6737 39.5487C20.817 39.5017 21.008 39.4546 21.1512 39.5487C21.3422 39.5017 21.4854 39.5487 21.6764 39.5487C21.8674 39.5017 22.0106 39.5487 22.2016 39.5487C22.3926 39.5017 22.5358 39.69 22.7268 39.5487C22.9178 39.5487 23.1088 39.5487 23.252 39.5487C23.443 39.5487 23.634 39.5958 23.8249 39.5487C24.0159 39.69 24.2069 39.5958 24.3979 39.5487C24.5889 39.5017 24.7798 39.5487 24.9708 39.5487C25.1618 39.5487 25.3528 39.5487 25.5438 39.5487C25.7348 39.5017 25.9257 39.5958 26.069 39.5487C26.2599 39.5017 26.4509 39.5958 26.5942 39.5487C26.7851 39.5017 26.9284 39.5017 27.1194 39.5487C27.3103 39.5487 27.4536 39.6429 27.6446 39.5487C27.8355 39.5017 27.9788 39.3604 28.122 39.5487C28.2653 39.5017 28.4562 39.6429 28.5995 39.5487C28.7427 39.69 28.9337 39.5487 29.0769 39.5487C29.2202 39.5958 29.3634 39.5958 29.5066 39.5487C29.6499 39.5017 29.7931 39.5958 29.9363 39.5487C30.0796 39.4546 30.2228 39.6429 30.366 39.5487C30.5093 39.5487 30.6525 39.5487 30.748 39.5487C30.8912 39.3604 30.9867 39.5487 31.13 39.5487C31.2732 39.5958 31.3687 39.4546 31.4642 39.5487C31.5597 39.4075 31.7029 39.5487 31.7984 39.5487C31.8939 39.5958 31.9894 39.5017 32.0849 39.5487C32.1804 39.4546 32.2759 39.5958 32.3714 39.5487C32.4668 39.5958 32.5623 39.5487 32.6101 39.5487C32.7056 39.5487 32.7533 39.5487 32.8488 39.5487C32.9443 39.5487 32.992 39.5487 33.0398 39.5487C33.5172 39.69 33.756 39.7371 33.756 39.7842Z" fill="#44693D"/>
<path d="M33.3263 21.9401C33.2785 21.9401 33.2308 21.7989 33.183 21.5164C33.183 21.4693 33.183 21.4222 33.183 21.3752C33.183 21.3281 33.183 21.281 33.183 21.2339C33.2308 21.1868 33.0875 21.1397 33.183 21.0456C33.2308 20.9985 33.183 20.9043 33.183 20.8573C33.183 20.8102 33.2308 20.716 33.183 20.6689C33.0398 20.5748 33.3263 20.5277 33.183 20.4335C33.1353 20.3394 33.1353 20.2923 33.183 20.1981C33.2785 20.1039 33.183 20.0098 33.183 19.9627C33.2785 19.8685 33.2308 19.7744 33.183 19.6802C33.3263 19.586 33.3263 19.4919 33.1353 19.3977C33.1353 19.3036 33.183 19.2094 33.0875 19.1152C33.0875 19.0211 33.0398 18.9269 33.0398 18.8327C32.9443 18.7386 32.9443 18.6444 32.992 18.5032C32.8488 18.409 32.8965 18.3148 32.9443 18.1736C32.992 18.0794 32.8011 17.9853 32.8966 17.844C32.8966 17.7499 32.8488 17.6086 32.8488 17.5144C32.8966 17.3732 32.8966 17.279 32.8011 17.1849C32.7533 17.0907 32.7056 16.9495 32.7056 16.8553C32.5623 16.7611 32.5623 16.667 32.6101 16.5257C32.5623 16.4786 32.5623 16.4316 32.5623 16.3374C32.5623 16.2903 32.5146 16.1962 32.4668 16.1491C32.4668 16.102 32.4191 16.0549 32.4191 15.9607C32.3714 15.9137 32.3714 15.8666 32.3714 15.7724C32.3714 15.7253 32.3714 15.6312 32.3236 15.5841C32.3236 15.537 32.2759 15.4899 32.2281 15.4428C32.1326 15.3487 32.1326 15.2074 32.0849 15.1133C32.1326 14.972 31.9416 14.9249 31.8939 14.7837C31.8462 14.6895 31.8462 14.5483 31.7029 14.5012C31.6074 14.407 31.5597 14.36 31.5119 14.2187C31.321 14.2187 31.4164 14.0304 31.321 13.9362C31.321 13.795 31.1777 13.7479 31.13 13.6537C31.0345 13.6067 31.0345 13.4183 30.939 13.4183C30.8912 13.3242 30.748 13.2771 30.748 13.1829C30.6048 13.1829 30.6525 12.9946 30.557 12.9475C30.5093 12.8533 30.4138 12.8063 30.366 12.7121C30.4138 12.5709 30.2706 12.5238 30.1751 12.4767C30.1273 12.3825 29.9841 12.3825 30.0318 12.2413C29.9841 12.1471 29.9841 12.053 29.8886 12.0059C29.8409 11.9588 29.9841 11.7705 29.7454 11.7705C29.6499 11.7234 29.7931 11.5821 29.6499 11.5821C29.5066 11.5821 29.6021 11.4409 29.5544 11.3938C29.5066 11.3467 29.5066 11.2526 29.4589 11.2055C29.4111 11.0642 29.3634 10.9701 29.3157 10.8288C29.3157 10.7817 29.2679 10.7347 29.2679 10.6876C29.2679 10.6405 29.2679 10.5934 29.2202 10.5463C29.1724 10.4051 29.1724 10.3109 29.2202 10.3109C29.3157 10.2638 29.5066 10.6405 29.8886 11.1584C29.9363 11.2055 30.0318 11.2055 30.0318 11.2996C30.0796 11.3467 30.1751 11.3938 30.1751 11.488C30.3183 11.488 30.2706 11.5821 30.3183 11.6763C30.366 11.7234 30.366 11.8175 30.4615 11.8646C30.557 11.8646 30.557 12.0059 30.6525 12.0529C30.6525 12.1942 30.7003 12.2413 30.8435 12.2413C30.8435 12.3825 30.9867 12.3825 31.0345 12.4767C30.9867 12.6179 31.13 12.665 31.2255 12.7121C31.321 12.7592 31.3687 12.9004 31.4642 12.9475C31.5119 13.0417 31.6074 13.0888 31.7029 13.1829C31.7984 13.23 31.8939 13.3242 31.9416 13.4654C32.0371 13.5125 32.0849 13.6537 32.1804 13.7479C32.2759 13.8421 32.3236 13.9362 32.4191 14.0775C32.5146 14.1716 32.4668 14.36 32.6101 14.407C32.7056 14.5012 32.7056 14.6425 32.8011 14.7366C32.8488 14.8779 32.8966 14.972 32.992 15.1133C32.9443 15.2074 32.992 15.2545 32.992 15.3487C33.0398 15.3958 33.0875 15.4428 33.1353 15.4899C33.183 15.537 33.183 15.6312 33.2308 15.6783C33.2308 15.7253 33.2785 15.8195 33.2785 15.8666C33.3263 15.9137 33.3263 16.0078 33.3263 16.0549C33.3263 16.102 33.374 16.1962 33.374 16.2432C33.4695 16.3374 33.374 16.5257 33.4695 16.6199C33.565 16.7141 33.4695 16.9024 33.565 16.9965C33.6127 17.0907 33.6605 17.232 33.6127 17.3732C33.6127 17.5144 33.5172 17.6086 33.6605 17.7499C33.7082 17.844 33.8515 17.9382 33.7082 18.0794C33.756 18.1736 33.6605 18.3148 33.756 18.409C33.6605 18.5502 33.756 18.6444 33.756 18.7386C33.756 18.8327 33.7082 18.974 33.756 19.0681C33.8037 19.1623 33.7082 19.2565 33.756 19.3506C33.8515 19.4448 33.6605 19.539 33.756 19.6331C33.756 19.7273 33.756 19.8215 33.756 19.9156C33.947 20.0098 33.756 20.1039 33.756 20.151C33.7082 20.2452 33.8992 20.2923 33.756 20.3864C33.8992 20.4806 33.756 20.5277 33.756 20.6218C33.7082 20.716 33.8037 20.7631 33.756 20.8102C33.8515 20.8573 33.7082 20.9514 33.756 20.9985C33.7082 21.0456 33.756 21.1397 33.7082 21.1868C33.7082 21.2339 33.7082 21.281 33.6605 21.3281C33.6605 21.3752 33.6605 21.4222 33.6127 21.4693C33.4217 21.7989 33.374 21.9401 33.3263 21.9401Z" fill="#44693D"/>
<path d="M20.8647 18.0323C20.8647 18.0794 20.7692 18.0794 20.6737 18.1265C20.626 18.1265 20.5305 18.1736 20.435 18.1736C20.3395 18.2207 20.244 18.2207 20.1008 18.2678C20.0053 18.2678 19.9098 18.3148 19.8621 18.3619C19.8143 18.3619 19.7666 18.409 19.7188 18.409C19.6711 18.409 19.6233 18.4561 19.5756 18.4561C19.4324 18.4561 19.4324 18.6444 19.2891 18.5973C19.2414 18.5973 19.1936 18.6444 19.0981 18.6444C19.0504 18.6444 19.0504 18.6915 19.0027 18.6915C18.9549 18.6915 18.9549 18.7386 18.9072 18.7386C18.8117 18.8327 18.6684 18.8327 18.5729 18.974C18.5729 19.0681 18.4775 19.0681 18.382 19.1152C18.2865 19.1152 18.2387 19.1623 18.2387 19.2565C18.191 19.3036 18.1432 19.3506 18.0955 19.4448C18.0477 19.4919 18 19.539 17.9523 19.6331C17.8568 19.6802 17.809 19.7273 17.7613 19.7744C17.7135 19.8685 17.7135 19.9156 17.6658 20.0098C17.4748 20.1039 17.4271 20.2452 17.4271 20.4335C17.3793 20.4335 17.3316 20.4806 17.2838 20.5277C17.2361 20.5748 17.2361 20.6218 17.1883 20.6218C17.1406 20.716 17.1883 20.8102 17.2361 20.9043C17.1883 20.9985 17.1883 21.0927 17.1406 21.1397C17.1406 21.1868 17.0928 21.2339 17.0928 21.281C17.0928 21.3281 17.0928 21.3752 17.0928 21.4222C17.0928 21.5164 17.0928 21.6106 17.0928 21.7047C17.0928 21.7989 17.0928 21.8931 17.0928 21.9872C17.0928 22.0343 17.1406 22.0814 17.1406 22.1285C17.1406 22.1755 17.1883 22.2226 17.1883 22.2697C17.1883 22.3168 17.1883 22.3639 17.1883 22.411C17.1883 22.458 17.1883 22.5051 17.1406 22.5522C17.1883 22.5993 17.1883 22.6464 17.2361 22.6934C17.2361 22.6934 17.2361 22.7405 17.2361 22.7876C17.2361 22.7876 17.2361 22.8347 17.2361 22.8818C17.2361 22.9759 17.2361 23.0701 17.2361 23.2113C17.2361 23.3055 17.2838 23.3997 17.3793 23.4938C17.4271 23.588 17.5225 23.6822 17.5225 23.7763L17.5703 23.8705L17.618 23.9176C17.6658 23.9647 17.6658 24.0117 17.7135 24.0588C17.7613 24.153 17.8568 24.2471 17.9045 24.3413C17.9045 24.3884 17.9523 24.4355 18 24.4826C18.0477 24.5296 18.0477 24.5767 18.0955 24.6238C18.1432 24.6709 18.191 24.718 18.2387 24.718C18.2865 24.765 18.3342 24.765 18.382 24.8121C18.4775 24.8592 18.5729 24.9534 18.6684 25.0005C18.7639 25.0475 18.8594 25.1417 18.9072 25.2359C19.1459 25.2359 19.3369 25.3771 19.5279 25.5654C19.5756 25.5654 19.6233 25.6125 19.6711 25.6125C19.7188 25.6125 19.7666 25.6596 19.8143 25.6596C19.9098 25.7067 20.0531 25.7538 20.1485 25.7067C20.244 25.7538 20.3873 25.7538 20.4828 25.7538C20.626 25.7538 20.7215 25.7538 20.817 25.8008C20.9602 25.8008 21.0557 25.8479 21.1989 25.8008C21.3422 25.8008 21.4377 25.7538 21.5332 25.7067C21.6286 25.6596 21.7719 25.6125 21.8674 25.6125C21.9151 25.6125 21.9629 25.6125 22.0584 25.5654C22.1061 25.5654 22.1538 25.5184 22.2016 25.5184C22.2493 25.5184 22.2493 25.5184 22.2971 25.5184C22.3448 25.5184 22.3448 25.5184 22.3926 25.4713C22.4403 25.4713 22.4881 25.4242 22.5358 25.3771L22.6313 25.2829C22.679 25.2359 22.7268 25.2359 22.7745 25.1888C22.87 25.1417 22.9655 25.0946 23.061 25.0005C23.1565 24.9534 23.252 24.8592 23.2997 24.765C23.3475 24.718 23.3952 24.6709 23.3952 24.6238C23.443 24.5767 23.443 24.5296 23.4907 24.4826C23.5385 24.4355 23.5862 24.3884 23.5862 24.3884C23.634 24.3413 23.6817 24.2942 23.6817 24.2942C23.6817 24.153 23.7294 24.0588 23.8249 24.0117C23.8727 23.9647 23.9204 23.9176 23.9682 23.9176L24.0159 23.8705C24.0159 23.8705 24.0637 23.8234 24.0637 23.7763C24.1592 23.6822 24.2069 23.588 24.2069 23.4938C24.2546 23.3997 24.2546 23.3055 24.3024 23.2113C24.3024 23.1172 24.3501 23.023 24.3979 22.9289C24.3979 22.8818 24.3979 22.8818 24.4456 22.8347C24.4456 22.7876 24.4456 22.7876 24.4456 22.7405C24.4456 22.6934 24.4456 22.6464 24.4456 22.5993C24.4456 22.5522 24.4456 22.5051 24.4456 22.458C24.4456 22.411 24.4456 22.3639 24.4456 22.3168C24.4456 22.2697 24.4456 22.2226 24.4456 22.1755C24.4456 22.1285 24.4456 22.0814 24.4934 22.0343C24.4456 21.9401 24.4456 21.846 24.4934 21.7518C24.4934 21.6576 24.4934 21.5635 24.4934 21.4693C24.4934 21.4222 24.4934 21.3752 24.4934 21.3281C24.4934 21.281 24.4934 21.2339 24.4456 21.1868C24.3979 21.0927 24.3979 20.9985 24.3979 20.9043C24.4456 20.8102 24.3979 20.716 24.3501 20.6218C24.3501 20.5748 24.3024 20.5277 24.2546 20.5277C24.2069 20.4806 24.2069 20.4806 24.1592 20.4335C24.1114 20.2452 23.9204 20.1981 23.9204 20.0098C23.8727 19.9156 23.8249 19.8685 23.8249 19.7744C23.7772 19.6802 23.7294 19.6331 23.6817 19.586C23.634 19.539 23.5862 19.4448 23.5862 19.3506C23.5385 19.2565 23.4907 19.2094 23.3952 19.2565C23.3475 19.2094 23.2997 19.1623 23.252 19.0681C23.2042 19.0211 23.1565 18.974 23.061 18.974C22.87 18.974 22.8223 18.8327 22.7268 18.7386C22.679 18.7386 22.679 18.6915 22.6313 18.6915C22.5836 18.6915 22.5836 18.6444 22.5358 18.6444C22.4881 18.5973 22.4403 18.5973 22.3926 18.5502C21.9151 18.3148 21.4854 18.2207 21.1989 18.1265C21.008 18.0794 20.8647 18.0323 20.8647 18.0323C20.8647 18.0323 20.9125 17.9853 21.008 17.9853C21.0557 17.9853 21.1034 17.9853 21.1989 17.9853C21.2467 17.9853 21.2944 17.9853 21.2944 17.9853C21.3422 17.9853 21.3899 17.9853 21.4377 17.9853C21.8196 17.9853 22.3926 18.0794 23.061 18.409C23.2042 18.4561 23.3952 18.4561 23.443 18.6444C23.4907 18.6915 23.5862 18.7386 23.634 18.7857C23.6817 18.8327 23.7772 18.8798 23.8249 18.974C23.9204 18.974 24.0159 19.0211 24.0637 19.1152C24.1114 19.2094 24.1592 19.2565 24.2069 19.3506C24.2546 19.3977 24.3024 19.4919 24.3501 19.586C24.3979 19.6802 24.4456 19.7273 24.5411 19.7744C24.6843 19.9156 24.7321 20.1039 24.8276 20.2923C24.8276 20.3394 24.8276 20.3864 24.8753 20.4335C24.8753 20.4806 24.9231 20.5277 24.9231 20.5748C24.9708 20.6689 25.0186 20.7631 25.1141 20.8573C25.1141 20.9514 25.1141 21.0927 25.1618 21.1868C25.1618 21.2339 25.2096 21.281 25.2096 21.3281C25.2096 21.3752 25.2573 21.4222 25.2573 21.4693C25.2095 21.6106 25.2095 21.7047 25.2573 21.7989C25.2573 21.8931 25.305 22.0343 25.3528 22.1285C25.3528 22.1755 25.3528 22.2226 25.3528 22.3168C25.3528 22.3639 25.3528 22.411 25.3528 22.5051C25.3528 22.5522 25.3528 22.5993 25.3528 22.6934C25.3528 22.7405 25.3528 22.7876 25.3528 22.8818C25.3528 22.9289 25.305 22.9759 25.305 23.0701V23.2584C25.305 23.3997 25.2573 23.4938 25.2096 23.6351C25.2096 23.7763 25.1618 23.8705 25.1141 24.0117C25.0663 24.153 25.0186 24.2471 24.9231 24.3413C24.9231 24.3884 24.9231 24.3884 24.8753 24.4355C24.8753 24.4826 24.8276 24.4826 24.8276 24.5296C24.7798 24.5767 24.7798 24.6238 24.7321 24.718C24.6844 24.8121 24.5889 24.9063 24.4934 25.0475C24.4456 25.0946 24.4456 25.1417 24.3979 25.2359C24.3501 25.2829 24.3024 25.33 24.2546 25.3771C24.2069 25.4242 24.1592 25.4713 24.1114 25.5184C24.0637 25.5654 24.0159 25.6125 23.9682 25.6596C23.8727 25.7538 23.7772 25.8479 23.634 25.895C23.4907 25.9421 23.3952 26.0363 23.2997 26.1775C23.061 26.3187 22.8223 26.4129 22.5358 26.5542L22.3448 26.3187C22.2971 26.3187 22.2016 26.3658 22.1538 26.3658C22.0106 26.4129 21.8674 26.46 21.7241 26.5071C21.5809 26.46 21.4377 26.46 21.2944 26.5071C21.1512 26.5071 21.008 26.5542 20.8647 26.6012C20.7215 26.6012 20.5783 26.6012 20.435 26.6012C20.2918 26.6012 20.1485 26.5542 20.0053 26.5071C19.8621 26.5071 19.7188 26.46 19.5756 26.4129C19.5279 26.4129 19.4324 26.3658 19.3846 26.3658C19.3369 26.3187 19.2414 26.3187 19.1936 26.2717C19.1459 26.2717 19.1459 26.2717 19.0981 26.2246C19.0504 26.2246 19.0504 26.1775 19.0027 26.1775C18.9549 26.1304 18.8594 26.1304 18.8117 26.0833L18.7162 26.0363C18.6684 26.0363 18.6684 25.9892 18.6207 25.9892C18.5729 25.9421 18.4775 25.9421 18.4297 25.895C18.2865 25.8479 18.191 25.7538 18.0955 25.6596C18 25.5654 17.9045 25.4713 17.7613 25.3771C17.7135 25.33 17.6658 25.2829 17.618 25.2359C17.5703 25.1888 17.5225 25.1417 17.4748 25.0946C17.4271 25.0475 17.3793 25.0005 17.3316 24.9534C17.2838 24.9063 17.2838 24.8592 17.2361 24.765C17.1406 24.6709 17.0928 24.5296 17.0451 24.4355C16.9973 24.3884 16.9973 24.3413 16.9496 24.2471C16.9496 24.2001 16.9019 24.2001 16.9019 24.153C16.9019 24.1059 16.8541 24.1059 16.8541 24.0588C16.8064 23.9647 16.7109 23.8705 16.6154 23.7292C16.5676 23.6351 16.5199 23.4938 16.5676 23.3526C16.5199 23.2584 16.5199 23.1172 16.4721 22.9759C16.4721 22.9289 16.4721 22.9289 16.4721 22.8818C16.4721 22.8347 16.4721 22.8347 16.4721 22.7876C16.4721 22.7405 16.4721 22.6934 16.4244 22.5993C16.4721 22.5522 16.4721 22.458 16.4721 22.411C16.4721 22.3639 16.4721 22.3168 16.4721 22.2226C16.4721 22.1755 16.4244 22.1285 16.4244 22.0343C16.4244 21.9872 16.4244 21.9401 16.4244 21.846C16.4244 21.7518 16.4721 21.6106 16.4721 21.5164C16.4721 21.4222 16.5199 21.281 16.4721 21.1868C16.4721 21.1397 16.4721 21.0927 16.4721 20.9985C16.4721 20.9514 16.5199 20.9043 16.5199 20.8573C16.5676 20.7631 16.6154 20.6689 16.6154 20.5748C16.6154 20.4806 16.6631 20.3864 16.7109 20.2923C16.7586 20.2452 16.7586 20.1981 16.8064 20.151C16.8541 20.1039 16.8541 20.0569 16.8541 20.0098C16.9496 19.8215 17.0451 19.6802 17.1406 19.4919C17.1406 19.3506 17.1883 19.3036 17.2361 19.2094C17.3316 19.1623 17.4271 19.1152 17.4748 19.0681C17.5225 19.0211 17.5703 18.9269 17.618 18.8327C17.6658 18.7386 17.7135 18.6915 17.8568 18.6915C17.8568 18.5973 17.9523 18.5032 18 18.5032C18.0955 18.4561 18.1432 18.4561 18.2387 18.409C18.382 18.3619 18.4775 18.1736 18.6207 18.1736C18.6207 18.1265 18.6684 18.1265 18.7162 18.0794C18.7639 18.0794 18.7639 18.0323 18.8117 18.0323C18.9072 18.0323 18.9549 18.0323 19.0027 17.9853C19.1459 17.9853 19.2414 17.8911 19.3369 17.844C19.3846 17.7969 19.4324 17.7969 19.4801 17.7969C19.5279 17.7969 19.5756 17.7969 19.6233 17.7969C19.7188 17.7969 19.8143 17.7499 19.9098 17.7499C20.0531 17.7499 20.1485 17.7499 20.2918 17.7499C20.3873 17.7499 20.4828 17.7499 20.5782 17.7499C20.7692 17.9853 20.8647 17.9853 20.8647 18.0323Z" fill="#44693D"/>
<path d="M15.0398 33.7106C15.0398 33.7577 14.6578 33.8989 13.8939 34.0873C13.7507 34.1343 13.6552 34.1343 13.5119 34.1814C13.3687 34.2285 13.2255 34.2756 13.0345 34.2756C12.8435 34.2285 12.7003 34.4639 12.5093 34.3697C12.3183 34.3697 12.1273 34.4168 11.9363 34.4639C11.7454 34.511 11.5066 34.4639 11.3157 34.5581C11.1247 34.6993 10.8859 34.4639 10.6472 34.6522C10.5517 34.6993 10.4085 34.6993 10.313 34.6993C10.1698 34.6993 10.0743 34.6993 9.93104 34.6993C9.7878 34.6522 9.69231 34.6522 9.54907 34.6993C9.40584 34.6993 9.31035 34.7464 9.16711 34.7464C9.02387 34.6993 8.88064 34.6522 8.78515 34.6522C8.64191 34.6522 8.49867 34.6522 8.35544 34.6993C8.06897 34.511 7.83024 34.511 7.49602 34.6052C7.35279 34.5581 7.20955 34.511 7.06631 34.511C6.97082 34.4639 6.92308 34.4639 6.82759 34.4639C6.7321 34.4639 6.68435 34.4168 6.58886 34.4168C6.49337 34.3697 6.44562 34.3697 6.35013 34.3227C6.25464 34.2756 6.2069 34.2756 6.11141 34.2285C6.01592 34.1814 5.96817 34.1343 5.87268 34.0873L5.82493 34.0402C5.77719 34.0402 5.77719 33.9931 5.72944 33.9931C5.6817 33.9931 5.6817 33.946 5.6817 33.8989C5.6817 33.8518 5.63395 33.8518 5.63395 33.8048C5.58621 33.7577 5.58621 33.7106 5.53846 33.6164L5.49072 33.5694C5.49072 33.5694 5.49072 33.5223 5.44297 33.5223C5.39523 33.4281 5.39523 33.3339 5.34748 33.2398C5.34748 33.1456 5.34748 33.0514 5.34748 32.9573C5.34748 32.9102 5.34748 32.8631 5.34748 32.816C5.34748 32.769 5.39523 32.7219 5.39523 32.6748C5.34748 32.4865 5.39523 32.2981 5.44297 32.1098C5.49072 31.9215 5.58621 31.7802 5.72944 31.639C5.82493 31.4978 5.92042 31.3094 6.01592 31.1682C6.11141 31.0269 6.2069 30.8386 6.35013 30.7444C6.58886 30.4619 6.82759 30.2265 7.11406 29.9911C7.2573 29.897 7.44828 29.8028 7.59151 29.7086C7.63926 29.6616 7.687 29.6616 7.687 29.6145L7.73475 29.5674V29.5203C7.73475 29.5203 7.687 29.5203 7.687 29.4732V29.4261C7.59151 29.2378 7.54377 29.0966 7.54377 28.9082C7.30504 28.5787 7.30504 28.1549 7.30504 27.7783C7.2573 27.4016 7.30504 27.025 7.2573 26.6483C7.2573 26.2717 7.20955 25.895 7.30504 25.4713C7.35279 25.0946 7.44828 24.718 7.40053 24.3413C7.35279 23.9647 7.49602 23.588 7.54377 23.2584C7.63926 23.0701 7.63926 22.8818 7.63926 22.7405C7.63926 22.6934 7.63926 22.6464 7.63926 22.5993C7.63926 22.5522 7.63926 22.5051 7.63926 22.458C7.63926 22.3639 7.687 22.2697 7.687 22.1755C7.78249 21.7989 7.97348 21.4693 8.06897 21.0927C8.2122 20.7631 8.35544 20.4335 8.54642 20.151C8.54642 19.7744 8.92838 19.539 9.07162 19.2565C9.11936 19.2094 9.11936 19.2094 9.11936 19.2094C9.11936 19.2094 9.11936 19.2094 9.16711 19.2094V19.1623C9.16711 19.1152 9.16711 19.0211 9.11936 18.974C9.11936 18.8327 9.07162 18.6915 9.07162 18.5973C9.02387 18.2678 9.11936 17.9382 9.07162 17.6086C9.07162 17.5144 9.07162 17.4674 9.07162 17.3732C9.07162 17.279 9.07162 17.232 9.07162 17.1378C9.07162 17.0436 9.07162 16.9965 9.07162 16.9024C9.07162 16.8553 9.07162 16.8082 9.07162 16.7611C9.07162 16.7141 9.07162 16.667 9.11936 16.667C9.11936 16.5257 9.11936 16.3374 9.16711 16.1962C9.21486 16.0549 9.2626 15.9137 9.2626 15.7253C9.31035 15.5841 9.35809 15.4428 9.35809 15.3016C9.40584 15.1604 9.45358 15.0191 9.50133 14.8779C9.59682 14.7837 9.69231 14.6425 9.69231 14.5012C9.74005 14.36 9.74005 14.2187 9.83554 14.0775C9.88329 13.9362 9.93104 13.8421 9.97878 13.7008C10.0265 13.5596 10.0743 13.4654 10.1698 13.3712C10.313 13.1358 10.4562 12.9475 10.504 12.7121C10.5995 12.4767 10.8859 12.3825 10.8382 12.1C10.8859 12.0059 10.9337 11.9117 11.0292 11.8175C11.0769 11.7234 11.1724 11.6292 11.1724 11.488C11.1724 11.3467 11.2202 11.2526 11.3157 11.1584C11.4111 11.0642 11.4589 11.0172 11.5544 10.923C11.6021 10.8759 11.6021 10.8288 11.6499 10.7817C11.6976 10.7347 11.6976 10.6876 11.7454 10.6876C11.7931 10.5934 11.8886 10.5463 11.9363 10.4993C12.2228 10.2168 12.557 9.98135 12.7958 9.79302C13.0822 9.6047 13.321 9.46345 13.5119 9.36929C13.8939 9.18096 14.1326 9.08679 14.1326 9.13388C14.1326 9.18096 13.8939 9.3222 13.5119 9.65178C13.321 9.79302 13.0345 10.0284 12.748 10.2638C12.6048 10.4051 12.4615 10.5463 12.3183 10.6876C12.1751 10.8288 12.0318 11.0172 11.8886 11.2055C11.8409 11.2996 11.7931 11.3938 11.7454 11.4409C11.7454 11.488 11.6976 11.5351 11.6976 11.5821C11.6499 11.6292 11.6499 11.6763 11.6021 11.6763C11.6021 11.7234 11.5544 11.7705 11.5544 11.8175C11.5544 11.8646 11.5066 11.9117 11.5066 11.9588C11.4589 12.053 11.4111 12.1471 11.3634 12.2413C11.3634 12.5238 11.1724 12.665 11.0769 12.9004C10.9814 13.1358 10.8382 13.3242 10.7427 13.5596C10.7427 13.7008 10.6472 13.795 10.5995 13.8891C10.5517 13.9833 10.4562 14.1246 10.4562 14.2658C10.3607 14.36 10.313 14.5012 10.2653 14.5954C10.2175 14.7366 10.2175 14.8779 10.1698 14.972C10.0743 15.0662 10.0743 15.2074 10.0265 15.3487C10.0265 15.4899 9.97878 15.6312 9.97878 15.7724C9.93104 15.7724 9.93104 15.9137 9.88329 16.0549C9.88329 16.1962 9.88329 16.3374 9.88329 16.4786C9.88329 16.5257 9.88329 16.5728 9.88329 16.5728C9.88329 16.6199 9.88329 16.667 9.88329 16.667C9.88329 16.7611 9.88329 16.8082 9.88329 16.9024C9.88329 16.9965 9.88329 17.0436 9.88329 17.1378C9.88329 17.232 9.88329 17.279 9.88329 17.3732C9.83555 17.7028 9.93104 17.9853 9.88329 18.3148C9.93104 18.4561 9.93104 18.5502 9.93104 18.6915C9.93104 18.7386 9.93104 18.8327 9.93104 18.8798V19.0211C9.93104 19.0681 9.93104 19.1623 9.93104 19.2094C9.83554 19.3036 9.74005 19.4448 9.74005 19.4919C9.59682 19.7744 9.40584 20.0569 9.2626 20.3864C9.16711 20.716 8.92838 20.9985 8.83289 21.281C8.78515 21.4222 8.68966 21.5635 8.59416 21.7518C8.54642 21.846 8.54642 21.8931 8.49867 21.9872C8.49867 22.0814 8.45093 22.1285 8.49867 22.2226C8.49867 22.3168 8.45093 22.3639 8.45093 22.458C8.45093 22.5051 8.45093 22.5522 8.45093 22.5522C8.45093 22.5993 8.45093 22.5993 8.45093 22.6934C8.45093 22.8818 8.40318 23.0701 8.40318 23.2584C8.35544 23.6351 8.30769 24.0117 8.30769 24.3413C8.11671 24.718 8.16446 25.0946 8.2122 25.4713C8.2122 25.8479 8.2122 26.2246 8.16446 26.5542C8.16446 26.9308 8.2122 27.2604 8.2122 27.637C8.30769 27.9666 8.25995 28.3433 8.40318 28.6258C8.45093 28.767 8.49867 28.9082 8.54642 29.0495V29.0966L8.68966 29.3791C8.7374 29.5203 8.83289 29.6145 8.92838 29.7557C8.88064 29.8028 8.83289 29.8028 8.78515 29.8499C8.7374 29.897 8.64191 29.944 8.59416 29.9911C8.54642 30.0382 8.45093 30.0853 8.40318 30.1324L8.30769 30.1795L8.16446 30.3207C8.02122 30.4149 7.87799 30.509 7.73475 30.6032C7.59151 30.6974 7.44828 30.7915 7.35279 30.8857C7.20955 30.9799 7.11406 31.1211 7.06631 31.2623C6.97082 31.4036 6.92308 31.5448 6.82759 31.6861C6.77984 31.8273 6.68435 31.9215 6.54111 32.0157C6.49337 32.1569 6.44562 32.2511 6.35013 32.3923C6.30239 32.5336 6.25464 32.6748 6.30239 32.769C6.30239 32.816 6.25464 32.816 6.25464 32.8631C6.25464 32.9102 6.25464 32.9102 6.25464 32.9573C6.25464 33.0044 6.25464 33.0985 6.25464 33.1456C6.25464 33.1927 6.30239 33.2869 6.30239 33.3339V33.381C6.30239 33.381 6.30239 33.381 6.30239 33.4281L6.35013 33.4752C6.39788 33.5223 6.44562 33.5694 6.49337 33.5694C6.54111 33.6164 6.58886 33.6164 6.68435 33.6635C6.7321 33.6635 6.82759 33.7106 6.87533 33.7106C6.92308 33.7106 7.01857 33.7106 7.06631 33.7577C7.11406 33.7577 7.20955 33.8048 7.2573 33.8048C7.40053 33.8518 7.49602 33.8989 7.63926 33.8989C7.92573 33.8518 8.16446 34.0872 8.45093 33.9931C8.59417 33.9931 8.68966 34.0402 8.83289 34.0402C8.97613 34.0402 9.07162 34.0402 9.21485 34.0402C9.35809 33.946 9.45358 33.946 9.59682 33.9931C9.74005 33.9931 9.83554 34.0402 9.97878 34.0402C10.122 34.0402 10.2175 33.9931 10.313 33.9931C10.4085 33.9931 10.5517 33.946 10.6472 33.9931C10.8382 33.8518 11.0769 33.946 11.3157 33.946C11.5544 33.946 11.7454 33.8518 11.9363 33.8989C12.1273 33.7577 12.3183 33.8989 12.5093 33.8518C12.7003 33.8989 12.8435 33.8048 13.0345 33.8048C13.1777 33.7577 13.321 33.7577 13.5119 33.7577C13.6552 33.7577 13.7984 33.7106 13.8939 33.7106C14.6101 33.7106 15.0398 33.6635 15.0398 33.7106Z" fill="#44693D"/>
<path d="M15.0398 33.7106C15.0398 33.6635 15.4218 33.7106 16.0902 33.8048C16.1857 33.8048 16.3289 33.8518 16.4721 33.8518C16.6154 33.8518 16.7586 33.8518 16.9019 33.8989C17.0451 33.9931 17.2361 33.8518 17.3793 33.946C17.5225 33.9931 17.7135 33.9931 17.9045 33.9931C18.0955 33.9931 18.2387 34.0872 18.4297 34.0402C18.6207 33.946 18.8117 34.2285 19.0027 34.0873C19.0981 34.0873 19.1936 34.0873 19.3369 34.0873C19.4324 34.0873 19.5279 34.0873 19.6711 34.1343C19.8621 34.2285 20.1008 34.1343 20.3395 34.1343C20.3873 34.1814 20.435 34.1814 20.5305 34.1814C20.5783 34.1814 20.626 34.1814 20.7215 34.1814C20.817 34.1814 20.9602 34.1343 21.1034 34.0873C21.2467 34.1814 21.3422 34.1814 21.4854 34.1814C21.6286 34.1814 21.7241 34.1343 21.8674 34.0402C22.1061 34.0402 22.3926 34.0872 22.6313 33.9931C22.87 33.946 23.1565 33.8989 23.443 33.8989C23.5862 33.8518 23.6817 33.8048 23.8249 33.7577C23.9682 33.7577 24.1114 33.7577 24.2546 33.7577C24.4934 33.6164 24.7798 33.5694 25.1141 33.6164C25.2573 33.6164 25.4005 33.5694 25.5438 33.5223C25.687 33.4752 25.8302 33.4281 25.9735 33.4281C26.069 33.4281 26.1167 33.381 26.2122 33.381C26.3077 33.3339 26.4032 33.3339 26.4987 33.2869C26.5942 33.2869 26.7374 33.3339 26.8329 33.3339C26.9284 33.3339 26.9761 33.381 27.0716 33.381C27.3581 33.4752 27.6446 33.6164 27.9788 33.5694C28.313 33.5694 28.5995 33.6164 28.9337 33.7106C29.0292 33.7106 29.1247 33.7106 29.1724 33.7106C29.2679 33.7106 29.3157 33.7106 29.4111 33.7106C29.5544 33.7577 29.7454 33.8048 29.8886 33.8518C30.2228 33.8989 30.557 33.9931 30.8912 33.946C31.2255 33.9931 31.5597 33.946 31.8939 33.9931H32.0371C32.0849 33.9931 32.1326 33.9931 32.1804 33.9931C32.2759 33.9931 32.3714 33.9931 32.4191 33.9931C32.5623 33.9931 32.7533 33.9931 32.8966 33.946C33.0398 33.8989 33.2308 33.8989 33.374 33.8989C33.5172 33.8989 33.7082 33.8989 33.8515 33.8518C33.9947 33.8989 34.1857 33.8518 34.3289 33.8048C34.4721 33.7577 34.6154 33.6635 34.7586 33.6635C34.8064 33.6164 34.9019 33.6164 34.9496 33.5694C34.9973 33.5223 35.0928 33.5223 35.1406 33.4752C35.1883 33.4752 35.1883 33.4281 35.2361 33.4281V33.381C35.2361 33.3339 35.2361 33.3339 35.2361 33.2869V33.1927C35.2361 33.1456 35.2361 33.0514 35.2361 33.0044C35.2361 32.8631 35.2361 32.769 35.2361 32.6277C35.1883 32.5806 35.1883 32.5806 35.1883 32.5336C35.1883 32.4865 35.1406 32.4865 35.1406 32.4394C35.1406 32.3923 35.0928 32.2981 35.0928 32.2511C35.0928 32.204 35.0928 32.1098 35.0451 32.0627C35.0451 32.0157 34.9973 31.9215 34.9496 31.8744C34.9019 31.7332 34.8541 31.639 34.7586 31.4978C34.6631 31.4036 34.5676 31.3094 34.4721 31.1682C34.2812 30.9798 34.1379 30.6974 33.8992 30.6032C33.7082 30.4149 33.4218 30.3207 33.2785 30.0853C33.2785 30.0853 33.2785 30.0853 33.2308 30.0853H33.183C33.1353 30.0853 33.1353 30.0382 33.0875 30.0382C33.0398 29.9911 32.992 29.9911 32.8966 29.944C32.8011 29.897 32.6578 29.8028 32.6101 29.7557C32.6578 29.6616 32.7533 29.5674 32.8011 29.4732C32.8488 29.3791 32.8966 29.2849 32.9443 29.1907L32.992 29.1437V29.0966L33.0398 29.0024C33.0875 28.9553 33.0875 28.9082 33.0875 28.8141C33.0875 28.767 33.1353 28.7199 33.1353 28.6258C33.1353 28.5787 33.183 28.5316 33.183 28.4374C33.2308 28.3903 33.2785 28.3433 33.2785 28.2962C33.2785 28.2491 33.3263 28.202 33.3263 28.1079C33.3263 27.9666 33.3263 27.8724 33.3263 27.7312C33.374 27.4958 33.2785 27.2604 33.4218 27.0721C33.4218 26.8366 33.5172 26.6483 33.4695 26.4129C33.4695 26.2246 33.6605 25.9892 33.4695 25.8008C33.4218 25.6125 33.6127 25.3771 33.4695 25.2359C33.3263 25.0475 33.4695 24.8592 33.4218 24.6709C33.4218 24.4826 33.4217 24.3413 33.374 24.153C33.374 23.7763 33.3263 23.4468 33.3263 23.1643C33.3263 23.023 33.3263 22.8818 33.3263 22.7876C33.3263 22.7405 33.3263 22.6464 33.3263 22.5993C33.3263 22.5522 33.3263 22.5051 33.3263 22.458C33.3263 22.2697 33.3263 22.1285 33.2785 22.0343C33.2785 21.9401 33.2785 21.8931 33.2785 21.8931C33.2785 21.8931 33.3263 21.9401 33.374 22.0814C33.4217 22.1755 33.4695 22.3639 33.5172 22.6464C33.565 23.1172 33.7082 23.7763 33.8037 24.6709C33.8037 24.8592 33.9469 25.0005 33.8515 25.2359C33.8515 25.4242 33.947 25.6125 33.8992 25.8479C34.0424 26.0363 33.947 26.2717 33.947 26.5071C33.947 26.7425 33.8992 26.9779 33.947 27.2133C33.9947 27.4487 33.8992 27.6841 33.8992 27.9666C33.8037 28.202 33.756 28.4374 33.756 28.7199C33.8037 28.7199 33.8037 28.767 33.756 28.8612C33.756 28.9083 33.7082 29.0024 33.7082 29.0495C33.7082 29.0966 33.6605 29.1907 33.6605 29.2378C33.6605 29.2849 33.6605 29.2849 33.6127 29.332V29.3791C33.565 29.3791 33.565 29.4261 33.5172 29.4261L33.4695 29.4732C33.5172 29.4732 33.5172 29.4732 33.565 29.5203H33.6127C33.8992 29.6616 34.0902 29.897 34.3289 30.0382C34.5199 30.2265 34.8064 30.4149 34.9974 30.6974C35.2361 30.8857 35.4748 31.1682 35.5703 31.4978C35.7613 31.7802 35.8568 32.1098 35.9523 32.4865C36 32.6748 36 32.8631 36 33.0514C36 33.1456 36 33.2398 35.9523 33.3339V33.4752C35.9523 33.5223 35.9523 33.5694 35.9045 33.6164V33.7106L35.8568 33.8048V33.8518C35.8568 33.8518 35.8568 33.8518 35.8568 33.8989C35.809 33.946 35.7613 33.946 35.7135 33.9931C35.6658 34.0402 35.6658 34.0402 35.618 34.0402L35.5703 34.0873H35.5225C35.4748 34.1343 35.4271 34.1343 35.3793 34.1343C35.2838 34.1814 35.1883 34.2285 35.1406 34.2756C35.0451 34.3227 34.9974 34.3697 34.9019 34.4168C34.7109 34.511 34.5676 34.511 34.3767 34.5581C34.1857 34.6052 34.0424 34.6052 33.8515 34.6522C33.6605 34.6522 33.5172 34.6993 33.3263 34.6993C33.1353 34.6993 32.992 34.7464 32.8011 34.7464C32.6101 34.6993 32.4669 34.6993 32.2759 34.6993C32.1804 34.6993 32.0849 34.6993 31.9894 34.7464H31.7029C31.3687 34.7464 30.9867 34.7464 30.6525 34.6993C30.3183 34.6993 29.9363 34.6522 29.6021 34.6052C29.4111 34.6052 29.2679 34.5581 29.0769 34.511C28.9814 34.511 28.9337 34.4639 28.8382 34.4639C28.7427 34.4639 28.695 34.4639 28.5995 34.4168C28.2653 34.4168 27.9788 34.2285 27.6446 34.2285C27.3103 34.1814 26.9761 34.1814 26.6897 34.0402C26.5942 34.0402 26.5464 33.9931 26.4509 33.9931H26.3554C26.3554 33.9931 26.3554 33.9931 26.3077 33.9931C26.2599 33.9931 26.2122 33.9931 26.2122 34.0402C26.1167 34.0872 26.069 34.0873 25.9735 34.1343C25.8302 34.1814 25.687 34.2756 25.5438 34.3227C25.4005 34.3697 25.2573 34.4168 25.0663 34.3227C24.7798 34.4168 24.4456 34.3697 24.1592 34.4639C24.0159 34.4168 23.8727 34.4639 23.7294 34.4639C23.5862 34.511 23.443 34.5581 23.2997 34.5581C23.0133 34.5581 22.7268 34.5581 22.4881 34.6052C22.2016 34.6993 21.9629 34.6052 21.6764 34.6522C21.5332 34.6993 21.4377 34.6993 21.2944 34.6522C21.1512 34.6522 21.0557 34.6052 20.9125 34.6522C20.7692 34.6522 20.6737 34.6522 20.5305 34.6522C20.4828 34.6522 20.3873 34.6522 20.3395 34.6522C20.2918 34.6522 20.244 34.6522 20.1485 34.6522C19.9098 34.8406 19.6711 34.6522 19.4801 34.6052C19.3846 34.6052 19.2414 34.6052 19.1459 34.6052C19.0504 34.6052 18.9072 34.6051 18.8117 34.511C18.5729 34.6051 18.382 34.511 18.191 34.4168C18 34.3697 17.809 34.4168 17.618 34.3227C17.5703 34.5581 17.4271 34.4168 17.2838 34.4168C17.1406 34.3227 16.9496 34.3697 16.8064 34.3227C16.6631 34.3227 16.5199 34.2756 16.3767 34.2285C16.2334 34.1814 16.1379 34.1814 15.9947 34.1343C15.374 33.8989 15.0398 33.7577 15.0398 33.7106Z" fill="#44693D"/>
<path d="M29.1724 10.358C29.1724 10.4051 29.1247 10.4051 29.0292 10.4051C29.0292 10.4051 29.0292 10.4051 28.9814 10.4051H28.9337C28.9814 10.358 28.8382 10.4993 28.8859 10.4051C28.8859 10.358 28.8859 10.4051 28.8382 10.4051C28.7905 10.4051 28.8382 10.358 28.7905 10.4051C28.695 10.4993 28.8859 10.2638 28.7427 10.4051C28.695 10.4051 28.695 10.4051 28.695 10.4051C28.7427 10.3109 28.695 10.4051 28.6472 10.4051C28.695 10.3109 28.6472 10.3109 28.5995 10.4051C28.695 10.2638 28.6472 10.2638 28.5517 10.4051C28.5517 10.4051 28.5517 10.358 28.504 10.358C28.504 10.358 28.4562 10.358 28.4562 10.3109C28.3607 10.358 28.3607 10.358 28.4085 10.2638C28.313 10.358 28.313 10.3109 28.3607 10.2168C28.4085 10.1697 28.2653 10.2638 28.313 10.1697C28.313 10.1697 28.2653 10.1697 28.2653 10.1226C28.2653 10.0755 28.313 10.0284 28.2175 10.0755C28.1698 10.0755 28.122 10.1226 28.1698 10.0284C28.0743 10.1226 28.0743 10.0755 28.122 9.98135C28.0743 9.98135 28.122 9.88719 28.0743 9.93427C28.0743 9.88719 28.0265 9.93427 28.0265 9.88719C28.0265 9.84011 28.0265 9.79302 27.9788 9.84011C27.931 9.88719 27.9788 9.79302 27.931 9.79302C27.9788 9.69886 27.8833 9.79302 27.8833 9.74594C27.8355 9.74594 27.8833 9.65178 27.8355 9.69886C27.7878 9.69886 27.7878 9.69886 27.7878 9.65178C27.6923 9.79302 27.7878 9.6047 27.7401 9.6047C27.7401 9.51053 27.6923 9.6047 27.6923 9.55761C27.6446 9.55761 27.6923 9.46345 27.6446 9.51053C27.6446 9.51053 27.5968 9.55761 27.5968 9.46345C27.5491 9.51053 27.5968 9.36929 27.5491 9.41637C27.5491 9.41637 27.5013 9.41637 27.5013 9.36929C27.5491 9.22804 27.5013 9.32221 27.4536 9.32221C27.4536 9.32221 27.4058 9.36929 27.4058 9.27512C27.4058 9.27512 27.4058 9.18096 27.3581 9.22804C27.3103 9.22804 27.4536 9.03971 27.3103 9.18096C27.2626 9.18096 27.3581 9.03971 27.2626 9.13388C27.2149 9.22804 27.2626 9.0868 27.2149 9.0868C27.2149 9.0868 27.2149 9.0868 27.2149 9.03971C27.1671 8.94555 27.1194 8.85139 27.1671 8.75722C27.2149 8.66306 27.3103 8.66306 27.4536 8.66306C27.4536 8.66306 27.5491 8.56889 27.5013 8.66306C27.5013 8.66306 27.5491 8.61598 27.5491 8.66306C27.6446 8.56889 27.5968 8.66306 27.5968 8.66306C27.5968 8.66306 27.5968 8.71014 27.6446 8.66306C27.6923 8.61598 27.6446 8.71014 27.6923 8.66306C27.6446 8.75722 27.6923 8.71014 27.7401 8.66306C27.7401 8.75722 27.7878 8.66306 27.7878 8.66306C27.7401 8.75722 27.7878 8.71014 27.8355 8.66306C27.8833 8.61598 27.8833 8.71014 27.8833 8.71014C27.8833 8.75722 27.931 8.71014 27.931 8.75722C27.9788 8.71014 28.0265 8.71014 27.9788 8.80431C28.0265 8.80431 28.0265 8.80431 28.0265 8.85139C28.0743 8.80431 28.0743 8.89847 28.0743 8.89847C28.122 8.89847 28.0265 9.03971 28.122 8.94555C28.1698 8.94555 28.1698 8.99263 28.1698 8.99263C28.1698 9.03971 28.1698 9.03971 28.2175 9.03971C28.1698 9.18096 28.2175 9.0868 28.2653 9.0868C28.313 9.0868 28.313 9.08679 28.313 9.13388C28.3607 9.13388 28.3607 9.18096 28.3607 9.18096C28.4085 9.18096 28.3607 9.27512 28.4085 9.22804C28.4562 9.18096 28.4085 9.3222 28.4562 9.27512C28.504 9.27512 28.5517 9.27512 28.504 9.32221C28.504 9.32221 28.4562 9.46345 28.5517 9.36929C28.5995 9.36929 28.695 9.27512 28.5995 9.41637C28.6472 9.41637 28.5995 9.51053 28.6472 9.46345C28.5995 9.55761 28.695 9.51053 28.695 9.51053C28.695 9.55761 28.695 9.6047 28.7427 9.55761C28.7905 9.51053 28.7427 9.6047 28.7905 9.6047C28.8382 9.55761 28.7427 9.69886 28.8382 9.65178C28.8382 9.69886 28.8859 9.65178 28.8859 9.69886C29.0292 9.55761 28.9337 9.74594 28.9337 9.74594C28.9337 9.79302 29.0292 9.69886 28.9814 9.79302C29.0769 9.69886 29.0292 9.79302 28.9814 9.84011C28.9814 9.88719 29.0292 9.84011 28.9814 9.88719C29.0769 9.84011 28.9814 9.93427 28.9814 9.93427C28.9337 9.98135 28.9814 9.93427 28.9814 9.98135C28.9814 9.98135 29.0292 9.98135 28.9814 10.0284C28.9814 10.0284 28.9814 10.0284 28.9814 10.0755C29.2679 10.2638 29.2202 10.358 29.1724 10.358Z" fill="#44693D"/>
<path d="M4.48806 7.48601C4.48806 7.29769 4.6313 7.15644 4.87003 7.15644V7.90975C4.58355 7.7685 4.48806 7.62726 4.48806 7.48601ZM5.63395 8.80431C5.63395 8.99263 5.49072 9.13388 5.20424 9.18096V8.42765C5.53846 8.52181 5.63395 8.66306 5.63395 8.80431ZM4.87003 6.63854V6.7327C4.34483 6.77979 4.01061 7.06228 4.01061 7.53309C4.01061 8.00391 4.29708 8.23932 4.91777 8.38057V9.18096C4.67905 9.13388 4.48806 9.03971 4.29708 8.89847C4.24934 8.85139 4.20159 8.85139 4.15385 8.85139C4.01061 8.85139 3.91512 8.94555 3.91512 9.0868C3.91512 9.18096 3.96287 9.22804 4.01061 9.27512C4.24934 9.46345 4.53581 9.55761 4.87003 9.6047V9.84011C4.87003 9.93427 4.96552 10.0284 5.06101 10.0284C5.1565 10.0284 5.25199 9.93427 5.25199 9.84011V9.6047C5.77719 9.55761 6.15915 9.22804 6.15915 8.80431C6.15915 8.38057 5.87268 8.09808 5.25199 7.95683V7.15644C5.39523 7.20352 5.53846 7.2506 5.6817 7.34477C5.72944 7.39185 5.77719 7.39185 5.82493 7.39185C5.96817 7.39185 6.06366 7.29769 6.06366 7.15644C6.06366 7.06228 6.01592 7.01519 5.92042 6.96811C5.72944 6.82687 5.53846 6.77979 5.25199 6.7327V6.63854C5.25199 6.54438 5.1565 6.45021 5.06101 6.45021C4.96552 6.45021 4.87003 6.49729 4.87003 6.63854Z" fill="#44693D"/>
<path d="M20.5305 20.7631C20.5305 20.4335 20.7692 20.1981 21.2467 20.151V21.4222C20.6737 21.281 20.5305 21.0927 20.5305 20.7631ZM22.5358 23.1172C22.5358 23.4468 22.2971 23.6822 21.8196 23.7292V22.411C22.3926 22.5993 22.5358 22.7876 22.5358 23.1172ZM21.1989 19.3036V19.4448C20.2918 19.4919 19.6711 20.0569 19.6711 20.8102C19.6711 21.6106 20.1485 22.0343 21.2467 22.2697V23.6822C20.8647 23.6351 20.5305 23.4468 20.1485 23.2113C20.1008 23.1643 20.0053 23.1172 19.9098 23.1172C19.6711 23.1172 19.5279 23.3055 19.5279 23.4938C19.5279 23.6351 19.5756 23.7763 19.7188 23.8234C20.1485 24.153 20.6737 24.3413 21.1989 24.3884V24.8121C21.1989 25.0005 21.3422 25.1417 21.5332 25.1417C21.7241 25.1417 21.8674 25.0005 21.8674 24.8121V24.3884C22.7745 24.2942 23.3952 23.7763 23.3952 22.9759C23.3952 22.2226 22.9178 21.7518 21.8196 21.5164V20.151C22.0584 20.1981 22.2971 20.3394 22.5836 20.4806C22.6313 20.5277 22.7268 20.5277 22.8223 20.5277C23.061 20.5277 23.252 20.3394 23.252 20.151C23.252 19.9627 23.1565 19.8685 23.0133 19.8215C22.679 19.6331 22.2971 19.4919 21.8674 19.4448V19.3036C21.8674 19.1152 21.7241 18.974 21.5332 18.974C21.3422 18.974 21.1989 19.1152 21.1989 19.3036Z" fill="#44693D"/>
</svg>
