<svg width="42" height="42" viewBox="0 0 42 42" fill="none" xmlns="http://www.w3.org/2000/svg">
<path d="M25.4243 23.2493C25.4919 23.1885 25.546 23.1413 25.5595 23.0535C25.5663 22.9792 24.9848 21.6561 24.9239 21.5886C24.8698 21.5211 24.7751 21.5279 24.694 21.5279C24.6264 21.5954 24.5723 21.6426 24.5655 21.7439C24.5588 21.8114 25.1335 23.1278 25.2011 23.202C25.262 23.2493 25.3499 23.2493 25.4243 23.2493Z" fill="#44693D"/>
<path d="M16.2215 23.2965C16.2891 23.3438 16.3838 23.3303 16.4582 23.3168C16.5528 23.1548 17.087 21.8586 17.06 21.7439C17.0464 21.6831 17.0126 21.6359 16.9585 21.6021C16.8842 21.5616 16.8098 21.5684 16.7286 21.5751C16.6204 21.7439 16.1133 23.0198 16.1404 23.1683C16.1471 23.2223 16.1742 23.2628 16.2215 23.2965Z" fill="#44693D"/>
<path d="M31.1042 12.0297C31.0771 12.0769 31.0568 12.1647 31.0704 12.2119C31.0839 12.266 31.1245 12.2997 31.1718 12.3267C31.3003 12.3875 32.5782 12.347 32.8284 12.347C32.896 12.32 32.9434 12.2997 32.9772 12.2389C33.0042 12.1917 33.0042 12.1377 32.9772 12.0837C32.9434 12.0094 32.8622 11.9689 32.7878 11.9487C32.612 11.9014 31.5099 11.9419 31.2665 11.9487C31.1988 11.9622 31.138 11.9757 31.1042 12.0297Z" fill="#44693D"/>
<path d="M11.3125 15.783C11.2989 15.7763 11.2854 15.7763 11.2719 15.7695C10.9608 15.8911 10.6566 16.0328 10.3455 16.1678C10.19 16.2353 10.0142 16.2893 9.87219 16.3771C9.80458 16.4176 9.7302 16.4716 9.68962 16.5391C9.66934 16.5729 9.66258 16.6269 9.68286 16.6674C9.72343 16.7416 9.82486 16.7956 9.906 16.8159C10.1291 16.7281 11.3733 16.2421 11.4409 16.0801C11.4612 16.0193 11.4612 15.9451 11.4409 15.8911C11.4139 15.8371 11.3665 15.7965 11.3125 15.783Z" fill="#44693D"/>
<path d="M9.83162 7.88477C10.0683 8.03329 11.0961 8.58009 11.3192 8.54634C11.3801 8.49233 11.4409 8.43833 11.4477 8.35057C11.4477 8.34382 11.4477 8.33707 11.4477 8.33032C11.4477 8.32357 11.4477 8.31681 11.4477 8.31006C11.4477 8.30331 11.4477 8.29656 11.4409 8.28981C11.4409 8.28306 11.4342 8.27631 11.4342 8.26956C11.4342 8.26281 11.4274 8.25606 11.4274 8.24931C11.4274 8.24256 11.4206 8.23581 11.4206 8.23581C11.4139 8.22906 11.4139 8.22231 11.4071 8.22231C11.4004 8.21556 11.4004 8.21555 11.3936 8.2088C11.2448 8.07379 10.217 7.58099 9.9939 7.49998C9.92629 7.47298 9.86543 7.47298 9.79781 7.47973C9.74372 7.54724 9.68286 7.61475 9.68962 7.70925C9.69639 7.79701 9.764 7.84427 9.83162 7.88477Z" fill="#44693D"/>
<path d="M28.1966 5.12375C28.3927 4.99549 29.4881 3.99639 29.5287 3.82087C29.5422 3.77362 29.5287 3.73987 29.5084 3.69261C29.4475 3.63186 29.3867 3.6116 29.2988 3.60485C29.0756 3.73987 28.0478 4.65796 27.987 4.88748C27.9735 4.93473 27.9735 5.00224 28.0073 5.04274C28.0546 5.1035 28.1222 5.12375 28.1966 5.12375Z" fill="#44693D"/>
<path d="M24.6129 2.64626C24.6602 2.68676 24.7481 2.70702 24.809 2.71377C24.9848 2.56525 25.5663 1.34338 25.6001 1.10711C25.6068 1.05985 25.5933 1.0126 25.5595 0.978846C25.5054 0.911339 25.4378 0.91809 25.3634 0.91809H25.3093C25.1809 1.0261 24.5385 2.36948 24.5385 2.518C24.5317 2.572 24.5723 2.61926 24.6129 2.64626Z" fill="#44693D"/>
<path d="M16.8909 2.72052C16.918 2.72052 16.9382 2.72052 16.9653 2.72052C17.0262 2.66651 17.0735 2.62601 17.1005 2.545C17.0938 2.45724 16.5123 1.10711 16.4446 0.985597C16.4244 0.951843 16.3973 0.924841 16.3703 0.897838C16.3297 0.864085 16.2553 0.857334 16.208 0.843833C16.1336 0.897838 16.093 0.938342 16.0795 1.03285C16.066 1.15436 16.6137 2.5315 16.7151 2.65301C16.7692 2.70026 16.8368 2.72052 16.8909 2.72052Z" fill="#44693D"/>
<path d="M20.7857 2.01845C20.806 2.01845 20.8263 2.01845 20.8533 2.01845C20.9142 1.98469 20.9683 1.97119 20.9953 1.90369C21.0426 1.78217 21.0156 0.162016 20.9683 0.10126C20.9142 0.020252 20.8263 0.0135013 20.7384 0C20.6707 0.0472546 20.6437 0.0945092 20.6234 0.175517C20.5828 0.371286 20.5626 1.80243 20.6369 1.92394C20.6707 1.98469 20.7181 2.00495 20.7857 2.01845Z" fill="#44693D"/>
<path d="M21.0224 24.1539C21.0967 23.9108 21.0562 23.0265 21.0494 22.7497C21.0494 22.6417 21.0494 22.4932 20.9683 22.4122C20.9074 22.3514 20.833 22.3447 20.7451 22.3447C20.6234 22.4527 20.6234 22.5472 20.6167 22.7025C20.6031 23.04 20.5693 23.9176 20.6572 24.2079C20.7384 24.2821 20.8263 24.2754 20.9345 24.2754C20.975 24.2349 21.0088 24.2011 21.0224 24.1539Z" fill="#44693D"/>
<path d="M30.4077 8.47208C30.6782 8.38432 30.9351 8.26281 31.1988 8.16155C31.422 8.07379 31.7195 7.99953 31.9156 7.86452C31.9562 7.83752 31.9764 7.81727 31.9967 7.77001C32.0238 7.7025 32.0238 7.61475 31.9832 7.55399C31.9494 7.49998 31.8885 7.47298 31.8209 7.46623C31.5302 7.56074 30.313 7.96578 30.1913 8.20205C30.171 8.23581 30.1778 8.25606 30.1778 8.29656C30.2049 8.36407 30.2928 8.43158 30.3604 8.46533C30.3739 8.46533 30.3942 8.46533 30.4077 8.47208Z" fill="#44693D"/>
<path d="M10.6633 12.3875C10.7242 12.3267 10.7918 12.266 10.7986 12.1714C10.7986 12.1377 10.785 12.1039 10.7647 12.0769C10.7174 12.0229 10.6025 11.9959 10.5281 11.9824C10.3252 11.9554 10.1021 11.9757 9.89924 11.9757C9.55439 11.9757 9.20278 11.9757 8.85793 11.9824C8.79031 12.0297 8.70241 12.0972 8.68888 12.1917C8.68212 12.2187 8.70241 12.2524 8.72269 12.2727C8.87821 12.455 10.3388 12.4077 10.6633 12.3875Z" fill="#44693D"/>
<path d="M32.1658 16.6336C32.1725 16.5796 32.1522 16.5256 32.1184 16.4851C32.017 16.3636 30.6038 15.8641 30.4077 15.8438C30.3401 15.9046 30.286 15.9788 30.286 16.0733C30.286 16.1206 30.2928 16.1476 30.3198 16.1881C30.455 16.3096 31.8006 16.8361 31.9967 16.8294C32.0711 16.7821 32.1522 16.7281 32.1658 16.6336Z" fill="#44693D"/>
<path d="M12.5634 20.6773C12.7933 20.4883 13.8819 19.4554 13.9428 19.2259C13.9293 19.1584 13.9293 19.1381 13.8752 19.0909C13.8414 19.0639 13.7737 19.0436 13.7264 19.0301C13.5506 19.1044 12.3605 20.2655 12.32 20.4072C12.3064 20.4545 12.3064 20.522 12.3402 20.5625C12.3943 20.6368 12.489 20.6638 12.5634 20.6773Z" fill="#44693D"/>
<path d="M28.8322 19.8604C28.6294 19.6512 28.44 19.4149 28.2169 19.2259C28.1425 19.1584 28.0884 19.1719 27.9938 19.1719C27.9397 19.2394 27.8856 19.2934 27.8856 19.3879C27.8856 19.4419 27.9058 19.4824 27.9397 19.5229C28.1425 19.7794 28.4062 20.009 28.6294 20.2452C28.8187 20.441 29.0215 20.7043 29.2379 20.8663C29.292 20.9068 29.3529 20.9 29.4205 20.8865C29.4272 20.8865 29.434 20.8865 29.4408 20.8798C29.4949 20.8258 29.549 20.792 29.5692 20.711C29.5625 20.657 29.5557 20.6233 29.5219 20.576C29.3258 20.3195 29.0554 20.09 28.8322 19.8604Z" fill="#44693D"/>
<path d="M2.60328 24.3699C2.63033 24.3429 2.64385 24.3091 2.65062 24.2686C2.65738 24.2146 2.62357 24.1606 2.583 24.1336C2.40719 23.9986 1.58226 24.0661 1.32531 24.0661C1.08865 24.0661 0.216377 24.0054 0.060856 24.1606C0.0202853 24.2011 0.0135236 24.2214 0 24.2754C0.00676178 24.3361 0.00676177 24.3631 0.060856 24.3969C0.216377 24.5319 1.16979 24.4644 1.42673 24.4644C1.67016 24.4711 2.42748 24.5387 2.60328 24.3699Z" fill="#44693D"/>
<path d="M12.1509 24.2281C12.1306 24.1674 12.1103 24.1404 12.063 24.0999C11.8196 24.0189 10.1494 24.0729 9.79105 24.0729C9.71667 24.0796 9.66258 24.0864 9.60848 24.1471C9.56115 24.2011 9.54087 24.2619 9.5341 24.3294C9.56115 24.3901 9.57467 24.4239 9.64229 24.4509C9.83162 24.5252 11.5964 24.4711 11.9481 24.4779C12.0224 24.4711 12.063 24.4711 12.1171 24.4171C12.1577 24.3564 12.1712 24.3024 12.1509 24.2281Z" fill="#44693D"/>
<path d="M6.10588 20.7853C6.11941 20.7853 6.12617 20.792 6.13969 20.792C6.20731 20.7583 6.26817 20.7448 6.28845 20.657C6.33578 20.4748 6.33578 18.3145 6.26817 18.2133C6.23436 18.1593 6.15998 18.1323 6.10588 18.1188C6.03827 18.139 5.97065 18.1525 5.93008 18.2133C5.86246 18.4361 5.8557 20.5288 5.93008 20.6705C5.97065 20.7515 6.03827 20.7718 6.10588 20.7853Z" fill="#44693D"/>
<path d="M8.73621 21.9734C8.92554 21.8721 10.4943 20.333 10.5484 20.1777C10.5687 20.117 10.5619 20.0765 10.5348 20.0225C10.4605 19.9482 10.4131 19.928 10.3049 19.928C10.2982 19.928 10.2914 19.928 10.2847 19.928L9.09459 21.0958C8.91202 21.2713 8.70241 21.4469 8.54688 21.6426C8.50631 21.6899 8.47927 21.7371 8.47927 21.7979C8.47927 21.8451 8.49279 21.8586 8.51308 21.8991C8.58746 21.9531 8.64831 21.9734 8.73621 21.9734Z" fill="#44693D"/>
<path d="M3.47555 26.5841C3.15099 26.8676 2.86023 27.1984 2.55595 27.5022C2.27196 27.7857 1.94063 28.0692 1.68368 28.3865C1.64987 28.427 1.61606 28.4743 1.61606 28.535C1.61606 28.5958 1.63635 28.6431 1.68368 28.6836C1.74454 28.7376 1.81892 28.7511 1.90006 28.7443C2.26519 28.427 2.58976 28.0557 2.93461 27.7115C3.21861 27.4212 3.53641 27.1377 3.80012 26.8271C3.69869 26.6989 3.63107 26.6111 3.47555 26.5841Z" fill="#44693D"/>
<path d="M1.94739 19.8942C1.88654 19.8537 1.81216 19.8537 1.74454 19.8537C1.69044 19.9212 1.62283 19.9955 1.63635 20.09C1.64311 20.144 1.67692 20.1845 1.71073 20.225C2.04206 20.6233 2.45452 20.9811 2.81966 21.3523C2.9887 21.5211 3.17803 21.7709 3.37413 21.9059C3.44174 21.9531 3.54317 21.9531 3.61755 21.9464C3.67841 21.8856 3.73926 21.8316 3.7325 21.7371C3.7325 21.6764 3.70545 21.6359 3.66488 21.5886C3.46203 21.3456 3.19832 21.1363 2.97518 20.9135C2.70471 20.6435 2.24491 20.1035 1.94739 19.8942Z" fill="#44693D"/>
<path d="M6.36283 28.0355C6.35607 27.968 6.35607 27.9275 6.3155 27.8735C6.23436 27.8262 6.15322 27.8262 6.06531 27.8262C5.9436 27.941 5.96389 28.0828 5.95712 28.238C5.95036 28.5485 5.90303 30.5062 6.01798 30.6345C6.06531 30.6885 6.12617 30.6953 6.19379 30.6885C6.20731 30.6885 6.2276 30.6818 6.24112 30.6818C6.29521 30.6413 6.35607 30.6075 6.36959 30.54C6.41016 30.3105 6.37635 29.9932 6.37635 29.7502C6.36959 29.1899 6.4034 28.5958 6.36283 28.0355Z" fill="#44693D"/>
<path d="M9.88572 27.725C9.55439 27.3942 9.22306 26.9824 8.8444 26.7056C8.78355 26.6651 8.72945 26.6516 8.65507 26.6381C8.58069 26.6719 8.50631 26.7056 8.48603 26.7866C8.47251 26.8406 8.48603 26.8744 8.51308 26.9216C8.74974 27.2592 9.25687 27.6845 9.56115 27.9882C9.81134 28.2448 10.0548 28.5418 10.3252 28.7646C10.3793 28.8051 10.4267 28.8186 10.4875 28.8321C10.5619 28.7916 10.643 28.7511 10.6633 28.6566C10.6836 28.5755 10.6498 28.5215 10.6025 28.4608C10.3928 28.2043 10.1224 27.968 9.88572 27.725Z" fill="#44693D"/>
<path d="M11.4071 3.14581C11.8128 3.5576 12.2929 3.92888 12.7257 4.31367C12.9218 4.48919 13.3613 4.94824 13.5641 5.04949C13.6317 5.08325 13.6791 5.0765 13.7535 5.06975C13.8075 5.00899 13.8752 4.94148 13.8752 4.84697C13.8752 4.80647 13.8549 4.77272 13.8278 4.74572C13.6047 4.48244 13.2463 4.21916 12.9826 3.98289C12.6851 3.71961 12.3808 3.45634 12.0833 3.19981C11.9413 3.0783 11.7993 2.93654 11.6505 2.83528C11.5829 2.78802 11.5018 2.80827 11.4274 2.81503C11.3801 2.88253 11.3327 2.95004 11.353 3.0378C11.353 3.08505 11.3733 3.11205 11.4071 3.14581Z" fill="#44693D"/>
<path d="M1.59578 13.5891C1.74454 13.6971 2.11644 13.6566 2.299 13.6566C2.299 13.8254 2.23815 14.2844 2.35986 14.4059C2.38691 14.4329 2.42748 14.4532 2.46129 14.4734C2.5289 14.4599 2.60328 14.4464 2.64385 14.3857C2.7588 14.2169 2.68443 13.8591 2.69119 13.6566C2.84671 13.6566 3.24565 13.6971 3.3606 13.5891C3.40117 13.5486 3.42146 13.5148 3.42146 13.4541C3.42146 13.3933 3.38765 13.3528 3.33356 13.3191C3.19156 13.2178 2.85347 13.265 2.68443 13.265C2.68443 13.0963 2.75204 12.5967 2.61681 12.482C2.57624 12.4482 2.51538 12.4415 2.46805 12.4347C2.39367 12.4752 2.3531 12.509 2.31929 12.59C2.25167 12.7925 2.299 13.0625 2.29224 13.2786C2.10291 13.2786 1.71073 13.2178 1.56197 13.3326C1.5214 13.3663 1.50111 13.4203 1.50788 13.4743C1.5214 13.5148 1.54845 13.5553 1.59578 13.5891Z" fill="#44693D"/>
<path d="M6.41693 36.7236C6.28169 36.7101 6.13969 36.7236 6.00446 36.7236C5.99093 36.5346 6.03827 36.143 5.88951 36.008C5.8557 35.9743 5.79484 35.9608 5.74751 35.9473C5.67313 35.981 5.6258 36.0013 5.59199 36.0823C5.51085 36.2646 5.55818 36.5211 5.55142 36.7168C5.32828 36.7168 4.94286 36.6696 4.78734 36.8586C4.76029 36.8924 4.76029 36.8924 4.76029 36.9329C4.7941 37.0139 4.86172 37.0544 4.94286 37.0881C5.13219 37.1624 5.35533 37.1421 5.55142 37.1354C5.55142 37.3042 5.51761 37.6282 5.63932 37.7497C5.68665 37.8037 5.7678 37.8105 5.83541 37.8105C5.84217 37.8105 5.84894 37.8105 5.86246 37.8105C5.9977 37.6687 5.97065 37.4932 5.97065 37.3042C5.97065 37.2501 5.96389 37.1961 5.97065 37.1354C6.16674 37.1421 6.57245 37.2029 6.72121 37.0544C6.73473 37.0409 6.74825 37.0274 6.76178 37.0071L6.74825 36.9531L6.76178 37.0004C6.78882 36.9329 6.78882 36.9261 6.7753 36.8586C6.68063 36.7641 6.55216 36.7371 6.41693 36.7236Z" fill="#44693D"/>
<path d="M38.6774 37.3447C38.5218 37.2434 38.177 37.2974 37.9877 37.2974C37.9877 37.0949 38.035 36.7303 37.8998 36.5751C37.8389 36.5076 37.7713 36.4941 37.6834 36.4941C37.5752 36.6021 37.5414 36.7101 37.5481 36.8654C37.5481 37.0004 37.5549 37.1354 37.5617 37.2704C37.3182 37.2704 36.9463 37.2299 36.7705 37.4257C36.7435 37.4527 36.7435 37.4594 36.7367 37.4999C36.7705 37.5809 36.8382 37.6214 36.9125 37.6484C37.1154 37.7294 37.3385 37.7092 37.5481 37.7092C37.5617 37.8915 37.5143 38.3033 37.6699 38.4248C37.7239 38.4653 37.7916 38.4653 37.8592 38.4653C37.9606 38.3775 37.9809 38.3303 37.9944 38.1952C38.0079 38.0332 37.9877 37.8645 37.9944 37.7024C38.1838 37.7024 38.5895 37.7564 38.7247 37.6147C38.7653 37.5742 38.7788 37.5202 38.7653 37.4662C38.7585 37.4122 38.7247 37.3717 38.6774 37.3447Z" fill="#44693D"/>
<path d="M38.7112 8.91762C38.9478 9.09314 39.2183 9.13364 39.5023 9.11339C39.793 9.03913 40.0297 8.90412 40.1852 8.6341C40.3137 8.40457 40.361 8.1278 40.2934 7.87802C40.2867 7.86452 40.2867 7.85102 40.2799 7.83077C40.2731 7.81727 40.2664 7.80376 40.2664 7.79026C40.2596 7.77676 40.2528 7.76326 40.2461 7.74976C40.2393 7.73626 40.2326 7.72276 40.2258 7.70925C40.219 7.69575 40.2123 7.68225 40.2055 7.66875C40.1988 7.65525 40.192 7.64175 40.1785 7.62825C40.1717 7.61475 40.1582 7.60124 40.1514 7.58774C40.1447 7.57424 40.1311 7.56074 40.1244 7.54724C40.1176 7.53374 40.1041 7.52024 40.0973 7.51349C40.0838 7.49998 40.077 7.49323 40.0635 7.47973C40.05 7.46623 40.0432 7.45948 40.0297 7.44598C40.0162 7.43248 40.0094 7.42573 39.9959 7.41223C39.9824 7.40548 39.9689 7.39197 39.9621 7.38522C39.9486 7.37847 39.935 7.36497 39.9215 7.35822C39.908 7.35147 39.8945 7.33797 39.881 7.33122C39.8674 7.32447 39.8539 7.31772 39.8404 7.31097C39.6443 7.20296 39.4482 7.17595 39.2318 7.1827C38.9613 7.22321 38.7247 7.33122 38.5489 7.55399C38.3866 7.76326 38.319 8.03329 38.3528 8.28981C38.3866 8.53959 38.5083 8.76236 38.7112 8.91762ZM38.7991 8.12105C38.7991 8.10079 38.8058 8.08729 38.8058 8.06704C38.8058 8.04679 38.8126 8.03329 38.8194 8.01303C38.8734 7.82402 38.9952 7.71601 39.1574 7.62825C39.2792 7.61475 39.4076 7.608 39.5226 7.6485C39.5361 7.65525 39.5564 7.662 39.5699 7.66875C39.5834 7.6755 39.6037 7.68225 39.6172 7.69575C39.6308 7.7025 39.6443 7.71601 39.6646 7.72276C39.6781 7.73626 39.6916 7.74301 39.7051 7.75651C39.7187 7.77001 39.7322 7.78351 39.7457 7.79701C39.7592 7.81051 39.766 7.82402 39.7795 7.83752C39.793 7.85102 39.7998 7.86452 39.8066 7.88477C39.8133 7.89827 39.8269 7.91853 39.8336 7.93203C39.8877 8.05354 39.9012 8.20205 39.8471 8.33032C39.793 8.47208 39.6713 8.58684 39.5293 8.65435C39.4212 8.6746 39.3062 8.69485 39.198 8.66785C39.0628 8.6341 38.9411 8.54634 38.8734 8.43158C38.8667 8.41807 38.8599 8.39782 38.8464 8.38432C38.8396 8.37082 38.8329 8.35057 38.8261 8.33707C38.8194 8.32357 38.8126 8.30331 38.8126 8.28981C38.8058 8.26956 38.8058 8.25606 38.8058 8.23581C38.8058 8.21555 38.7991 8.20205 38.7991 8.1818C38.7991 8.1548 38.7991 8.13455 38.7991 8.12105Z" fill="#44693D"/>
<path d="M3.69193 4.80647C3.69193 4.81997 3.69869 4.84022 3.69869 4.85373C3.69869 4.86723 3.70545 4.88748 3.70545 4.90098C3.70545 4.91448 3.71221 4.93473 3.71898 4.94824C3.72574 4.96174 3.72574 4.98199 3.7325 4.99549C3.73926 5.00899 3.74602 5.02924 3.74602 5.04274C3.75279 5.05624 3.75955 5.0765 3.76631 5.09C3.77307 5.1035 3.77983 5.117 3.78659 5.13725C3.79336 5.15075 3.80012 5.16426 3.80688 5.18451C3.81364 5.19801 3.8204 5.21151 3.83393 5.22501C3.84069 5.23851 3.85421 5.25201 3.86097 5.26552C3.86774 5.27902 3.88126 5.29252 3.88802 5.30602C3.89478 5.31952 3.90831 5.33302 3.92183 5.34652C3.93535 5.36002 3.94212 5.37353 3.95564 5.38028C3.96916 5.39378 3.97592 5.40728 3.98945 5.41403C4.00297 5.42753 4.01649 5.43428 4.02326 5.44778C4.03678 5.46128 4.0503 5.46804 4.06383 5.48154C4.07735 5.49504 4.09087 5.50179 4.1044 5.50854C4.11792 5.51529 4.13145 5.52879 4.14497 5.53554C4.15849 5.54229 4.17202 5.55579 4.18554 5.56254C4.38839 5.67731 4.61829 5.71106 4.84819 5.67731C5.14571 5.5963 5.38914 5.47479 5.55142 5.19801C5.68665 4.96849 5.7137 4.70521 5.63932 4.44869C5.63256 4.43518 5.63256 4.41493 5.6258 4.40143C5.61904 4.38793 5.61227 4.36768 5.60551 4.35418C5.59875 4.34067 5.59199 4.32042 5.58523 4.30692C5.57846 4.29342 5.5717 4.27992 5.56494 4.25967C5.55818 4.24617 5.55142 4.23266 5.53789 4.21241C5.53113 4.19891 5.51761 4.18541 5.51085 4.17191C5.50409 4.15841 5.49056 4.14491 5.4838 4.1314C5.47704 4.1179 5.46352 4.1044 5.45675 4.0909C5.44323 4.0774 5.43647 4.0639 5.42294 4.0504C5.40942 4.0369 5.40266 4.02339 5.38914 4.01664C5.37561 4.00314 5.36885 3.98964 5.35533 3.98289C5.3418 3.96939 5.32828 3.96264 5.31476 3.94914C5.30123 3.93564 5.28771 3.92888 5.27419 3.91538C5.26066 3.90863 5.24714 3.89513 5.23361 3.88838C5.22009 3.88163 5.20657 3.86813 5.19304 3.86138C5.17952 3.85463 5.166 3.84113 5.15247 3.83438C4.96314 3.73312 4.77381 3.71286 4.5642 3.71961C4.26668 3.79387 4.00297 3.90188 3.83393 4.17191C3.82717 4.18541 3.81364 4.19891 3.80688 4.21241C3.80012 4.22591 3.79336 4.23942 3.78659 4.25967C3.77983 4.27317 3.77307 4.28667 3.76631 4.30692C3.75955 4.32042 3.75279 4.34067 3.74602 4.35418C3.73926 4.36768 3.7325 4.38793 3.7325 4.40143C3.72574 4.41493 3.72574 4.43518 3.71898 4.44869C3.71221 4.46219 3.71222 4.48244 3.70545 4.49594C3.69869 4.50944 3.69869 4.52969 3.69869 4.5432C3.69869 4.5567 3.69193 4.57695 3.69193 4.59045C3.69193 4.60395 3.69193 4.6242 3.68517 4.6377C3.68517 4.65121 3.68517 4.67146 3.68517 4.68496C3.68517 4.69846 3.68517 4.71871 3.68517 4.73221C3.69193 4.77272 3.69193 4.79297 3.69193 4.80647ZM4.13145 4.6377C4.13145 4.61745 4.13821 4.5972 4.13821 4.5837C4.14497 4.56345 4.14497 4.54995 4.15173 4.52969C4.15849 4.50944 4.16525 4.49594 4.17202 4.47569C4.17878 4.45544 4.18554 4.44194 4.19906 4.42843C4.29373 4.27317 4.44925 4.19891 4.62505 4.15841C4.74677 4.15841 4.85496 4.17866 4.96314 4.23942C5.15247 4.35418 5.22685 4.5432 5.28095 4.74572C5.26066 4.80647 5.24714 4.87398 5.22009 4.92798C5.13219 5.117 4.98343 5.19801 4.7941 5.26552C4.67239 5.27902 4.55068 5.26552 4.44249 5.21151C4.4222 5.20476 4.40868 5.19126 4.39515 5.18451C4.38163 5.17101 4.36135 5.16426 4.34782 5.15075C4.3343 5.13725 4.32078 5.12375 4.30725 5.11025C4.29373 5.09675 4.2802 5.08325 4.26668 5.06975C4.25316 5.05624 4.23963 5.04274 4.23287 5.02249C4.21935 5.00899 4.21259 4.98874 4.20582 4.97524C4.19906 4.95499 4.18554 4.94148 4.17878 4.92123C4.17202 4.90098 4.16525 4.88748 4.15849 4.86723C4.15173 4.84697 4.15173 4.83347 4.14497 4.81322C4.13821 4.79297 4.13821 4.77947 4.13821 4.75922C4.13821 4.73896 4.13821 4.71871 4.13821 4.70521C4.13144 4.67821 4.13145 4.65796 4.13145 4.6377Z" fill="#44693D"/>
<path d="M13.7061 5.31277C13.6926 5.32627 13.6791 5.34652 13.6723 5.36002C13.6588 5.37353 13.652 5.39378 13.6385 5.40728C13.625 5.42753 13.6182 5.44103 13.6115 5.46129C13.6047 5.48154 13.5912 5.49504 13.5844 5.51529C13.5776 5.53554 13.5709 5.54904 13.5574 5.5693C13.5506 5.58955 13.5438 5.60305 13.5371 5.6233C13.5303 5.64355 13.5236 5.6638 13.5168 5.67731C13.51 5.69756 13.5033 5.71781 13.5033 5.73806C13.4965 5.75831 13.4965 5.77857 13.4897 5.79882C13.483 5.81907 13.483 5.83932 13.483 5.85957C13.483 5.87983 13.4762 5.90008 13.4762 5.92033C13.4762 5.94058 13.4762 5.96083 13.4695 5.98109C13.4695 6.00134 13.4695 6.02159 13.4695 6.04184C13.4695 6.06209 13.4695 6.08235 13.4695 6.1026C13.4695 6.12285 13.4695 6.1431 13.4762 6.16335C13.4762 6.18361 13.483 6.20386 13.483 6.22411C13.483 6.24436 13.4897 6.26461 13.4965 6.28487C13.5033 6.30512 13.5033 6.32537 13.51 6.34562C13.5168 6.36587 13.5236 6.38613 13.5303 6.40638C13.5371 6.42663 13.5438 6.44688 13.5506 6.46038C13.5574 6.48063 13.5641 6.50089 13.5709 6.51439C13.5776 6.53464 13.5844 6.54814 13.5979 6.56839C13.6047 6.58865 13.6182 6.60215 13.625 6.6224C13.6317 6.64265 13.6453 6.65615 13.6588 6.6764C13.6723 6.68991 13.6791 6.71016 13.6926 6.72366C13.7061 6.73716 13.7129 6.75741 13.7264 6.77091C13.7399 6.78441 13.7535 6.80467 13.767 6.81817C13.7805 6.83167 13.794 6.84517 13.8075 6.86542C13.8211 6.87892 13.8346 6.89243 13.8481 6.90593C13.8616 6.91943 13.8752 6.93293 13.8954 6.94643C13.909 6.95993 13.9293 6.97343 13.9428 6.98693C13.9563 7.00044 13.9766 7.01394 13.9901 7.02069C14.2335 7.18945 14.504 7.23671 14.7948 7.20971C15.1599 7.12195 15.4777 6.96668 15.6806 6.62915C15.8428 6.35912 15.8766 6.02159 15.7955 5.71781C15.7887 5.69756 15.782 5.67731 15.782 5.66381C15.7752 5.64355 15.7685 5.6233 15.7617 5.6098C15.7549 5.58955 15.7482 5.57605 15.7414 5.55579C15.7347 5.53554 15.7279 5.52204 15.7144 5.50179C15.7076 5.48154 15.6941 5.46804 15.6873 5.44778C15.6806 5.42753 15.667 5.41403 15.6603 5.40053C15.6467 5.38703 15.64 5.36678 15.6265 5.35327C15.6129 5.33977 15.6062 5.31952 15.5927 5.30602C15.5791 5.29252 15.5656 5.27902 15.5521 5.25877C15.5386 5.24526 15.525 5.23176 15.5115 5.21826C15.498 5.20476 15.4845 5.19126 15.4709 5.17776C15.4574 5.16426 15.4439 5.15075 15.4236 5.13725C15.4101 5.12375 15.3898 5.11025 15.3763 5.1035C15.3628 5.09 15.3425 5.08325 15.3289 5.06975C15.3154 5.05624 15.2951 5.04949 15.2816 5.03599C15.2681 5.02924 15.2478 5.01574 15.2275 5.00899C15.0179 4.90098 14.8083 4.86723 14.5716 4.87398C14.22 4.89423 13.9157 5.02924 13.7061 5.31277ZM14.0577 5.53554C14.2133 5.34652 14.4161 5.28577 14.646 5.25877C14.8015 5.26552 14.9368 5.30602 15.072 5.39378C15.241 5.50179 15.3492 5.68406 15.383 5.87983C15.3898 5.90683 15.3898 5.92708 15.3898 5.95408C15.3898 5.98109 15.3898 6.00134 15.3898 6.02834C15.3898 6.05534 15.3898 6.07559 15.383 6.1026C15.383 6.1296 15.3763 6.14985 15.3695 6.17686C15.3628 6.20386 15.356 6.22411 15.3492 6.25111C15.3425 6.27811 15.3357 6.29837 15.3222 6.31862C15.3154 6.33887 15.3019 6.36587 15.2884 6.38613C15.2749 6.40638 15.2613 6.42663 15.2478 6.44688C15.099 6.65615 14.9097 6.73716 14.6663 6.78441C14.4837 6.76416 14.3147 6.71691 14.1727 6.6089C14.0104 6.48739 13.9157 6.30512 13.8954 6.1026C13.8819 5.90683 13.9293 5.69756 14.0577 5.53554Z" fill="#44693D"/>
<path d="M21.1982 3.08505C20.8736 3.0783 20.5355 3.0648 20.2109 3.0918C18.8924 3.16606 17.7159 3.53735 16.5325 4.11115C16.2621 4.23942 15.9105 4.38793 15.7076 4.6107C15.6603 4.65796 15.6265 4.71196 15.6265 4.78622C15.6265 4.84022 15.6603 4.88073 15.7008 4.91448C15.7482 4.95499 15.8158 4.96174 15.8766 4.95499C16.0727 4.92798 16.3635 4.69171 16.5325 4.59045C16.8436 4.40143 17.2155 4.25967 17.5536 4.1314C20.0487 3.15931 22.9359 3.32133 25.2349 4.72546C27.1282 5.87983 28.6902 7.81727 29.2109 9.99773C29.7789 12.3605 29.407 14.7637 28.1155 16.8361C26.9051 18.7803 24.8563 20.0832 22.6452 20.5895C20.4949 21.0823 18.0404 20.6368 16.1742 19.4757C14.1997 18.2403 12.8744 16.2826 12.3673 14.0211C12.0833 12.7587 12.1239 11.4086 12.4417 10.153C12.6175 9.43742 12.9285 8.72185 13.3072 8.08729C13.4695 7.81727 13.6926 7.54049 13.8143 7.25696C13.8549 7.16245 13.8819 7.04094 13.8211 6.95318C13.794 6.91943 13.767 6.90593 13.7264 6.88567C13.652 6.88567 13.6047 6.90593 13.5506 6.95318C13.3613 7.1152 13.2328 7.38522 13.1043 7.59449C13.057 7.6755 13.0029 7.75651 12.9556 7.83752C12.9082 7.91852 12.8609 8.00628 12.8136 8.08729C12.7662 8.1683 12.7257 8.25606 12.6783 8.34382C12.6378 8.43157 12.5972 8.51258 12.5566 8.60034C12.516 8.6881 12.4755 8.77586 12.4417 8.86362C12.4079 8.95138 12.3673 9.03913 12.3335 9.12689C12.2997 9.21465 12.2659 9.30241 12.2321 9.39692C12.1982 9.48468 12.1712 9.57919 12.1441 9.66695C12.1171 9.75471 12.0901 9.84921 12.063 9.94372C12.036 10.0382 12.0157 10.126 11.9886 10.2205C11.9683 10.315 11.9481 10.4095 11.9278 10.4973C11.9075 10.5918 11.8872 10.6863 11.8737 10.7808C11.8602 10.8753 11.8399 10.9698 11.8263 11.0643C11.8128 11.1588 11.7993 11.2534 11.7925 11.3479C11.779 11.4424 11.7723 11.5369 11.7655 11.6314C11.7587 11.7259 11.752 11.8204 11.7452 11.9149C11.6641 14.2101 12.5228 16.6134 14.0915 18.2875C15.7347 20.0427 17.9593 21.1161 20.38 21.1971C22.7669 21.2781 25.2214 20.4815 26.9795 18.8343C27.0336 18.7803 27.0877 18.7331 27.1418 18.6791C27.1959 18.6251 27.25 18.5711 27.3041 18.5238C27.3581 18.4698 27.4055 18.4158 27.4596 18.3618C27.5137 18.3078 27.561 18.2538 27.6083 18.193C27.6557 18.139 27.7098 18.0783 27.7571 18.0243C27.8044 17.9703 27.8518 17.9095 27.8991 17.8487C27.9464 17.788 27.9938 17.734 28.0343 17.6732C28.0817 17.6125 28.1222 17.5517 28.1696 17.491C28.2101 17.4302 28.2575 17.3695 28.298 17.3087C28.3386 17.2479 28.3792 17.1872 28.4197 17.1197C28.4603 17.0589 28.5009 16.9914 28.5415 16.9307C28.582 16.8699 28.6158 16.8024 28.6564 16.7416C28.697 16.6741 28.7308 16.6134 28.7646 16.5459C28.7984 16.4784 28.839 16.4176 28.8728 16.3501C28.9066 16.2826 28.9404 16.2151 28.9742 16.1476C29.008 16.0801 29.0418 16.0126 29.0689 15.9451C29.1027 15.8776 29.1297 15.81 29.1568 15.7425C29.1838 15.675 29.2176 15.6075 29.2447 15.5333C29.2717 15.4658 29.2988 15.3915 29.3258 15.324C29.3529 15.2565 29.3799 15.1822 29.4002 15.1147C29.4272 15.0472 29.4475 14.973 29.4678 14.8987C29.4881 14.8245 29.5084 14.7569 29.5354 14.6827C29.5557 14.6084 29.576 14.5409 29.5963 14.4667C29.6166 14.3924 29.6301 14.3249 29.6504 14.2506C29.6707 14.1764 29.6842 14.1021 29.6977 14.0346C29.7112 13.9604 29.7248 13.8861 29.7383 13.8119C29.7518 13.7376 29.7653 13.6633 29.7789 13.5891C29.7924 13.5148 29.7991 13.4406 29.8127 13.3663C29.8194 13.2921 29.833 13.2178 29.8397 13.1435C29.8465 13.0693 29.8532 12.995 29.86 12.9208C29.8668 12.8465 29.8735 12.7723 29.8735 12.698C29.8803 12.6237 29.8803 12.5495 29.8803 12.4752C29.9547 10.1327 29.1568 7.79701 27.534 6.08235C25.8908 4.31367 23.6527 3.15931 21.1982 3.08505Z" fill="#44693D"/>
<path d="M9.33125 24.0121C9.32449 23.9581 9.31773 23.9041 9.31097 23.8501C9.3042 23.7961 9.29068 23.7421 9.28392 23.6881C9.27039 23.6341 9.26363 23.5801 9.24335 23.5261C9.22982 23.472 9.2163 23.418 9.19602 23.3708C9.18249 23.3168 9.16221 23.2695 9.14192 23.2155C9.12164 23.1615 9.10135 23.1143 9.08106 23.0603C9.06078 23.013 9.03373 22.959 9.01345 22.9117C8.9864 22.8645 8.96611 22.8172 8.93907 22.7632C8.91202 22.716 8.88497 22.6687 8.85793 22.6215C8.83088 22.5742 8.79707 22.527 8.77002 22.4865C8.73621 22.4392 8.70917 22.3987 8.67536 22.3514C8.64155 22.3109 8.60774 22.2637 8.57393 22.2232C8.54012 22.1827 8.49955 22.1422 8.46574 22.1017C8.43194 22.0612 8.39136 22.0207 8.35079 21.9869C8.31022 21.9464 8.26965 21.9126 8.22908 21.8721C8.18851 21.8384 8.14794 21.7979 8.10061 21.7641C7.48529 21.2781 6.6333 20.9811 5.84217 21.0688L5.80837 21.0756C4.90905 21.1768 4.12468 21.5616 3.55669 22.2704C3.52289 22.3109 3.48908 22.3582 3.45527 22.3987C3.42146 22.4392 3.39441 22.4865 3.3606 22.5337C3.33356 22.581 3.29975 22.6215 3.2727 22.6687C3.24565 22.716 3.21861 22.7632 3.19156 22.8105C3.16451 22.8577 3.14423 22.905 3.11718 22.9522C3.09689 22.9995 3.07661 23.0535 3.05632 23.1008C3.03604 23.148 3.01575 23.202 3.00223 23.2493C2.98194 23.3033 2.96842 23.3505 2.9549 23.4045C2.94137 23.4585 2.92785 23.5058 2.91433 23.5598C2.9008 23.6138 2.89404 23.6678 2.88052 23.7151C2.87375 23.7691 2.86023 23.8231 2.85347 23.8771C2.84671 23.9311 2.83995 23.9851 2.83318 24.0391C2.82642 24.0931 2.82642 24.1471 2.82642 24.2011C2.82642 24.2551 2.82642 24.3091 2.82642 24.3631C2.82642 24.4171 2.82642 24.4711 2.83318 24.5252C2.83995 24.5792 2.83995 24.6332 2.84671 24.6872C2.92785 25.45 3.35384 26.2803 3.9624 26.7596C4.64534 27.3064 5.55142 27.644 6.43045 27.5427C7.24862 27.4617 8.08032 26.9959 8.60098 26.3546C9.15545 25.6998 9.42592 24.8694 9.33125 24.0121ZM8.5266 25.7403C8.50631 25.7808 8.47927 25.8213 8.45222 25.8618C8.42517 25.9023 8.39813 25.936 8.37108 25.9765C8.34403 26.017 8.31698 26.0508 8.28318 26.0846C7.7828 26.7191 7.06606 27.0431 6.27493 27.1309C6.2614 27.1309 6.24788 27.1309 6.24112 27.1377C5.55818 27.2052 4.82115 26.9149 4.30049 26.4896C3.74602 26.0373 3.34708 25.288 3.27946 24.5792C3.20508 23.8231 3.4147 23.1345 3.89478 22.5472C4.39515 21.9396 5.11866 21.5954 5.89627 21.5144C6.57921 21.4536 7.26891 21.6764 7.80309 22.0949C8.39136 22.5472 8.79707 23.2695 8.88497 23.9986C8.89174 24.0459 8.89174 24.0931 8.8985 24.1404C8.8985 24.1876 8.90526 24.2349 8.90526 24.2821C8.90526 24.3294 8.90526 24.3766 8.90526 24.4239C8.90526 24.4711 8.8985 24.5184 8.8985 24.5657C8.89174 24.6129 8.89174 24.6602 8.88497 24.7007C8.87821 24.7479 8.87145 24.7952 8.86469 24.8357C8.85793 24.8829 8.8444 24.9234 8.83764 24.9707C8.82412 25.018 8.81736 25.0585 8.80383 25.1057C8.79031 25.153 8.77678 25.1935 8.76326 25.2407C8.74974 25.2812 8.72945 25.3285 8.71593 25.369C8.69564 25.4095 8.68212 25.4567 8.66183 25.4972C8.64155 25.5378 8.62126 25.5783 8.60098 25.6255C8.57393 25.6593 8.55365 25.6998 8.5266 25.7403Z" fill="#44693D"/>
<path d="M41.6728 24.9234C41.4835 24.5319 41.2265 24.1471 41.0034 23.7758C40.4016 22.77 39.7592 21.7911 39.1372 20.7988L37.4535 18.1053C37.3588 17.9568 37.0748 17.437 36.9599 17.3492C36.9125 17.3087 36.8382 17.2952 36.7773 17.2817C36.7097 17.3289 36.6556 17.3694 36.6083 17.437C36.3716 17.761 36.1687 18.1323 35.9524 18.4766L34.6068 20.684L32.9907 23.2965C32.7067 23.7691 32.416 24.2416 32.159 24.7277C32.0779 24.8829 32.0102 25.045 31.9494 25.2137C31.8885 25.3825 31.8412 25.5513 31.8074 25.72C31.5369 27.0229 31.8547 28.4068 32.585 29.5071C32.6053 29.5409 32.6323 29.5746 32.6526 29.6084C32.6797 29.6422 32.6999 29.6759 32.727 29.7097C32.754 29.7434 32.7743 29.7772 32.8014 29.8109C32.8284 29.8447 32.8555 29.8784 32.8825 29.9122C32.9096 29.9459 32.9366 29.9797 32.9637 30.0067C32.9907 30.0404 33.0177 30.0674 33.0448 30.1012C33.0718 30.135 33.0989 30.162 33.1327 30.1957C33.1597 30.2295 33.1936 30.2565 33.2206 30.2835C33.2477 30.3105 33.2815 30.3442 33.3085 30.3712C33.3356 30.3982 33.3694 30.432 33.4032 30.459C33.437 30.486 33.464 30.513 33.4978 30.54C33.5316 30.567 33.5587 30.594 33.5925 30.621C33.6263 30.648 33.6601 30.675 33.6872 30.702C33.721 30.729 33.7548 30.756 33.7886 30.7763C33.8224 30.8033 33.8562 30.8235 33.89 30.8505C33.9238 30.8775 33.9576 30.8978 33.9914 30.9248C34.0253 30.945 34.0591 30.972 34.0996 30.9923C34.1334 31.0125 34.1673 31.0395 34.2078 31.0598C34.2416 31.08 34.2822 31.1003 34.316 31.1205C34.3498 31.1408 34.3904 31.1611 34.4242 31.1813C34.458 31.2016 34.4986 31.2218 34.5324 31.2421C34.573 31.2623 34.6068 31.2826 34.6473 31.2961C34.6879 31.3163 34.7217 31.3298 34.7623 31.3501C34.8029 31.3703 34.8367 31.3838 34.8772 31.3973C34.9178 31.4108 34.9516 31.4311 34.9922 31.4446C35.0328 31.4581 35.0733 31.4716 35.1071 31.4918C35.1477 31.5053 35.1883 31.5188 35.2288 31.5323C35.2694 31.5458 35.31 31.5593 35.3506 31.5728C35.3911 31.5863 35.4317 31.5998 35.4723 31.6066C35.5128 31.6201 35.5534 31.6268 35.594 31.6404C35.6346 31.6539 35.6751 31.6606 35.7157 31.6674C35.7563 31.6741 35.7968 31.6876 35.8374 31.6944C36.1823 31.7619 36.5474 31.8091 36.899 31.8024C38.3731 31.7214 39.6849 31.1948 40.6788 30.0809C41.6255 29.0211 42.0718 27.6845 41.9906 26.2601C41.9636 25.8145 41.8689 25.342 41.6728 24.9234ZM41.612 26.7326C41.612 26.7731 41.612 26.8136 41.6052 26.8474C41.6052 26.8879 41.5984 26.9284 41.5984 26.9621C41.5984 27.0026 41.5917 27.0431 41.5917 27.0769C41.5849 27.1174 41.5849 27.1579 41.5782 27.1917C41.5714 27.2322 41.5714 27.2659 41.5646 27.3064C41.5579 27.3469 41.5511 27.3807 41.5443 27.4212C41.5376 27.4617 41.5308 27.4954 41.5241 27.5359C41.5173 27.5765 41.5105 27.6102 41.497 27.6507C41.4903 27.6912 41.4767 27.725 41.47 27.7655C41.4632 27.806 41.4497 27.8397 41.4429 27.8802C41.4294 27.9207 41.4226 27.9545 41.4091 27.995C41.3956 28.0355 41.3888 28.0692 41.3753 28.1098C41.3618 28.1435 41.3483 28.184 41.3347 28.2178C41.3212 28.2515 41.3077 28.292 41.2942 28.3258C41.2806 28.3595 41.2671 28.4 41.2536 28.4338C41.2401 28.4675 41.2265 28.508 41.2063 28.5418C41.1927 28.5755 41.1725 28.6161 41.1589 28.6498C41.1454 28.6836 41.1251 28.7173 41.1048 28.7578C41.0845 28.7916 41.071 28.8253 41.0507 28.8591C41.0305 28.8928 41.0169 28.9266 40.9966 28.9603C40.9764 28.9941 40.9561 29.0278 40.9358 29.0616C40.9155 29.0954 40.8952 29.1291 40.8749 29.1629C40.8546 29.1966 40.8344 29.2304 40.8141 29.2641C40.7938 29.2979 40.7735 29.3316 40.7465 29.3586C40.7262 29.3924 40.6991 29.4194 40.6788 29.4531C40.6586 29.4869 40.6315 29.5139 40.6112 29.5476C40.5842 29.5814 40.5639 29.6084 40.5368 29.6422C40.5098 29.6692 40.4895 29.7029 40.4625 29.7299C40.4354 29.7569 40.4084 29.7907 40.3881 29.8177C40.361 29.8447 40.334 29.8784 40.3069 29.9054C40.2799 29.9324 40.2528 29.9594 40.2258 29.9932C40.1988 30.0202 40.1717 30.0472 40.1447 30.0742C40.1176 30.1012 40.0906 30.1282 40.0568 30.1552C40.0297 30.1822 39.9959 30.2092 39.9689 30.2362C39.9418 30.2632 39.908 30.2902 39.881 30.3105C39.8539 30.3375 39.8201 30.3577 39.7863 30.3847C39.7525 30.4117 39.7254 30.432 39.6916 30.459C39.6578 30.4792 39.6308 30.5062 39.597 30.5265C39.5631 30.5467 39.5293 30.5737 39.5023 30.594C39.4685 30.6142 39.4347 30.6345 39.4009 30.6615C39.3671 30.6818 39.3332 30.702 39.2994 30.7223C39.2656 30.7425 39.2318 30.7628 39.198 30.783C39.1642 30.8033 39.1304 30.8235 39.0966 30.837C39.0628 30.8573 39.029 30.8708 38.9952 30.891C38.9613 30.9113 38.9275 30.9248 38.887 30.945C38.8532 30.9585 38.8126 30.9788 38.7788 30.9923C38.745 31.0058 38.7044 31.026 38.6706 31.0395C38.6368 31.053 38.5962 31.0665 38.5624 31.08C38.5286 31.0935 38.488 31.107 38.4542 31.1205C38.4204 31.134 38.3798 31.1476 38.346 31.1611C38.3055 31.1746 38.2716 31.1881 38.2311 31.1948C38.1905 31.2083 38.1567 31.2151 38.1161 31.2286C38.0756 31.2421 38.0417 31.2488 38.0012 31.2556C37.9606 31.2623 37.9268 31.2758 37.8862 31.2826C37.8457 31.2893 37.8118 31.2961 37.7713 31.3096C37.7307 31.3163 37.6969 31.3231 37.6563 31.3298C37.6158 31.3366 37.5819 31.3433 37.5414 31.3501C37.5008 31.3568 37.4602 31.3636 37.4264 31.3636C37.3859 31.3703 37.3453 31.3703 37.3115 31.3771C37.2709 31.3838 37.2303 31.3838 37.1965 31.3838C37.156 31.3838 37.1154 31.3906 37.0816 31.3906C37.041 31.3906 37.0004 31.3906 36.9666 31.3973C36.9058 31.3973 36.8449 31.3973 36.7773 31.3973C36.7164 31.3973 36.6556 31.3906 36.588 31.3906C36.5271 31.3838 36.4663 31.3838 36.3986 31.3771C36.3378 31.3703 36.2769 31.3636 36.2161 31.3568C36.1552 31.3501 36.0944 31.3366 36.0335 31.3231C35.9726 31.3096 35.9118 31.2961 35.8509 31.2826C35.7901 31.2691 35.7292 31.2556 35.6684 31.2353C35.6075 31.2218 35.5467 31.2016 35.4858 31.1813C35.4249 31.1611 35.3641 31.1408 35.31 31.1205C35.2491 31.1003 35.195 31.08 35.1342 31.053C35.0733 31.0328 35.0192 31.0058 34.9651 30.9788C34.911 30.9518 34.8502 30.9248 34.7961 30.8978C34.742 30.8708 34.6879 30.8438 34.6271 30.81C34.573 30.783 34.5189 30.7493 34.4648 30.7155C34.4107 30.6818 34.3566 30.648 34.3092 30.6142C34.2552 30.5805 34.2078 30.5467 34.1537 30.5062C34.1199 30.486 34.0929 30.459 34.0591 30.4387C34.0253 30.4185 33.9982 30.3915 33.9644 30.3645C33.9306 30.3375 33.9035 30.3172 33.8765 30.2902C33.8494 30.2632 33.8156 30.243 33.7886 30.216C33.7615 30.189 33.7277 30.162 33.7007 30.135C33.6736 30.1079 33.6466 30.0809 33.6128 30.0539C33.5857 30.0269 33.5587 29.9999 33.5316 29.9729C33.5046 29.9459 33.4776 29.9189 33.4505 29.8919C33.4235 29.8649 33.3964 29.8379 33.3694 29.8042C33.3423 29.7772 33.3153 29.7434 33.295 29.7164C33.2679 29.6894 33.2477 29.6557 33.2206 29.6287C33.1936 29.6016 33.1733 29.5679 33.1462 29.5341C33.1192 29.5004 33.0989 29.4734 33.0786 29.4396C33.0583 29.4059 33.0313 29.3789 33.011 29.3451C32.9907 29.3114 32.9637 29.2776 32.9434 29.2506C32.9231 29.2169 32.9028 29.1831 32.8825 29.1494C32.8622 29.1156 32.8419 29.0818 32.8217 29.0481C32.8014 29.0143 32.7811 28.9806 32.7608 28.9468C32.7405 28.9131 32.7202 28.8793 32.7067 28.8456C32.6864 28.8118 32.6729 28.7781 32.6526 28.7443C32.6323 28.7106 32.6188 28.6768 32.6053 28.6363C32.5918 28.6026 32.5715 28.562 32.558 28.5283C32.5444 28.4945 32.5241 28.454 32.5106 28.4203C32.4971 28.3865 32.4836 28.346 32.47 28.3123C32.4565 28.2785 32.443 28.238 32.4295 28.2043C32.416 28.1705 32.4024 28.13 32.3957 28.0963C32.3821 28.0625 32.3754 28.022 32.3619 27.9815C32.3483 27.941 32.3416 27.9072 32.3281 27.8667C32.3213 27.8262 32.3078 27.7925 32.301 27.752C32.2942 27.7115 32.2807 27.6777 32.274 27.6372C32.2672 27.5967 32.2604 27.563 32.2537 27.5224C32.2469 27.4819 32.2401 27.4482 32.2334 27.4077C32.2199 27.3199 32.2063 27.2322 32.1996 27.1444C32.1928 27.0567 32.1861 26.9689 32.1793 26.8744C32.1725 26.7866 32.1725 26.6989 32.1793 26.6044C32.1793 26.5166 32.1861 26.4288 32.1928 26.3343C32.1996 26.2466 32.2131 26.1588 32.2266 26.0711C32.2401 25.9833 32.2537 25.8955 32.274 25.8078C32.2942 25.72 32.3145 25.6323 32.3416 25.5513C32.3686 25.4635 32.3957 25.3825 32.4227 25.2947C32.5918 24.8222 32.8622 24.4104 33.1124 23.9783C33.6128 23.1278 34.1402 22.2974 34.6541 21.4604C35.3776 20.2857 36.047 19.0436 36.8517 17.923C37.0275 18.1323 37.1627 18.3821 37.3115 18.6116L38.2108 20.0157L40.1852 23.148C40.5707 23.7691 41.1116 24.5454 41.3956 25.2002C41.5714 25.6053 41.639 26.0508 41.6458 26.4896C41.6458 26.5301 41.6458 26.5706 41.6458 26.6044C41.612 26.6516 41.612 26.6921 41.612 26.7326Z" fill="#44693D"/>
<path d="M37.2236 23.1008C37.2912 23.1278 37.3588 23.121 37.4332 23.1143C37.494 23.0873 37.5143 23.0738 37.5414 23.013C37.6022 22.8577 37.7104 22.4324 37.6225 22.2907C37.5887 22.2367 37.5617 22.2164 37.5008 22.1962C37.4738 22.1894 37.4332 22.1894 37.3994 22.1894C37.2506 22.3447 37.183 22.7835 37.1898 22.9995C37.1965 23.0333 37.1965 23.0603 37.2236 23.1008Z" fill="#44693D"/>
<path d="M35.2086 23.445C35.3032 23.5396 35.3844 23.6273 35.5196 23.6543C35.5872 23.6138 35.6075 23.6138 35.6413 23.5396C35.6413 23.3033 35.3506 22.9995 35.1815 22.8375C35.1274 22.7902 35.0936 22.7767 35.026 22.7767C34.9651 22.824 34.9178 22.851 34.8975 22.9252C34.8975 23.1278 35.0666 23.31 35.2086 23.445Z" fill="#44693D"/>
<path d="M34.9584 26.1318C34.9449 26.1318 34.9313 26.1318 34.9178 26.1318C34.7285 26.2263 34.2687 26.4153 34.2011 26.6246C34.1875 26.6651 34.2011 26.6786 34.2078 26.7191C34.2619 26.7799 34.3025 26.8069 34.3904 26.8339C34.5662 26.7596 35.0057 26.5774 35.0936 26.4018C35.1207 26.3546 35.1207 26.3141 35.1004 26.2601C35.0733 26.2061 35.0192 26.1453 34.9584 26.1318Z" fill="#44693D"/>
<path d="M36.3107 23.2088C36.3378 23.2155 36.3716 23.2155 36.3986 23.2223C36.4527 23.1818 36.5068 23.148 36.5339 23.0873C36.5271 22.8712 36.446 22.3987 36.304 22.2434C36.2634 22.2232 36.2296 22.2164 36.1823 22.2097C36.1214 22.2434 36.0673 22.2704 36.0403 22.3447C35.9794 22.5337 36.0876 22.9455 36.189 23.1143C36.2228 23.1615 36.2499 23.1953 36.3107 23.2088Z" fill="#44693D"/>
<path d="M34.8299 25.369C34.857 25.342 34.8705 25.315 34.884 25.2812C34.884 25.2272 34.8772 25.207 34.8367 25.1665C34.7555 25.0787 34.6203 25.0922 34.5189 25.099C34.3092 25.1057 33.9779 25.072 33.8156 25.2137C33.7954 25.261 33.7818 25.288 33.8089 25.342C33.8156 25.3487 33.8156 25.3555 33.8224 25.3622C33.8292 25.369 33.8292 25.3757 33.8359 25.3825C33.8427 25.3892 33.8494 25.396 33.8562 25.4027C33.863 25.4095 33.8697 25.4162 33.8765 25.423C33.8833 25.4297 33.89 25.4365 33.8968 25.4365C33.9035 25.4432 33.9103 25.4432 33.9238 25.45C33.9306 25.4567 33.9374 25.4567 33.9509 25.4567C33.9576 25.4567 33.9712 25.4635 33.9779 25.4635C34.0455 25.477 34.1132 25.477 34.1808 25.477C34.3701 25.477 34.6744 25.5107 34.8299 25.369Z" fill="#44693D"/>
<path d="M34.9449 24.4914C34.999 24.4374 35.026 24.3969 35.053 24.3294C35.0463 24.2484 35.026 24.2079 34.9651 24.1539C34.8029 24.0121 34.4242 23.8703 34.2078 23.8366C34.1402 23.8771 34.0996 23.9041 34.0591 23.9783C34.0523 24.0391 34.0523 24.0661 34.0929 24.1201C34.2416 24.3091 34.715 24.4171 34.9449 24.4914Z" fill="#44693D"/>
<path d="M39.482 26.5368C39.3197 26.4018 39.0222 26.1926 38.8194 26.1521C38.7653 26.2196 38.6976 26.2938 38.7179 26.3883C38.745 26.5571 38.9681 26.6921 39.1033 26.7664C39.2386 26.8406 39.3806 26.9284 39.5429 26.9351C39.6037 26.8811 39.6308 26.8541 39.6511 26.7799C39.6375 26.6651 39.5631 26.6044 39.482 26.5368Z" fill="#44693D"/>
<path d="M38.1094 23.5058C38.1635 23.5531 38.2581 23.5733 38.3257 23.5868C38.4813 23.4383 38.7855 22.9793 38.7991 22.7632C38.7991 22.716 38.7855 22.6687 38.7585 22.635C38.7112 22.581 38.6503 22.5675 38.5827 22.5607C38.4475 22.6755 38.0958 23.2425 38.0688 23.418C38.062 23.4653 38.0823 23.4856 38.1094 23.5058Z" fill="#44693D"/>
<path d="M38.8396 24.3564C38.8937 24.4171 38.9546 24.4171 39.029 24.4239C39.2251 24.3294 39.7052 24.1269 39.7728 23.9243C39.7863 23.8838 39.7863 23.8501 39.766 23.8163C39.7457 23.7623 39.6984 23.7286 39.6443 23.7083C39.6105 23.7016 39.5632 23.7016 39.5226 23.6948C39.34 23.7826 38.8194 23.9986 38.7788 24.2079C38.772 24.2619 38.7991 24.3226 38.8396 24.3564Z" fill="#44693D"/>
<path d="M40.1109 25.1732C39.881 25.0585 39.3671 25.1125 39.1033 25.1395C39.0493 25.207 39.0019 25.2745 39.0154 25.3622C39.0222 25.396 39.0425 25.423 39.0695 25.4432C39.2251 25.558 39.9012 25.5107 40.1109 25.4972C40.1649 25.4297 40.2055 25.3622 40.192 25.2677C40.1852 25.2272 40.1447 25.1935 40.1109 25.1732Z" fill="#44693D"/>
<path d="M37.1019 23.337C36.9734 23.3235 36.8449 23.3235 36.7232 23.337C36.6894 23.337 36.6623 23.3438 36.6285 23.3505C36.5947 23.3573 36.5677 23.364 36.5406 23.364C36.5136 23.3708 36.4798 23.3775 36.4527 23.3843C36.4257 23.391 36.3919 23.3978 36.3648 23.4113C36.3378 23.418 36.304 23.4315 36.2769 23.4383C36.2499 23.4518 36.2161 23.4585 36.189 23.472C36.162 23.4856 36.1349 23.4991 36.1079 23.5126C36.0808 23.5261 36.0538 23.5396 36.0267 23.5531C35.9997 23.5666 35.9726 23.5868 35.9456 23.6003C35.9186 23.6138 35.8915 23.6341 35.8712 23.6476C35.8442 23.6678 35.8239 23.6813 35.7968 23.7016C35.7698 23.7218 35.7495 23.7421 35.7225 23.7623C35.7022 23.7826 35.6751 23.8028 35.6548 23.8231C35.6346 23.8433 35.6075 23.8636 35.5872 23.8906C35.5669 23.9108 35.5467 23.9378 35.5264 23.9581C35.5061 23.9783 35.4858 24.0054 35.4655 24.0324C35.168 24.4036 34.999 24.9032 35.053 25.3757C35.0869 25.6863 35.2221 26.0373 35.3911 26.3006C35.6143 26.6516 35.9726 26.9486 35.9524 27.4009C35.7968 27.5157 35.2086 27.3064 35.1815 27.5697C35.1545 27.8195 35.1409 29.2709 35.2153 29.4464C35.3641 29.5409 35.6481 29.5071 35.8239 29.5004C35.8239 29.7029 35.763 30.162 35.905 30.3172C35.9456 30.3577 35.9929 30.378 36.047 30.3847C36.2566 30.4185 36.8111 30.378 37.0681 30.378C37.2641 30.378 37.6969 30.4387 37.8389 30.3172C37.9403 30.2295 37.9336 30.0607 37.9268 29.9392C37.9268 29.7974 37.9133 29.6557 37.92 29.5071C38.1161 29.5071 38.3798 29.5476 38.5489 29.4531C38.6368 29.2169 38.63 27.7182 38.5489 27.4684C38.4069 27.3739 37.9877 27.4414 37.8051 27.4414C37.8862 26.6111 38.1973 26.6786 38.5218 26.0846C38.8599 25.4702 38.7179 24.5319 38.2852 23.9986C38.0012 23.6543 37.5617 23.3843 37.1019 23.337ZM36.2296 29.9932V29.5071H37.5279V29.9797C37.1695 30.0472 36.6083 29.9932 36.2296 29.9932ZM38.1499 29.1021H35.5872C35.5872 28.9738 35.5669 28.7983 35.6075 28.6768C36.4595 28.6633 37.3182 28.6701 38.1702 28.6701C38.1702 28.8186 38.1635 28.9603 38.1499 29.1021ZM38.1905 27.86C38.1905 28.0017 38.1905 28.1435 38.1837 28.2853C37.8321 28.2515 37.4805 28.2583 37.1289 28.265C36.615 28.265 36.1011 28.2718 35.5872 28.2785V27.8532C36.4595 27.8465 37.325 27.8465 38.1905 27.86ZM38.1364 25.9158C38.0553 26.0576 37.9403 26.1791 37.8321 26.3073C37.5346 26.6651 37.4332 26.9756 37.4197 27.4414H37.0816C37.0816 26.7866 37.0816 26.1318 37.0681 25.477C37.1357 25.5715 37.2168 25.7065 37.325 25.7538C37.4061 25.7875 37.4805 25.7808 37.5617 25.7538C37.5819 25.7268 37.6022 25.7133 37.609 25.6795C37.636 25.4432 37.1289 24.9234 36.9801 24.7412C36.9396 24.7007 36.9058 24.6804 36.8449 24.6804C36.7841 24.6737 36.7164 24.7209 36.6759 24.7614C36.5001 24.9167 36.1146 25.396 36.1146 25.6323C36.1146 25.6998 36.1282 25.72 36.1687 25.7673C36.2228 25.7875 36.2566 25.7943 36.3107 25.7808C36.473 25.747 36.5744 25.531 36.6556 25.4095C36.6556 25.8213 36.6556 26.2331 36.6623 26.6449C36.6623 26.8946 36.6894 27.1647 36.6556 27.4144L36.6218 27.4414C36.5406 27.4482 36.4865 27.4482 36.4054 27.4279C36.3784 27.2862 36.3581 27.1174 36.2972 26.9824C36.0741 26.4558 35.594 26.0576 35.4723 25.4702C35.3979 25.1125 35.4993 24.6872 35.7022 24.3901C35.9253 24.0526 36.2431 23.8636 36.6421 23.7758C36.7502 23.7623 36.8652 23.7556 36.9734 23.7623C36.9937 23.7623 37.014 23.7623 37.0342 23.7691C37.0545 23.7691 37.0748 23.7758 37.0951 23.7758C37.1154 23.7758 37.1357 23.7826 37.156 23.7893C37.1762 23.7961 37.1965 23.7961 37.2168 23.8028C37.2371 23.8096 37.2574 23.8163 37.2777 23.8231C37.298 23.8298 37.3182 23.8366 37.3385 23.8433C37.3588 23.8501 37.3791 23.8568 37.3994 23.8636C37.4197 23.8703 37.4399 23.8771 37.4602 23.8906C37.4805 23.8973 37.5008 23.9108 37.5143 23.9176C37.5346 23.9243 37.5549 23.9378 37.5684 23.9513C37.5887 23.9648 37.6022 23.9716 37.6225 23.9851C37.6428 23.9986 37.6563 24.0121 37.6766 24.0189C37.6969 24.0324 37.7104 24.0459 37.7239 24.0594C37.7375 24.0729 37.7578 24.0864 37.7713 24.0999C37.7848 24.1134 37.8051 24.1269 37.8186 24.1471C37.8321 24.1606 37.8457 24.1809 37.8592 24.1944C38.2987 24.6399 38.4542 25.3622 38.1364 25.9158Z" fill="#44693D"/>
<path d="M15.9646 8.1548C15.924 8.10754 15.8969 8.07379 15.8293 8.06029C15.7482 8.04004 15.667 8.08054 15.6062 8.1278C15.4371 8.25606 15.3289 8.49233 15.2275 8.6746C14.7542 9.51843 14.3891 10.423 14.2876 11.3884C14.1118 13.103 14.5649 14.946 15.6738 16.2826C15.6873 16.3028 15.7076 16.3231 15.7211 16.3366C15.7549 16.3771 15.7887 16.4244 15.8293 16.4649C15.8631 16.5054 15.9037 16.5459 15.9375 16.5864C15.9713 16.6269 16.0119 16.6674 16.0525 16.7079C16.093 16.7484 16.1268 16.7889 16.1674 16.8294C16.208 16.8699 16.2485 16.9104 16.2891 16.9442C16.3297 16.9847 16.3703 17.0184 16.4108 17.0589C16.4514 17.0994 16.492 17.1332 16.5325 17.1669C16.5731 17.2007 16.6137 17.2412 16.661 17.2749C16.7016 17.3087 16.7489 17.3424 16.7895 17.3762C16.8301 17.41 16.8774 17.4437 16.918 17.4775C16.9653 17.5112 17.0059 17.545 17.0532 17.5787C17.1005 17.6125 17.1411 17.6395 17.1884 17.6732C17.2358 17.707 17.2831 17.734 17.3304 17.7677C17.3778 17.7947 17.4251 17.8285 17.4724 17.8555C17.5198 17.8825 17.5671 17.9095 17.6144 17.9433C17.6618 17.9703 17.7091 17.9973 17.7564 18.0243C17.8038 18.0513 17.8511 18.0783 17.9052 18.0985C17.9525 18.1255 18.0066 18.1458 18.0539 18.1728C18.1013 18.1998 18.1554 18.22 18.2027 18.2403C18.25 18.2605 18.3041 18.2875 18.3582 18.3078C18.4123 18.328 18.4596 18.3483 18.5137 18.3685C18.5678 18.3888 18.6152 18.4091 18.6693 18.4293C18.7234 18.4496 18.7707 18.4698 18.8248 18.4833C18.8789 18.5036 18.933 18.5171 18.9803 18.5373C19.0344 18.5508 19.0885 18.5711 19.1426 18.5846C19.1967 18.5981 19.2508 18.6116 19.3049 18.6251C19.359 18.6386 19.4131 18.6521 19.4672 18.6656C19.5212 18.6791 19.5753 18.6926 19.6294 18.6993C19.6835 18.7128 19.7376 18.7196 19.7917 18.7331C19.8458 18.7398 19.8999 18.7533 19.954 18.7601C20.0081 18.7668 20.0622 18.7736 20.1163 18.7871C20.1704 18.7938 20.2245 18.8006 20.2786 18.8073C21.9284 18.9896 23.6324 18.4226 24.9171 17.383C26.3439 16.2353 27.1891 14.5814 27.3717 12.7723C27.3784 12.6777 27.392 12.5832 27.392 12.4955C27.3987 12.401 27.3987 12.3065 27.4055 12.2119C27.4055 12.1174 27.4055 12.0229 27.4055 11.9284C27.4055 11.8339 27.3987 11.7394 27.392 11.6449C27.3852 11.5504 27.3784 11.4559 27.3649 11.3681C27.3514 11.2736 27.3446 11.1791 27.3311 11.0913C27.3176 10.9968 27.3041 10.9091 27.2838 10.8146C27.2635 10.72 27.2432 10.6323 27.2229 10.5378C27.2026 10.45 27.1756 10.3555 27.1485 10.2678C27.1215 10.18 27.0944 10.0855 27.0674 9.99773C27.0403 9.90997 27.0065 9.82221 26.9727 9.73445C26.9389 9.64669 26.9051 9.55894 26.8645 9.47118C26.8307 9.38342 26.7902 9.30241 26.7496 9.21465C26.709 9.12689 26.6684 9.04589 26.6211 8.96488C26.5805 8.88387 26.5332 8.80286 26.4859 8.72185C26.4385 8.64085 26.3912 8.55984 26.3371 8.48558C26.1951 8.26956 26.0193 8.06029 25.857 7.85777C24.8225 6.5954 23.1388 5.75156 21.5227 5.5828C21.1576 5.54904 20.7519 5.50854 20.3935 5.55579C19.0479 5.6503 17.8105 6.09585 16.7151 6.89242C16.5258 7.03419 16.2824 7.1692 16.1268 7.35147C16.093 7.38522 16.0592 7.43923 16.0592 7.48648C16.0592 7.56749 16.0998 7.64175 16.1606 7.69575C16.2012 7.72951 16.2621 7.74976 16.3162 7.74301C16.4649 7.70925 16.8098 7.36497 16.945 7.25696C18.0066 6.44688 19.2508 6.03509 20.5761 5.97434C20.5828 7.05444 20.6099 8.13455 20.5896 9.2079C19.5145 9.21465 18.4461 9.21465 17.371 9.2079C16.7083 9.2079 16.0389 9.2214 15.3763 9.2079C15.4371 9.08639 15.5048 8.95813 15.5791 8.84337C15.7144 8.65435 16.0254 8.37757 15.9646 8.1548ZM25.9382 15.6413C25.9111 15.6818 25.8841 15.729 25.8503 15.7695C25.8232 15.81 25.7894 15.8506 25.7624 15.8911C25.7353 15.9316 25.7015 15.9721 25.6745 16.0126C25.6407 16.0531 25.6136 16.0936 25.5798 16.1341C25.546 16.1746 25.5189 16.2151 25.4851 16.2488C25.4513 16.2893 25.4175 16.3231 25.3837 16.3636C25.3499 16.4041 25.3161 16.4379 25.2823 16.4784C25.2485 16.5121 25.2147 16.5526 25.1741 16.5864C25.1403 16.6201 25.0997 16.6606 25.0659 16.6944C25.0321 16.7281 24.9915 16.7619 24.9577 16.7956C24.9171 16.8294 24.8833 16.8632 24.8428 16.8969C24.8022 16.9307 24.7684 16.9644 24.7278 16.9982C24.6872 17.0319 24.6467 17.0657 24.6129 17.0927C24.5723 17.1264 24.5317 17.1534 24.4912 17.1872C24.4506 17.2209 24.41 17.2479 24.3694 17.2749C24.3289 17.3019 24.2883 17.3357 24.2477 17.3627C24.2072 17.3897 24.1666 17.4167 24.1193 17.4437C24.0787 17.4707 24.0314 17.4977 23.9908 17.5247C23.9502 17.5517 23.9029 17.5787 23.8623 17.599C23.815 17.626 23.7744 17.6462 23.7271 17.6732C23.6797 17.7002 23.6392 17.7205 23.5918 17.7407C23.5445 17.761 23.5039 17.788 23.4566 17.8082C23.4093 17.8285 23.3619 17.8487 23.3214 17.869C23.274 17.8893 23.2267 17.9095 23.1794 17.9298C23.132 17.95 23.0847 17.9703 23.0374 17.9838C22.99 18.004 22.9427 18.0175 22.8954 18.0378C22.848 18.058 22.8007 18.0715 22.7534 18.085C22.706 18.0985 22.6587 18.1188 22.6114 18.1323C22.564 18.1458 22.5167 18.1593 22.4626 18.1728C22.4153 18.1863 22.368 18.1998 22.3139 18.2133C22.2665 18.2268 22.2124 18.2403 22.1651 18.247C22.1178 18.2605 22.0637 18.2673 22.0163 18.2808C21.6918 18.3483 21.3605 18.3753 21.0291 18.4023C21.0088 16.8902 21.0088 15.3713 21.0359 13.8591L25.6947 13.8456L26.7496 13.8524C26.6076 14.4869 26.283 15.1215 25.9382 15.6413ZM26.4656 9.59944C26.9795 10.8551 27.1282 12.0364 26.8645 13.3731L26.851 13.4338C26.8104 13.4743 26.7766 13.4811 26.7225 13.4811C26.1951 13.5013 25.5798 13.4676 25.0456 13.4676H21.0224C21.0156 12.1782 21.0088 10.8821 21.0291 9.59269C21.6783 9.56569 22.3409 9.57919 22.99 9.57919L26.4656 9.59944ZM21.0224 5.96758C22.3612 6.00809 23.7135 6.53464 24.7481 7.37847C25.289 7.82402 25.7421 8.33707 26.1207 8.93112C26.1681 9.00538 26.2627 9.11339 26.2695 9.20115C25.6068 9.2214 24.9442 9.2079 24.2883 9.2079L21.0156 9.21465C21.0291 8.1278 20.975 7.04094 21.0224 5.96758ZM20.5964 18.4158C19.4131 18.3618 18.081 17.842 17.1411 17.1264C16.2891 16.4716 15.6468 15.6615 15.1937 14.6894C15.0788 14.4397 14.9435 14.1426 14.9097 13.8726C15.6062 13.8321 16.3162 13.8726 17.0059 13.8794L20.6099 13.8861L20.5964 18.4158ZM20.6167 9.59944C20.6234 10.8888 20.6167 12.1782 20.6031 13.4676H14.7745C14.5919 12.3672 14.619 11.3141 14.9706 10.2408C15.0382 10.0315 15.1126 9.78846 15.2343 9.59944C17.0262 9.57244 18.8248 9.57244 20.6167 9.59944Z" fill="#44693D"/>
<path d="M28.0073 29.8042L27.7165 28.1705C27.6624 27.8532 27.6286 27.5292 27.5542 27.2187C27.5407 27.1512 27.5137 27.1107 27.4596 27.0702C26.9592 27.0026 26.3844 27.0499 25.8773 27.0499H16.5799C15.5927 27.0499 14.5919 27.0229 13.6047 27.0431C13.5438 27.1174 13.5236 27.1849 13.5033 27.2794C13.3342 28.1503 13.199 29.0346 13.0502 29.9054L12.3808 33.7871L12.1036 35.3735C12.0562 35.6232 11.9616 35.9473 11.9751 36.197C11.9819 36.2578 12.0089 36.3051 12.0562 36.3456C12.1036 36.3793 12.1712 36.3793 12.2253 36.3793C12.7459 36.3996 13.2734 36.3726 13.7873 36.3726H16.9991C17.7699 36.3726 18.5476 36.3523 19.3184 36.3928L19.3116 40.2339L16.8098 40.2407C16.3973 40.2407 15.951 40.2069 15.5386 40.2474C15.4845 40.2542 15.4439 40.2609 15.4033 40.3014C15.2749 40.4297 15.3154 41.3478 15.3222 41.5706C15.3289 41.7123 15.3425 41.8541 15.4439 41.9554C15.6941 42.0364 17.7294 41.9824 18.1554 41.9824H23.3484C24.0854 41.9824 24.8292 42.0026 25.5663 41.9891C25.6745 41.9891 25.7691 41.9756 25.8706 41.9351C26.0261 41.7528 25.9855 40.7132 25.9652 40.4432C25.9652 40.423 25.9652 40.4027 25.9585 40.3825C25.9246 40.3284 25.8976 40.2677 25.8367 40.2542C25.6677 40.2002 24.978 40.2407 24.7616 40.2407C23.7947 40.2407 22.8278 40.2609 21.8608 40.2407L21.8676 36.3793H26.4183C27.2432 36.3793 28.0817 36.4266 28.9066 36.3861C28.9877 36.3793 29.0553 36.3658 29.1297 36.3253C29.2109 36.2038 29.1568 36.0215 29.1297 35.8798L28.0073 29.8042ZM27.1553 27.4684C27.3311 28.3325 27.4528 29.2034 27.6151 30.0674C26.5332 30.0742 25.4513 30.0742 24.3694 30.0742C24.3086 29.6692 24.2883 29.2574 24.2477 28.8523C24.2004 28.3933 24.1395 27.9275 24.1057 27.4684H27.1553ZM23.673 27.4617C23.7474 27.8735 23.7676 28.3123 23.8015 28.7308C23.842 29.1764 23.9029 29.6219 23.9299 30.0607C22.8751 30.0809 21.8203 30.0607 20.7654 30.0674L20.7587 27.4617C21.7323 27.4482 22.706 27.4684 23.673 27.4617ZM20.7722 30.486C21.8405 30.4792 22.9157 30.4792 23.984 30.486C24.0314 30.8033 24.0516 31.1273 24.0787 31.4446C24.1328 32.0724 24.2004 32.7002 24.2613 33.3213C23.0982 33.328 21.9352 33.3145 20.7722 33.3078C20.7722 32.3694 20.7451 31.4243 20.7722 30.486ZM17.4319 27.4684H20.3529C20.3868 28.3325 20.3665 29.1966 20.3665 30.0607L20.0892 30.0674C19.1088 30.0742 18.1351 30.0674 17.1546 30.0607C17.2358 29.1966 17.3304 28.3325 17.4319 27.4684ZM17.3304 30.486C18.3379 30.4725 19.3454 30.4792 20.3462 30.4792C20.38 30.8033 20.3597 31.1543 20.3597 31.4851L20.3529 33.3078H16.7895C16.803 32.896 16.8774 32.4774 16.9247 32.0656C16.9856 31.5391 17.0329 31.0193 17.1005 30.4927L17.3304 30.486ZM13.7399 28.3595C13.794 28.0625 13.8346 27.752 13.9225 27.4617H17.0126C16.9788 27.9275 16.9112 28.3865 16.8639 28.8523C16.8233 29.2304 16.8301 29.6894 16.7151 30.0404C16.661 30.0809 16.5799 30.0674 16.5123 30.0674L13.4424 30.0809C13.5303 29.5004 13.6317 28.9333 13.7399 28.3595ZM16.0119 35.981L15.9375 35.9878C14.7677 35.9743 13.5979 35.981 12.4349 35.981C12.5499 35.2249 12.6783 34.4689 12.8339 33.7196L16.3094 33.7128C16.2756 33.9693 16.0863 35.8933 16.0119 35.981ZM15.5318 33.3078L12.8812 33.301C13.0299 32.3627 13.2057 31.4243 13.3748 30.486L14.0442 30.4792L16.6745 30.4725C16.6272 30.9788 16.5596 31.4783 16.5055 31.9846C16.4582 32.4302 16.4176 32.8757 16.3432 33.3145L15.5318 33.3078ZM18.4191 35.981H16.4446C16.5123 35.2317 16.634 34.4891 16.7083 33.7398L18.5137 33.7331C19.1291 33.7331 19.7444 33.7196 20.3597 33.7331C20.407 34.4824 20.3665 35.2452 20.38 35.9945C19.7241 35.9743 19.0682 35.9743 18.4191 35.981ZM21.4619 36.3793C21.4619 37.6687 21.4822 38.9581 21.4484 40.2474C20.8736 40.2474 20.2988 40.2474 19.7241 40.2474V36.3928L21.4619 36.3793ZM25.5595 40.6592C25.5595 40.9698 25.5527 41.287 25.546 41.5976L22.6114 41.5908L15.7211 41.5976C15.7144 41.287 15.7211 40.9698 15.7211 40.6525C16.7083 40.6322 17.7023 40.6457 18.6963 40.639L25.5595 40.6592ZM20.7722 35.981V33.7196L24.3086 33.7128C24.3492 34.4689 24.4438 35.225 24.5452 35.9743L20.7722 35.981ZM24.4168 30.486L27.7098 30.4792C27.7977 31.1476 27.9532 31.8159 28.0749 32.4774C28.129 32.761 28.1966 33.0445 28.2169 33.3348C27.7503 33.301 27.277 33.3145 26.8037 33.3145H24.6872C24.6061 32.3627 24.4776 31.4243 24.4168 30.486ZM24.9645 35.9878C24.8833 35.2384 24.7819 34.4756 24.7346 33.7196L28.3116 33.7128C28.3792 34.0908 28.4333 34.4689 28.5009 34.8402C28.5685 35.2249 28.6632 35.6097 28.7173 35.9945L24.9645 35.9878Z" fill="#44693D"/>
</svg>
