<svg width="332" height="83" viewBox="0 0 332 83" fill="none" xmlns="http://www.w3.org/2000/svg">
<path d="M41.299 16.1288C39.8044 19.5427 37.8656 22.7958 35.5631 25.808L47.5599 43.078H42.632L50.0643 52.5966C54.7903 47.4959 60.6069 43.5198 66.9083 40.9494C55.679 36.5315 46.0654 27.1736 41.299 16.1288Z" fill="black"/>
<path d="M41.299 65.8503C43.2782 61.3521 45.9442 57.2153 49.2564 53.4802L32.0085 38.5798H37.7444L30.0697 31.8325C25.8284 35.7684 20.9812 38.8609 15.7301 40.9896C26.919 45.4878 36.5326 54.8055 41.299 65.8503Z" fill="black"/>
<path d="M59.8799 4.64227C51.2357 0.264534 40.895 -0.900186 31.4834 1.42925C31.8874 3.39723 32.0489 5.52585 31.9681 7.57416C49.0545 2.55381 68.524 12.5543 74.381 29.262C76.4815 29.4629 78.7031 29.3825 80.7228 29.0211C77.4509 18.4984 69.7762 9.58229 59.8799 4.64227Z" fill="black"/>
<path d="M51.2357 74.9271C33.907 80.3491 13.9932 70.1879 8.17653 53.1187C6.07608 52.9581 3.89485 53.1187 1.87518 53.5203C7.89377 74.0033 31.0795 86.8554 51.7204 81.072C51.3569 79.104 51.1549 76.9754 51.2357 74.9271Z" fill="black"/>
<path d="M119.339 32.3546H102.293V27.8563H114.249V22.1532H102.293V17.655H119.339V11.9519H96.5569V38.0175H119.339V32.3546Z" fill="black"/>
<path d="M145.715 32.3546H130.366V11.9519H124.63V38.0175H145.715V32.3546Z" fill="black"/>
<path d="M173.789 32.3546H156.702V27.8563H168.659V22.1532H156.702V17.655H173.789V11.9519H150.967V38.0175H173.789V32.3546Z" fill="black"/>
<path d="M186.795 37.3348C192.491 39.5035 200.044 38.6601 203.963 33.6398L200.044 29.4629C198.186 32.1136 195.157 32.957 191.966 32.6759C187.765 32.7562 184.533 28.9006 184.776 24.8441C184.695 20.868 187.926 17.2534 191.966 17.3337C195.116 17.0526 198.186 17.8558 200.044 20.5467L203.963 16.3698C199.035 10.2249 188.128 9.9036 182.675 15.4862C176.536 21.7114 178.353 34.0012 186.795 37.3348Z" fill="black"/>
<path d="M217.373 38.0175H223.069V17.655H231.632V11.9519H208.81V17.655H217.373V38.0175Z" fill="black"/>
<path d="M253.687 23.9204C252.838 27.2137 247.789 26.049 245.366 26.2498L253.848 38.0577H260.796L255.383 30.5071C260.553 27.3744 261.159 19.1009 257.08 14.8034C253.606 10.2249 241.73 12.5142 236.883 11.9921V38.0577H242.619V17.655C247.628 17.9763 255.706 15.6067 253.687 23.9204Z" fill="black"/>
<path d="M270.692 11.9519H264.956V38.0175H270.692V11.9519Z" fill="black"/>
<path d="M288.869 38.379C293.474 38.7405 297.958 37.2544 300.866 33.6799L296.948 29.503C295.09 32.1538 292.06 32.9972 288.869 32.716C284.668 32.7562 281.437 28.9006 281.679 24.8441C281.598 20.868 284.83 17.2534 288.869 17.3337C292.02 17.0526 295.09 17.8558 296.948 20.5467L300.866 16.3698C295.978 10.1847 285.072 9.90359 279.619 15.4461C271.823 23.2778 277.195 38.8609 288.869 38.379Z" fill="black"/>
<path d="M103.101 50.7893C104.555 50.1467 106.696 50.3475 108.271 50.3073C111.098 50.0262 113.28 51.1106 114.492 53.7212L119.339 50.6286C116.592 45.4476 111.664 44.2427 106.211 44.6444C96.6377 43.8411 92.3964 54.7654 101.323 58.9423C101.646 59.3439 114.451 61.9144 113.603 63.0791C113.361 65.8101 109.2 64.7257 107.261 64.9667C104.474 65.2479 102.374 64.2036 101.283 61.5931L96.3549 64.5651C98.8997 69.9469 103.868 71.0313 109.321 70.6698C117.279 71.4731 123.095 63.561 116.713 57.4161C115.784 56.2514 104.434 54.0023 102.979 53.44C102.131 52.8777 101.929 51.1106 103.101 50.7893Z" fill="black"/>
<path d="M147.17 48.1385C133.719 36.1299 116.834 53.8818 128.266 67.2159C141.717 79.1843 158.601 61.4324 147.17 48.1385ZM145.11 57.4965C145.473 67.6576 130.406 67.9789 130.366 57.8178C129.962 47.6967 145.069 47.3353 145.11 57.4965Z" fill="black"/>
<path d="M161.832 44.6444H156.097V70.6698H177.182V65.0069H161.832V44.6444Z" fill="black"/>
<path d="M199.519 59.7054C199.802 64.7258 197.419 65.2077 192.976 65.0069C189.3 65.3684 187.886 63.1594 188.169 59.7054V44.6444H182.473C183.362 55.2072 177.909 72.1559 194.712 70.71C209.416 71.5133 204.407 53.7212 205.255 44.6444H199.519V59.7054Z" fill="black"/>
<path d="M210.547 50.3073H219.07V70.6698H224.805V50.3073H233.328V44.6444H210.547V50.3073Z" fill="black"/>
<path d="M244.315 44.6444H238.58V70.71H244.315V44.6444Z" fill="black"/>
<path d="M272.146 48.1385C258.695 36.1299 241.811 53.8818 253.242 67.2159C266.693 79.1843 283.578 61.4324 272.146 48.1385ZM270.086 57.4965C270.45 67.6576 255.383 67.9789 255.343 57.8178C254.939 47.6967 270.046 47.3353 270.086 57.4965Z" fill="black"/>
<path d="M298.16 63.7618L290.162 44.6444H281.073V70.6698H286.809V51.5524L294.766 70.6698H303.855V44.6444H298.16V63.7618Z" fill="black"/>
<path d="M330.757 59.0226C329.182 55.2072 317.912 55.0465 315.165 53.0384C313.63 49.7049 318.962 50.3876 320.901 50.3073C323.728 50.0262 325.91 51.1106 327.121 53.7212L331.969 50.6286C329.222 45.4476 324.294 44.2427 318.841 44.6444C309.268 43.8411 305.026 54.7654 313.953 58.9423C314.276 59.3439 327.081 61.9144 326.233 63.0791C325.99 65.8101 321.83 64.7257 319.891 64.9667C317.104 65.2479 315.004 64.2036 313.913 61.5931L308.985 64.5651C311.085 68.9027 315.205 70.9911 319.891 70.6698C327.323 71.5133 335.079 67.3363 330.757 59.0226Z" fill="black"/>
<path d="M82.4597 37.3749C82.2577 35.3266 81.9346 33.3185 81.4095 31.3907C79.4302 31.7521 77.2893 31.9128 75.1889 31.7923C77.1682 38.7003 76.9258 46.3714 74.4618 53.1589C61.1724 54.2433 51.3569 67.4167 54.1036 80.3892C72.1594 74.8066 84.5601 56.0506 82.4597 37.3749ZM60.6877 70.5494C62.3438 65.6897 66.1812 61.7939 71.0688 60.0669C68.3624 64.2438 64.8078 67.8183 60.6877 70.5494Z" fill="#44693D"/>
<path d="M23.324 4.4013C6.11647 12.4338 -3.5779 32.8767 1.22889 51.1909C3.20816 50.7893 5.30861 50.5885 7.40906 50.6688C5.47018 43.7608 5.79333 36.0897 8.29771 29.3825C21.8294 28.5391 31.9277 15.2854 29.1406 2.15218C27.121 2.71446 25.1821 3.47755 23.324 4.4013ZM11.6503 22.5549C14.4375 18.1771 18.194 14.4821 22.6373 11.7109C20.9408 16.8518 16.8207 20.9082 11.6503 22.5549Z" fill="#44693D"/>
</svg>
