<svg width="223" height="55" viewBox="0 0 223 55" fill="none" xmlns="http://www.w3.org/2000/svg">
<path d="M27.74 10.6208C26.7361 12.9048 25.4338 15.0812 23.8873 17.0965L31.9454 28.6507H28.6353L33.6275 35.0189C36.8019 31.6064 40.7089 28.9462 44.9414 27.2265C37.3988 24.2708 30.9415 18.0101 27.74 10.6208Z" fill="#F4F9F5"/>
<path d="M27.74 43.886C29.0694 40.8766 30.8601 38.1089 33.0849 35.61L21.4997 25.6412H25.3524L20.1974 21.127C17.3486 23.7603 14.0928 25.8293 10.5657 27.2534C18.0811 30.2629 24.5384 36.4967 27.74 43.886Z" fill="#F4F9F5"/>
<path d="M40.2205 2.93595C34.4143 0.00711052 27.4687 -0.772123 21.147 0.786344C21.4183 2.10298 21.5268 3.5271 21.4726 4.89747C32.9492 1.53871 46.0267 8.22937 49.9608 19.4073C51.3716 19.5417 52.8638 19.4879 54.2204 19.2461C52.0228 12.2061 46.8677 6.24098 40.2205 2.93595Z" fill="#F4F9F5"/>
<path d="M34.4143 49.9587C22.7749 53.5861 9.39902 46.788 5.49207 35.3682C4.08122 35.2607 2.61612 35.3682 1.25954 35.6369C5.30214 49.3407 20.8757 57.9391 34.7399 54.0698C34.4957 52.7532 34.3601 51.329 34.4143 49.9587Z" fill="#F4F9F5"/>
<path d="M80.1582 21.4763H68.7087V18.4669H76.7396V14.6513H68.7087V11.6419H80.1582V7.82632H64.856V25.265H80.1582V21.4763Z" fill="#F4F9F5"/>
<path d="M97.8752 21.4763H87.5651V7.82632H83.7125V25.265H97.8752V21.4763Z" fill="#F4F9F5"/>
<path d="M116.732 21.4763H105.255V18.4669H113.286V14.6513H105.255V11.6419H116.732V7.82632H101.402V25.265H116.732V21.4763Z" fill="#F4F9F5"/>
<path d="M125.468 24.8082C129.294 26.2592 134.367 25.6949 136.999 22.3362L134.367 19.5417C133.119 21.3151 131.084 21.8794 128.941 21.6913C126.119 21.745 123.949 19.1655 124.111 16.4516C124.057 13.7915 126.228 11.3732 128.941 11.4269C131.057 11.2388 133.119 11.7762 134.367 13.5765L136.999 10.782C133.689 6.6709 126.363 6.45594 122.701 10.1909C118.577 14.3558 119.797 22.578 125.468 24.8082Z" fill="#F4F9F5"/>
<path d="M146.007 25.265H149.832V11.6419H155.584V7.82632H140.255V11.6419H146.007V25.265Z" fill="#F4F9F5"/>
<path d="M170.398 15.8336C169.828 18.037 166.437 17.2577 164.809 17.3921L170.506 25.2919H175.173L171.537 20.2403C175.01 18.1444 175.417 12.6092 172.677 9.73409C170.344 6.6709 162.367 8.2025 159.111 7.85319V25.2919H162.964V11.6419C166.328 11.8568 171.754 10.2715 170.398 15.8336Z" fill="#F4F9F5"/>
<path d="M181.82 7.82632H177.968V25.265H181.82V7.82632Z" fill="#F4F9F5"/>
<path d="M194.03 25.5069C197.123 25.7487 200.134 24.7545 202.088 22.3631L199.456 19.5686C198.208 21.342 196.173 21.9063 194.03 21.7182C191.208 21.745 189.037 19.1655 189.2 16.4516C189.146 13.7915 191.316 11.3732 194.03 11.4269C196.146 11.2388 198.208 11.7762 199.456 13.5765L202.088 10.782C198.805 6.64403 191.479 6.45594 187.816 10.164C182.58 15.4037 186.188 25.8293 194.03 25.5069Z" fill="#F4F9F5"/>
<path d="M69.2513 33.8097C70.2281 33.3798 71.666 33.5141 72.7242 33.4873C74.6234 33.2992 76.0885 34.0247 76.9024 35.7712L80.1582 33.7022C78.3133 30.236 75.0032 29.4299 71.3405 29.6986C64.9103 29.1612 62.0614 36.4699 68.0575 39.2644C68.2746 39.5331 76.8753 41.2527 76.3055 42.032C76.1427 43.8591 73.3482 43.1336 72.0459 43.2949C70.1738 43.483 68.7629 42.7843 68.0304 41.0378L64.7203 43.0262C66.4296 46.6268 69.7668 47.3523 73.4296 47.1104C78.7745 47.6478 82.6815 42.3544 78.3947 38.2433C77.7706 37.4641 70.1467 35.9593 69.1699 35.5831C68.6002 35.207 68.4645 34.0247 69.2513 33.8097Z" fill="#F4F9F5"/>
<path d="M98.8519 32.0363C89.8171 24.0021 78.4761 35.8787 86.1543 44.7996C95.1891 52.8069 106.53 40.9303 98.8519 32.0363ZM97.4682 38.297C97.7124 45.0952 87.5923 45.3101 87.5651 38.512C87.2938 31.7407 97.441 31.4989 97.4682 38.297Z" fill="#F4F9F5"/>
<path d="M108.701 29.6986H104.848V47.1104H119.011V43.3217H108.701V29.6986Z" fill="#F4F9F5"/>
<path d="M134.014 39.7749C134.204 43.1337 132.604 43.4561 129.619 43.3217C127.15 43.5636 126.201 42.0857 126.39 39.7749V29.6986H122.565C123.162 36.7654 119.499 48.1046 130.786 47.1373C140.662 47.6747 137.297 35.7712 137.867 29.6986H134.014V39.7749Z" fill="#F4F9F5"/>
<path d="M141.421 33.4873H147.146V47.1104H150.999V33.4873H156.724V29.6986H141.421V33.4873Z" fill="#F4F9F5"/>
<path d="M164.103 29.6986H160.251V47.1373H164.103V29.6986Z" fill="#F4F9F5"/>
<path d="M182.797 32.0363C173.762 24.0021 162.421 35.8787 170.099 44.7996C179.134 52.8069 190.475 40.9303 182.797 32.0363ZM181.413 38.297C181.658 45.0952 171.537 45.3101 171.51 38.512C171.239 31.7407 181.386 31.4989 181.413 38.297Z" fill="#F4F9F5"/>
<path d="M200.27 42.4888L194.898 29.6986H188.793V47.1104H192.646V34.3203L197.991 47.1104H204.095V29.6986H200.27V42.4888Z" fill="#F4F9F5"/>
<path d="M222.165 39.3181C221.107 36.7654 213.537 36.658 211.692 35.3144C210.661 33.0842 214.243 33.541 215.545 33.4873C217.444 33.2992 218.909 34.0247 219.723 35.7712L222.979 33.7022C221.134 30.236 217.824 29.4299 214.161 29.6986C207.731 29.1612 204.882 36.4699 210.878 39.2644C211.095 39.5331 219.696 41.2527 219.126 42.032C218.963 43.8591 216.169 43.1336 214.867 43.2949C212.995 43.483 211.584 42.7843 210.851 41.0378L207.541 43.0262C208.952 45.9281 211.719 47.3254 214.867 47.1104C219.859 47.6747 225.068 44.8802 222.165 39.3181Z" fill="#F4F9F5"/>
<path d="M55.3871 24.8351C55.2514 23.4647 55.0344 22.1212 54.6817 20.8315C53.3522 21.0733 51.9142 21.1808 50.5034 21.1002C51.8328 25.7218 51.67 30.854 50.015 35.3951C41.0887 36.1206 34.4957 44.934 36.3407 53.613C48.4685 49.8781 56.7979 37.3297 55.3871 24.8351ZM40.7631 47.0298C41.8755 43.7785 44.453 41.1721 47.736 40.0167C45.9181 42.8112 43.5306 45.2027 40.7631 47.0298Z" fill="#44693D"/>
<path d="M15.6664 2.77473C4.10835 8.14876 -2.40323 21.8256 0.82543 34.0784C2.15488 33.8097 3.56572 33.6754 4.97656 33.7291C3.67425 29.1075 3.8913 23.9753 5.57346 19.4879C14.6625 18.9237 21.4454 10.0565 19.5734 1.27001C18.2168 1.64619 16.9145 2.15672 15.6664 2.77473ZM7.82538 14.92C9.69746 11.9912 12.2207 9.51913 15.2052 7.66509C14.0656 11.1045 11.2982 13.8184 7.82538 14.92Z" fill="#44693D"/>
</svg>
