<svg width="43" height="47" viewBox="0 0 43 47" fill="none" xmlns="http://www.w3.org/2000/svg">
<path d="M39.7865 18.0078L9.59426 0.853252C8.60826 0.285784 7.4906 -0.00855043 6.35498 0.000189102C5.21936 0.00892863 4.1063 0.320431 3.12902 0.903008C2.17691 1.4514 1.38589 2.24382 0.836318 3.19976C0.286747 4.15569 -0.00179365 5.24109 8.38929e-06 6.34569V40.6547C-0.00179365 41.7593 0.286747 42.8447 0.836318 43.8007C1.38589 44.7566 2.17691 45.549 3.12902 46.0974C4.10639 46.6797 5.21942 46.9911 6.35498 46.9998C7.49055 47.0085 8.60817 46.7144 9.59426 46.1472L39.7865 28.9927C40.7602 28.4494 41.5718 27.6536 42.1369 26.6877C42.702 25.7219 43 24.6213 43 23.5002C43 22.3792 42.702 21.2786 42.1369 20.3127C41.5718 19.3469 40.7602 18.551 39.7865 18.0078Z" fill="white"/>
</svg>
