<svg width="48" height="50" viewBox="0 0 48 50" fill="none" xmlns="http://www.w3.org/2000/svg">
<path d="M35.7447 18.8141C39.2643 18.8141 42.1277 15.9237 42.1277 12.371C42.1277 8.81821 39.2643 5.92781 35.7447 5.92781C32.225 5.92781 29.3617 8.81821 29.3617 12.371C29.3617 15.9237 32.2251 18.8141 35.7447 18.8141ZM35.7447 6.9587C38.7011 6.9587 41.1063 9.38663 41.1063 12.371C41.1063 15.3553 38.7011 17.7832 35.7447 17.7832C32.7882 17.7832 30.383 15.3553 30.383 12.371C30.383 9.38663 32.7882 6.9587 35.7447 6.9587Z" fill="#44693D"/>
<path d="M35.7447 3.34271C36.0267 3.34271 36.2553 3.11195 36.2553 2.82727V0.515448C36.2553 0.230763 36.0267 0 35.7447 0C35.4626 0 35.234 0.230763 35.234 0.515448V2.82727C35.234 3.11195 35.4626 3.34271 35.7447 3.34271Z" fill="#44693D"/>
<path d="M30.5753 4.36356C30.6699 4.52899 30.8415 4.62144 31.018 4.62144C31.1046 4.62144 31.1925 4.59914 31.2728 4.55223C31.5171 4.40984 31.6008 4.09468 31.4598 3.84811L30.3146 1.8461C30.1736 1.59953 29.8613 1.51504 29.6171 1.65743C29.3728 1.79983 29.2891 2.11498 29.4302 2.36155L30.5753 4.36356Z" fill="#44693D"/>
<path d="M25.3182 6.8896L27.3016 8.0454C27.3821 8.09231 27.4698 8.11461 27.5564 8.11461C27.733 8.11461 27.9046 8.02205 27.9991 7.85673C28.1402 7.61016 28.0565 7.295 27.8122 7.15261L25.8288 5.9968C25.5841 5.8542 25.2721 5.93901 25.1313 6.18548C24.9903 6.43205 25.0739 6.7472 25.3182 6.8896Z" fill="#44693D"/>
<path d="M24.0001 12.8864H26.2903C26.5723 12.8864 26.8009 12.6556 26.8009 12.371C26.8009 12.0863 26.5723 11.8555 26.2903 11.8555H24.0001C23.718 11.8555 23.4894 12.0863 23.4894 12.371C23.4894 12.6556 23.7179 12.8864 24.0001 12.8864Z" fill="#44693D"/>
<path d="M27.3016 16.6963L25.3182 17.8522C25.0739 17.9946 24.9902 18.3098 25.1313 18.5563C25.2259 18.7218 25.3974 18.8142 25.574 18.8142C25.6606 18.8142 25.7484 18.7919 25.8288 18.745L27.8122 17.5891C28.0565 17.4467 28.1401 17.1315 27.9991 16.885C27.8582 16.6384 27.5458 16.5537 27.3016 16.6963Z" fill="#44693D"/>
<path d="M30.5753 20.3782L29.4302 22.3804C29.2891 22.6269 29.3728 22.9421 29.6171 23.0845C29.6975 23.1314 29.7853 23.1537 29.872 23.1537C30.0485 23.1537 30.2202 23.0612 30.3146 22.8958L31.4598 20.8937C31.6008 20.6471 31.5171 20.332 31.2728 20.1896C31.0285 20.0469 30.7162 20.1317 30.5753 20.3782Z" fill="#44693D"/>
<path d="M35.234 21.9145V24.2265C35.234 24.5111 35.4626 24.7419 35.7447 24.7419C36.0267 24.7419 36.2553 24.5111 36.2553 24.2265V21.9145C36.2553 21.6299 36.0267 21.3991 35.7447 21.3991C35.4626 21.3991 35.234 21.6299 35.234 21.9145Z" fill="#44693D"/>
<path d="M40.2166 20.1896C39.9723 20.332 39.8887 20.6471 40.0297 20.8937L41.1748 22.8958C41.2694 23.0612 41.4409 23.1537 41.6175 23.1537C41.7041 23.1537 41.792 23.1314 41.8723 23.0845C42.1166 22.9421 42.2002 22.6269 42.0592 22.3804L40.9141 20.3782C40.7732 20.1317 40.4608 20.0469 40.2166 20.1896Z" fill="#44693D"/>
<path d="M43.6771 17.5891L45.6605 18.745C45.7409 18.7919 45.8288 18.8142 45.9154 18.8142C46.0919 18.8142 46.2636 18.7218 46.3581 18.5563C46.4991 18.3098 46.4154 17.9946 46.1712 17.8522L44.1878 16.6963C43.9433 16.5537 43.6312 16.6384 43.4902 16.885C43.3493 17.1315 43.4328 17.4468 43.6771 17.5891Z" fill="#44693D"/>
<path d="M44.6885 12.371C44.6885 12.6556 44.9171 12.8864 45.1992 12.8864H47.4894C47.7714 12.8864 48 12.6556 48 12.371C48 12.0863 47.7714 11.8555 47.4894 11.8555H45.1992C44.9171 11.8555 44.6885 12.0863 44.6885 12.371Z" fill="#44693D"/>
<path d="M43.933 8.11461C44.0196 8.11461 44.1075 8.09231 44.1879 8.0454L46.1713 6.8896C46.4155 6.7472 46.4991 6.43205 46.3582 6.18548C46.2171 5.9389 45.9048 5.8542 45.6606 5.9968L43.6772 7.15261C43.433 7.295 43.3494 7.61016 43.4903 7.85673C43.5848 8.02216 43.7565 8.11461 43.933 8.11461Z" fill="#44693D"/>
<path d="M40.2166 4.55223C40.297 4.59914 40.3848 4.62144 40.4714 4.62144C40.648 4.62144 40.8196 4.52899 40.9141 4.36356L42.0592 2.36155C42.2003 2.11498 42.1166 1.79983 41.8723 1.65743C41.6279 1.51483 41.3158 1.59953 41.1748 1.8461L40.0297 3.84811C39.8886 4.09468 39.9723 4.40984 40.2166 4.55223Z" fill="#44693D"/>
<path d="M40.4738 26.7198C40.3973 26.5223 40.2085 26.3923 39.9984 26.3923H8.00178C7.79164 26.3923 7.60296 26.5223 7.52631 26.7198L0.0352022 46.0287C-0.0264095 46.1873 -0.00628721 46.3664 0.0888271 46.5071C0.183941 46.6479 0.341808 46.732 0.510566 46.732H4.02285V49.4846C4.02285 49.7692 4.25145 50 4.53348 50H43.4665C43.7485 50 43.9771 49.7692 43.9771 49.4846V46.732H47.4894C47.6581 46.732 47.816 46.6479 47.9111 46.5071C48.0062 46.3664 48.0264 46.1873 47.9647 46.0287L40.4738 26.7198ZM39.6499 27.4232L42.9955 36.0467H34.2923L32.6196 27.4232H39.6499ZM31.5788 27.4232L33.2516 36.0467H24.5106V27.4232H31.5788ZM24.5107 37.0777H33.4517L35.1244 45.7011H24.5107V37.0777ZM16.4212 27.4232H23.4893V36.0467H14.7484L16.4212 27.4232ZM23.4893 37.0777V45.7011H12.8757L14.5485 37.0777H23.4893ZM8.35019 27.4232H15.3806L13.7078 36.0467H5.00459L8.35019 27.4232ZM1.25903 45.7011L4.65712 36.9423C4.74787 37.0255 4.86716 37.0777 4.9994 37.0777H13.5076L11.8349 45.7011H1.25903ZM5.04421 48.9692V46.7321H42.9559V48.9692H5.04421ZM36.1651 45.7011L34.4923 37.0777H43.0005C43.1329 37.0777 43.2522 37.0257 43.3428 36.9423L46.7409 45.7011H36.1651Z" fill="#44693D"/>
</svg>
