<svg width="44" height="40" viewBox="0 0 44 40" fill="none" xmlns="http://www.w3.org/2000/svg">
<path d="M43.9968 39.1898L41.7968 15.492C41.7735 15.2421 41.6267 15.0207 41.4065 14.9045L32.9731 10.4524C32.9575 10.4442 32.9394 10.4459 32.9233 10.4389C32.8753 10.4179 32.8242 10.408 32.7714 10.3976C32.7205 10.3876 32.6724 10.3759 32.6208 10.3767C32.6092 10.3769 32.5992 10.3714 32.5874 10.3721C32.5459 10.3747 32.511 10.3942 32.4717 10.4035C32.4318 10.4127 32.3902 10.4088 32.3519 10.4249L29.7412 11.5213C29.367 11.6782 29.1902 12.112 29.3455 12.4896C29.5013 12.8679 29.9299 13.0467 30.3041 12.8893L31.9654 12.1917L33.3344 34.3001L22.7333 38.2005V22.8195C22.7333 22.4103 22.4049 22.0787 22 22.0787C21.595 22.0787 21.2667 22.4104 21.2667 22.8195V38.2005L10.6656 34.3001L12.0346 12.1917L13.6959 12.8893C14.0705 13.0466 14.4995 12.8679 14.6545 12.4896C14.8099 12.112 14.633 11.6782 14.2588 11.5213L11.6481 10.4249C11.61 10.4089 11.5685 10.4128 11.5288 10.4036C11.4894 10.3943 11.4543 10.3748 11.4125 10.3721C11.4008 10.3715 11.3908 10.377 11.3792 10.3769C11.3259 10.3759 11.2763 10.3884 11.2238 10.3991C11.1746 10.4093 11.1269 10.4181 11.0819 10.4376C11.0641 10.4452 11.0442 10.4434 11.0269 10.4524L2.59356 14.9045C2.37339 15.0207 2.22652 15.2421 2.20323 15.492L0.00322714 39.1898C-0.0215229 39.4558 0.0974148 39.7144 0.314407 39.867C0.530713 40.0193 0.813534 40.0424 1.05098 39.9267L9.93943 35.6099L21.7491 39.9549C21.9109 40.015 22.0892 40.015 22.2511 39.9549L34.0608 35.6099L42.9492 39.9267C43.0498 39.9755 43.1587 39.9998 43.2668 39.9998C43.414 39.9998 43.5608 39.9549 43.6858 39.8671C43.9026 39.7143 44.0215 39.4557 43.9968 39.1898ZM9.19426 34.3275L1.58431 38.0236L3.62602 16.0313L10.5535 12.374L9.19426 34.3275ZM34.8055 34.3275L33.4462 12.374L40.3737 16.0313L42.4155 38.0236L34.8055 34.3275Z" fill="#44693D"/>
<path d="M15.5384 10.506L21.37 20.379C21.5025 20.6032 21.7417 20.7403 21.9998 20.7403C22.258 20.7403 22.4972 20.6032 22.6297 20.379L28.477 10.4778C28.7585 9.94968 28.9469 9.50224 29.0693 9.06886C29.2444 8.44996 29.3332 7.80718 29.3332 7.15894C29.3332 6.18914 29.1381 5.24833 28.7528 4.36169C28.3818 3.50839 27.8508 2.74225 27.1755 2.08533C26.5024 1.43023 25.7182 0.91585 24.8455 0.556698C23.0408 -0.185566 20.959 -0.185566 19.1543 0.556698C18.2817 0.91585 17.4975 1.43031 16.8247 2.08533C16.1489 2.74225 15.6179 3.50839 15.247 4.36204C14.8618 5.24824 14.6666 6.18914 14.6666 7.15894C14.6666 7.80718 14.7554 8.44996 14.9305 9.06921C15.0529 9.50215 15.2413 9.94959 15.5384 10.506ZM16.5898 4.95776C16.8835 4.28208 17.3049 3.67473 17.842 3.15236C18.3806 2.62827 19.0083 2.21659 19.7072 1.92898C20.4334 1.63016 21.2047 1.47902 21.9999 1.47902C22.7952 1.47902 23.5665 1.63025 24.2927 1.92898C24.9916 2.2165 25.6194 2.62818 26.1582 3.15236C26.695 3.67473 27.1164 4.28199 27.41 4.95741C27.713 5.65479 27.8666 6.39532 27.8666 7.15885C27.8666 7.66958 27.7969 8.17528 27.6594 8.66187C27.5666 8.9896 27.4162 9.34337 27.2017 9.74706L21.9999 18.5537L16.8139 9.77527C16.5837 9.34337 16.4333 8.9896 16.3406 8.66222C16.2031 8.17537 16.1333 7.66967 16.1333 7.15885C16.1332 6.39532 16.2869 5.65479 16.5898 4.95776Z" fill="#44693D"/>
<path d="M21.9999 11.1119C24.0216 11.1119 25.6666 9.45006 25.6666 7.40775C25.6666 5.36544 24.0216 3.70364 21.9999 3.70364C19.9782 3.70364 18.3332 5.36544 18.3332 7.40775C18.3332 9.45006 19.9782 11.1119 21.9999 11.1119ZM21.9999 5.1853C23.2131 5.1853 24.1999 6.18219 24.1999 7.40775C24.1999 8.63331 23.2131 9.6302 21.9999 9.6302C20.7867 9.6302 19.7999 8.63331 19.7999 7.40775C19.7999 6.18219 20.7867 5.1853 21.9999 5.1853Z" fill="#44693D"/>
</svg>
