<svg width="40" height="40" viewBox="0 0 40 40" fill="none" xmlns="http://www.w3.org/2000/svg">
<path d="M36.6667 4H33.3333V2.66667C33.3333 1.95942 33.0524 1.28115 32.5523 0.781048C32.0522 0.280952 31.3739 0 30.6667 0C29.9594 0 29.2811 0.280952 28.781 0.781048C28.281 1.28115 28 1.95942 28 2.66667V4H22.6667V2.66667C22.6667 1.95942 22.3857 1.28115 21.8856 0.781048C21.3855 0.280952 20.7072 0 20 0C19.2928 0 18.6145 0.280952 18.1144 0.781048C17.6143 1.28115 17.3333 1.95942 17.3333 2.66667V4H12V2.66667C12 1.95942 11.719 1.28115 11.219 0.781048C10.7189 0.280952 10.0406 0 9.33333 0C8.62609 0 7.94781 0.280952 7.44772 0.781048C6.94762 1.28115 6.66667 1.95942 6.66667 2.66667V4H3.33333C2.44928 4 1.60143 4.35119 0.976311 4.97631C0.351189 5.60143 0 6.44928 0 7.33333V34C0 34.884 0.351189 35.7319 0.976311 36.357C1.60143 36.9821 2.44928 37.3333 3.33333 37.3333H22C22.1768 37.3333 22.3464 37.2631 22.4714 37.1381C22.5964 37.013 22.6667 36.8435 22.6667 36.6667C22.6667 36.4898 22.5964 36.3203 22.4714 36.1953C22.3464 36.0702 22.1768 36 22 36H3.33333C2.80339 35.9984 2.2956 35.7872 1.92087 35.4125C1.54614 35.0377 1.33492 34.5299 1.33333 34V13.3333H38.6667V24.6667C38.6667 24.8435 38.7369 25.013 38.8619 25.1381C38.987 25.2631 39.1565 25.3333 39.3333 25.3333C39.5101 25.3333 39.6797 25.2631 39.8047 25.1381C39.9298 25.013 40 24.8435 40 24.6667V7.33333C40 6.44928 39.6488 5.60143 39.0237 4.97631C38.3986 4.35119 37.5507 4 36.6667 4ZM29.3333 2.66667C29.3333 2.31304 29.4738 1.97391 29.7239 1.72386C29.9739 1.47381 30.313 1.33333 30.6667 1.33333C31.0203 1.33333 31.3594 1.47381 31.6095 1.72386C31.8595 1.97391 32 2.31304 32 2.66667V6.66667C32 7.02029 31.8595 7.35943 31.6095 7.60947C31.3594 7.85952 31.0203 8 30.6667 8C30.313 8 29.9739 7.85952 29.7239 7.60947C29.4738 7.35943 29.3333 7.02029 29.3333 6.66667V2.66667ZM18.6667 2.66667C18.6667 2.31304 18.8071 1.97391 19.0572 1.72386C19.3072 1.47381 19.6464 1.33333 20 1.33333C20.3536 1.33333 20.6928 1.47381 20.9428 1.72386C21.1929 1.97391 21.3333 2.31304 21.3333 2.66667V6.66667C21.3333 7.02029 21.1929 7.35943 20.9428 7.60947C20.6928 7.85952 20.3536 8 20 8C19.6464 8 19.3072 7.85952 19.0572 7.60947C18.8071 7.35943 18.6667 7.02029 18.6667 6.66667V2.66667ZM8 2.66667C8 2.31304 8.14048 1.97391 8.39052 1.72386C8.64057 1.47381 8.97971 1.33333 9.33333 1.33333C9.68696 1.33333 10.0261 1.47381 10.2761 1.72386C10.5262 1.97391 10.6667 2.31304 10.6667 2.66667V6.66667C10.6667 7.02029 10.5262 7.35943 10.2761 7.60947C10.0261 7.85952 9.68696 8 9.33333 8C8.97971 8 8.64057 7.85952 8.39052 7.60947C8.14048 7.35943 8 7.02029 8 6.66667V2.66667ZM38.6667 12H1.33333V7.33333C1.33492 6.80339 1.54614 6.2956 1.92087 5.92087C2.2956 5.54614 2.80339 5.33492 3.33333 5.33333H6.66667V6.66667C6.66667 7.37391 6.94762 8.05219 7.44772 8.55228C7.94781 9.05238 8.62609 9.33333 9.33333 9.33333C10.0406 9.33333 10.7189 9.05238 11.219 8.55228C11.719 8.05219 12 7.37391 12 6.66667V5.33333H17.3333V6.66667C17.3333 7.37391 17.6143 8.05219 18.1144 8.55228C18.6145 9.05238 19.2928 9.33333 20 9.33333C20.7072 9.33333 21.3855 9.05238 21.8856 8.55228C22.3857 8.05219 22.6667 7.37391 22.6667 6.66667V5.33333H28V6.66667C28 7.37391 28.281 8.05219 28.781 8.55228C29.2811 9.05238 29.9594 9.33333 30.6667 9.33333C31.3739 9.33333 32.0522 9.05238 32.5523 8.55228C33.0524 8.05219 33.3333 7.37391 33.3333 6.66667V5.33333H36.6667C37.1966 5.33492 37.7044 5.54614 38.0791 5.92087C38.4539 6.2956 38.6651 6.80339 38.6667 7.33333V12Z" fill="#44693D"/>
<path d="M18.6667 18C18.6667 17.6464 18.5262 17.3072 18.2761 17.0572C18.0261 16.8071 17.687 16.6667 17.3333 16.6667H14.6667C14.313 16.6667 13.9739 16.8071 13.7239 17.0572C13.4738 17.3072 13.3333 17.6464 13.3333 18V20C13.3333 20.3536 13.4738 20.6928 13.7239 20.9428C13.9739 21.1929 14.313 21.3333 14.6667 21.3333H17.3333C17.687 21.3333 18.0261 21.1929 18.2761 20.9428C18.5262 20.6928 18.6667 20.3536 18.6667 20V18ZM14.6667 20V18H17.3333V20H14.6667Z" fill="#44693D"/>
<path d="M10.6667 18C10.6667 17.6464 10.5262 17.3072 10.2761 17.0572C10.0261 16.8071 9.68696 16.6667 9.33333 16.6667H6.66667C6.31305 16.6667 5.97391 16.8071 5.72386 17.0572C5.47381 17.3072 5.33333 17.6464 5.33333 18V20C5.33333 20.3536 5.47381 20.6928 5.72386 20.9428C5.97391 21.1929 6.31305 21.3333 6.66667 21.3333H9.33333C9.68696 21.3333 10.0261 21.1929 10.2761 20.9428C10.5262 20.6928 10.6667 20.3536 10.6667 20V18ZM6.66667 20V18H9.33333V20H6.66667Z" fill="#44693D"/>
<path d="M33.3333 21.3333C33.687 21.3333 34.0261 21.1929 34.2761 20.9428C34.5262 20.6928 34.6667 20.3536 34.6667 20V18C34.6667 17.6464 34.5262 17.3072 34.2761 17.0572C34.0261 16.8071 33.687 16.6667 33.3333 16.6667H30.6667C30.313 16.6667 29.9739 16.8071 29.7239 17.0572C29.4738 17.3072 29.3333 17.6464 29.3333 18V20C29.3333 20.3536 29.4738 20.6928 29.7239 20.9428C29.9739 21.1929 30.313 21.3333 30.6667 21.3333H33.3333ZM30.6667 18H33.3333V20H30.6667V18Z" fill="#44693D"/>
<path d="M18.6667 24C18.6667 23.6464 18.5262 23.3072 18.2761 23.0572C18.0261 22.8071 17.687 22.6667 17.3333 22.6667H14.6667C14.313 22.6667 13.9739 22.8071 13.7239 23.0572C13.4738 23.3072 13.3333 23.6464 13.3333 24V26C13.3333 26.3536 13.4738 26.6928 13.7239 26.9428C13.9739 27.1929 14.313 27.3333 14.6667 27.3333H17.3333C17.687 27.3333 18.0261 27.1929 18.2761 26.9428C18.5262 26.6928 18.6667 26.3536 18.6667 26V24ZM14.6667 26V24H17.3333V26H14.6667Z" fill="#44693D"/>
<path d="M10.6667 24C10.6667 23.6464 10.5262 23.3072 10.2761 23.0572C10.0261 22.8071 9.68696 22.6667 9.33333 22.6667H6.66667C6.31305 22.6667 5.97391 22.8071 5.72386 23.0572C5.47381 23.3072 5.33333 23.6464 5.33333 24V26C5.33333 26.3536 5.47381 26.6928 5.72386 26.9428C5.97391 27.1929 6.31305 27.3333 6.66667 27.3333H9.33333C9.68696 27.3333 10.0261 27.1929 10.2761 26.9428C10.5262 26.6928 10.6667 26.3536 10.6667 26V24ZM6.66667 26V24H9.33333V26H6.66667Z" fill="#44693D"/>
<path d="M17.3333 28.6667H14.6667C14.313 28.6667 13.9739 28.8071 13.7239 29.0572C13.4738 29.3072 13.3333 29.6464 13.3333 30V32C13.3333 32.3536 13.4738 32.6928 13.7239 32.9428C13.9739 33.1929 14.313 33.3333 14.6667 33.3333H17.3333C17.687 33.3333 18.0261 33.1929 18.2761 32.9428C18.5262 32.6928 18.6667 32.3536 18.6667 32V30C18.6667 29.6464 18.5262 29.3072 18.2761 29.0572C18.0261 28.8071 17.687 28.6667 17.3333 28.6667ZM14.6667 32V30H17.3333V32H14.6667Z" fill="#44693D"/>
<path d="M22.6667 21.3333H25.3333C25.687 21.3333 26.0261 21.1929 26.2761 20.9428C26.5262 20.6928 26.6667 20.3536 26.6667 20V18C26.6667 17.6464 26.5262 17.3072 26.2761 17.0572C26.0261 16.8071 25.687 16.6667 25.3333 16.6667H22.6667C22.313 16.6667 21.9739 16.8071 21.7239 17.0572C21.4738 17.3072 21.3333 17.6464 21.3333 18V20C21.3333 20.3536 21.4738 20.6928 21.7239 20.9428C21.9739 21.1929 22.313 21.3333 22.6667 21.3333ZM22.6667 18H25.3333V20H22.6667V18Z" fill="#44693D"/>
<path d="M21.3333 26C21.3333 26.3536 21.4738 26.6928 21.7239 26.9428C21.9739 27.1929 22.313 27.3333 22.6667 27.3333C22.8435 27.3333 23.013 27.2631 23.1381 27.1381C23.2631 27.013 23.3333 26.8435 23.3333 26.6667C23.3333 26.4899 23.2631 26.3203 23.1381 26.1953C23.013 26.0702 22.8435 26 22.6667 26V24H25.3333C25.5101 24 25.6797 23.9298 25.8047 23.8047C25.9298 23.6797 26 23.5101 26 23.3333C26 23.1565 25.9298 22.9869 25.8047 22.8619C25.6797 22.7369 25.5101 22.6667 25.3333 22.6667H22.6667C22.313 22.6667 21.9739 22.8071 21.7239 23.0572C21.4738 23.3072 21.3333 23.6464 21.3333 24V26Z" fill="#44693D"/>
<path d="M9.33333 28.6667H6.66667C6.31305 28.6667 5.97391 28.8071 5.72386 29.0572C5.47381 29.3072 5.33333 29.6464 5.33333 30V32C5.33333 32.3536 5.47381 32.6928 5.72386 32.9428C5.97391 33.1929 6.31305 33.3333 6.66667 33.3333H9.33333C9.68696 33.3333 10.0261 33.1929 10.2761 32.9428C10.5262 32.6928 10.6667 32.3536 10.6667 32V30C10.6667 29.6464 10.5262 29.3072 10.2761 29.0572C10.0261 28.8071 9.68696 28.6667 9.33333 28.6667ZM6.66667 32V30H9.33333V32H6.66667Z" fill="#44693D"/>
<path d="M31.3333 22.6667C29.6192 22.6667 27.9436 23.175 26.5184 24.1273C25.0932 25.0796 23.9823 26.4331 23.3264 28.0167C22.6704 29.6004 22.4988 31.3429 22.8332 33.0241C23.1676 34.7053 23.993 36.2495 25.2051 37.4616C26.4171 38.6736 27.9614 39.4991 29.6426 39.8335C31.3237 40.1679 33.0663 39.9962 34.6499 39.3403C36.2336 38.6843 37.5871 37.5735 38.5394 36.1483C39.4917 34.723 40 33.0474 40 31.3333C39.9974 29.0356 39.0834 26.8327 37.4587 25.208C35.8339 23.5833 33.6311 22.6693 31.3333 22.6667ZM31.3333 38.6667C29.8829 38.6667 28.4651 38.2366 27.2592 37.4308C26.0532 36.625 25.1133 35.4797 24.5582 34.1397C24.0032 32.7997 23.858 31.3252 24.1409 29.9027C24.4239 28.4801 25.1223 27.1735 26.1479 26.1479C27.1735 25.1223 28.4801 24.4239 29.9027 24.1409C31.3252 23.8579 32.7997 24.0032 34.1397 24.5582C35.4797 25.1133 36.625 26.0532 37.4308 27.2591C38.2366 28.4651 38.6667 29.8829 38.6667 31.3333C38.6644 33.2775 37.891 35.1415 36.5163 36.5162C35.1415 37.891 33.2775 38.6644 31.3333 38.6667Z" fill="#44693D"/>
<path d="M35.1853 28.5387L30 33.724L27.6433 31.3667C27.5176 31.2452 27.3492 31.178 27.1744 31.1795C26.9996 31.1811 26.8324 31.2512 26.7088 31.3748C26.5852 31.4984 26.5151 31.6656 26.5135 31.8404C26.512 32.0152 26.5792 32.1836 26.7007 32.3093L29.5287 35.138C29.6537 35.263 29.8232 35.3332 30 35.3332C30.1768 35.3332 30.3463 35.263 30.4713 35.138L36.128 29.4813C36.2494 29.3556 36.3166 29.1872 36.3151 29.0124C36.3136 28.8376 36.2435 28.6704 36.1199 28.5468C35.9963 28.4232 35.8291 28.3531 35.6543 28.3515C35.4795 28.35 35.3111 28.4172 35.1853 28.5387Z" fill="#44693D"/>
</svg>
